M48
; DRILL file {KiCad (5.1.5-0-10_14)} date 2021 January 28, Thursday 08:30:47
; FORMAT={-:-/ absolute / metric / decimal}
; #@! TF.CreationDate,2021-01-28T08:30:47+01:00
; #@! TF.GenerationSoftware,Kicad,Pcbnew,(5.1.5-0-10_14)
; #@! TF.FileFunction,Plated,1,4,PTH
FMAT,2
METRIC
T1C0.200
T2C0.300
T3C0.400
T4C0.600
T5C0.650
T6C0.800
T7C0.900
T8C1.000
T9C1.500
%
G90
G05
T1
X87.782Y-140.132
X87.782Y-146.596
X87.808Y-132.969
X87.808Y-137.77
X89.357Y-146.558
X91.148Y-134.76
X91.161Y-135.357
X91.161Y-135.992
X91.161Y-136.627
X91.313Y-138.862
X92.558Y-122.911
X92.761Y-124.879
X92.786Y-139.319
X92.799Y-139.992
X92.799Y-144.107
X93.091Y-141.541
X93.116Y-138.379
X93.116Y-140.767
X93.116Y-142.392
X93.116Y-143.18
X93.116Y-144.78
X93.116Y-145.593
X93.142Y-133.528
X93.142Y-134.366
X93.142Y-135.941
X93.142Y-136.779
X93.142Y-137.566
X93.574Y-128.245
X93.904Y-123.215
X93.904Y-125.882
X94.031Y-134.366
X94.031Y-135.179
X94.031Y-135.941
X94.031Y-136.779
X94.031Y-137.566
X94.031Y-138.379
X94.031Y-139.192
X94.031Y-142.342
X94.031Y-143.993
X94.031Y-144.78
X94.056Y-140.741
X94.539Y-123.215
X94.793Y-143.18
X94.793Y-144.78
X94.818Y-135.179
X94.818Y-135.941
X94.818Y-136.779
X94.818Y-137.566
X94.818Y-141.58
X94.818Y-142.342
X94.958Y-146.088
X95.123Y-123.215
X95.123Y-125.273
X95.123Y-125.882
X95.313Y-130.708
X95.656Y-134.366
X95.682Y-145.593
X95.733Y-123.215
X95.733Y-125.273
X95.809Y-136.779
X96.037Y-151.892
X96.19Y-120.917
X96.317Y-123.215
X96.317Y-125.273
X96.622Y-146.431
X96.634Y-146.99
X96.876Y-123.215
X96.876Y-125.273
X97.041Y-119.672
X97.549Y-141.224
X97.587Y-120.917
X97.841Y-123.215
X97.866Y-144.78
X97.968Y-134.366
X97.968Y-135.941
X98.069Y-126.898
X98.247Y-128.245
X98.654Y-153.695
X98.679Y-119.672
X98.717Y-123.215
X98.73Y-121.006
X98.73Y-125.374
X98.806Y-126.898
X98.806Y-136.779
X98.831Y-134.366
X98.831Y-135.179
X98.831Y-138.379
X98.831Y-140.741
X98.831Y-141.58
X98.831Y-143.18
X98.831Y-145.593
X99.238Y-130.708
X99.543Y-126.898
X99.593Y-123.215
X99.619Y-135.179
X99.619Y-135.941
X99.619Y-136.779
X99.619Y-138.379
X99.619Y-139.192
X99.619Y-140.741
X99.619Y-141.58
X99.619Y-143.18
X99.619Y-143.993
X99.619Y-144.78
X99.619Y-145.593
X99.911Y-121.006
X100.152Y-123.215
X100.178Y-127.737
X100.305Y-119.672
X100.508Y-133.528
X100.533Y-134.366
X100.533Y-135.941
X100.533Y-139.192
X100.533Y-140.741
X100.533Y-141.58
X100.533Y-143.18
X100.533Y-145.593
X100.559Y-144.78
X100.711Y-123.215
X100.711Y-142.392
X101.092Y-121.006
X101.092Y-125.755
X101.295Y-137.592
X101.397Y-119.609
X101.956Y-125.755
X102.032Y-119.583
X102.616Y-125.755
X102.641Y-119.583
X102.972Y-126.873
X103.099Y-144.577
X103.441Y-105.804
X103.861Y-133.667
X104.318Y-124.943
X104.521Y-144.577
X104.927Y-124.943
X105.118Y-123.266
X105.969Y-142.469
X105.969Y-143.18
X105.994Y-143.916
X105.994Y-144.551
X106.02Y-125.298
X106.604Y-153.695
X107.721Y-123.266
X108.026Y-116.7
X108.128Y-140.233
X108.153Y-139.446
X108.56Y-141.427
X108.623Y-116.7
X108.788Y-140.767
X109.347Y-138.506
X109.931Y-143.18
X110.668Y-143.307
X111.176Y-126.34
X111.201Y-130.251
X111.227Y-138.684
X111.227Y-139.649
X111.227Y-140.614
X111.227Y-141.605
X111.354Y-125.578
X112.243Y-148.133
X112.243Y-148.692
X112.674Y-134.976
X113.297Y-113.335
X113.335Y-133.045
X113.894Y-138.659
X114.097Y-120.485
X114.148Y-127.762
X114.884Y-134.112
X115.113Y-121.45
X115.443Y-144.221
X115.697Y-125.806
X116.332Y-116.611
X116.992Y-116.586
X117.018Y-131.699
X117.424Y-144.208
X117.754Y-123.876
X117.805Y-126.34
X117.805Y-132.74
X117.805Y-135.128
X117.805Y-137.566
X117.831Y-116.789
X117.983Y-141.199
X117.983Y-141.757
X118.415Y-144.208
X118.593Y-137.566
X118.618Y-130.353
X118.618Y-131.953
X118.618Y-135.941
X119.228Y-147.371
X119.405Y-125.527
X119.405Y-126.34
X119.405Y-127.94
X119.405Y-128.727
X119.405Y-129.54
X119.405Y-132.74
X119.405Y-133.528
X119.405Y-135.115
X119.405Y-144.208
X119.418Y-135.953
X119.685Y-148.463
X119.875Y-108.839
X120.218Y-125.527
X120.218Y-126.34
X120.218Y-131.928
X120.218Y-132.74
X120.218Y-135.128
X120.218Y-135.941
X120.218Y-136.728
X120.218Y-137.566
X120.294Y-117.094
X120.955Y-147.371
X121.006Y-125.527
X121.006Y-126.34
X121.006Y-127.14
X121.006Y-127.94
X121.006Y-128.727
X121.006Y-129.54
X121.006Y-131.14
X121.006Y-131.928
X121.006Y-132.74
X121.006Y-135.103
X121.018Y-134.315
X121.018Y-136.741
X121.031Y-135.966
X121.158Y-112.979
X121.463Y-109.982
X121.818Y-125.527
X121.818Y-127.152
X121.818Y-134.315
X121.818Y-135.103
X122.225Y-148.412
X122.606Y-123.749
X122.606Y-125.527
X122.606Y-127.127
X122.606Y-134.315
X122.606Y-135.941
X123.419Y-125.527
X123.419Y-126.34
X123.419Y-127.127
X123.419Y-129.54
X123.419Y-130.353
X123.419Y-131.14
X123.419Y-131.902
X123.419Y-132.791
X123.419Y-135.941
X123.52Y-147.371
X124.104Y-128.346
X124.206Y-108.915
X124.206Y-131.14
X124.206Y-131.902
X124.231Y-125.527
X124.231Y-126.34
X124.231Y-127.127
X124.231Y-129.54
X124.231Y-134.315
X124.79Y-148.412
X124.841Y-117.5
X124.841Y-118.516
X124.993Y-129.515
X124.993Y-131.902
X125.019Y-116.103
X125.781Y-131.14
X125.781Y-131.902
X125.781Y-132.74
X125.806Y-125.527
X125.806Y-126.34
X125.806Y-127.127
X125.806Y-129.54
X125.806Y-130.353
X125.806Y-134.315
X125.806Y-136.728
X125.908Y-119.494
X126.111Y-140.716
X126.111Y-144.196
X126.213Y-137.592
X126.606Y-135.953
X126.619Y-125.527
X126.619Y-126.34
X126.619Y-127.127
X126.619Y-134.315
X126.975Y-120.65
X127.406Y-125.527
X127.406Y-127.127
X127.406Y-134.315
X127.406Y-135.153
X127.406Y-135.941
X127.406Y-136.728
X127.432Y-119.812
X127.838Y-140.703
X128.194Y-124.739
X128.219Y-125.527
X128.219Y-127.127
X128.219Y-127.914
X128.219Y-128.727
X128.219Y-129.515
X128.219Y-130.353
X128.219Y-131.953
X128.219Y-132.74
X128.219Y-133.528
X128.219Y-135.153
X128.219Y-135.941
X128.486Y-140.703
X128.595Y-147.391
X128.829Y-114.198
X128.93Y-119.812
X128.93Y-121.158
X129.007Y-125.527
X129.007Y-126.34
X129.007Y-127.127
X129.007Y-128.727
X129.007Y-130.353
X129.007Y-131.953
X129.007Y-132.74
X129.159Y-140.716
X129.438Y-121.768
X129.819Y-128.727
X129.819Y-129.515
X129.819Y-130.353
X129.819Y-131.14
X129.819Y-132.74
X129.819Y-133.528
X129.819Y-135.153
X129.819Y-135.941
X129.845Y-148.412
X130.124Y-121.768
X130.226Y-123.444
X130.48Y-119.812
X130.619Y-133.528
X130.632Y-127.914
X130.632Y-128.727
X130.632Y-131.953
X130.632Y-132.74
X130.632Y-134.315
X130.632Y-138.633
X130.81Y-121.768
X131.216Y-138.633
X131.394Y-123.952
X131.394Y-136.728
X131.394Y-137.516
X131.42Y-127.914
X131.42Y-128.727
X131.547Y-135.077
X131.572Y-134.163
X131.597Y-125.209
X131.597Y-126.733
X131.597Y-136.042
X131.75Y-132.334
X131.757Y-129.934
X131.801Y-138.633
X132.385Y-138.633
X132.537Y-122.326
X132.677Y-133.121
X132.69Y-126.695
X132.715Y-130.835
X132.766Y-134.734
X133.083Y-132.156
X133.325Y-133.147
X133.706Y-147.396
X134.264Y-124.13
X134.683Y-134.963
X134.925Y-148.412
X135.331Y-124.13
X135.433Y-136.855
X136.195Y-138.582
X136.398Y-140.31
X136.55Y-121.234
X136.944Y-135.344
X136.944Y-136.182
X137.35Y-135.801
X137.363Y-134.861
X137.439Y-132.651
X137.795Y-141.084
X137.846Y-119.888
X138.963Y-125.705
X139.014Y-130.607
X139.319Y-129.362
X140.437Y-129.4
X140.487Y-128.829
X142.215Y-127.724
X142.811Y-128.054
X144.704Y-128.841
X144.716Y-128.118
X144.869Y-104.407
X144.882Y-99.301
X144.882Y-101.905
X144.958Y-140.31
X144.958Y-140.97
X145.466Y-126.746
X145.466Y-128.118
X145.669Y-120.625
X145.898Y-132.994
X146.101Y-128.422
X148.565Y-122.58
X149.174Y-144.145
X149.2Y-130.251
X149.2Y-131.039
X149.2Y-143.281
X149.936Y-120.853
X149.936Y-139.446
X150.698Y-139.294
X151.435Y-136.119
X152.705Y-141.478
X153.721Y-137.846
X155.499Y-139.217
X156.159Y-139.243
X157.175Y-139.268
X158.623Y-141.986
X158.623Y-142.646
X158.623Y-143.459
X158.623Y-145.085
X159.868Y-123.393
T2
X88.595Y-134.62
X88.595Y-136.017
T3
X87.884Y-97.409
X88.646Y-121.158
X88.646Y-124.46
X88.646Y-150.114
X88.646Y-152.4
X88.646Y-154.94
X89.662Y-73.66
X89.662Y-81.026
X89.662Y-86.868
X89.992Y-97.384
X91.44Y-152.4
X91.44Y-154.94
X92.786Y-101.397
X94.234Y-154.94
X94.488Y-116.789
X95.987Y-101.956
X96.774Y-73.66
X96.774Y-81.026
X96.774Y-86.868
X97.028Y-154.94
X97.485Y-101.93
X98.908Y-110.033
X102.514Y-113.055
X102.54Y-105.562
X102.603Y-136.969
X103.378Y-73.66
X103.378Y-86.868
X103.708Y-107.061
X103.708Y-108.585
X103.861Y-101.422
X103.873Y-141.262
X103.886Y-102.921
X105.613Y-151.562
X106.553Y-110.49
X106.731Y-104.369
X106.921Y-129.235
X106.921Y-130.708
X107.569Y-101.422
X107.569Y-102.946
X109.982Y-81.026
X112.166Y-114.351
X114.148Y-111.481
X117.348Y-93.218
X117.348Y-99.06
X117.373Y-107.594
X118.415Y-85.725
X118.44Y-81.026
X120.345Y-81.026
X120.371Y-85.725
X123.622Y-81.026
X123.622Y-85.725
X123.698Y-93.218
X123.698Y-99.06
X125.527Y-81.026
X129.286Y-86.868
X129.286Y-93.218
X129.286Y-99.06
X129.286Y-104.14
X135.128Y-73.66
X135.128Y-81.026
X137.389Y-127.991
X137.757Y-138.659
X140.221Y-130.848
X140.221Y-132.105
X141.122Y-114.643
X141.224Y-73.66
X141.224Y-81.026
X141.224Y-86.868
X141.224Y-93.218
X145.11Y-153.975
X146.634Y-154.0
X146.837Y-126.213
X147.066Y-73.66
X147.066Y-81.026
X147.066Y-93.218
X147.066Y-99.06
X147.066Y-113.538
X150.241Y-126.238
X152.9Y-148.133
X152.9Y-149.479
X152.9Y-150.825
X152.908Y-152.248
X152.908Y-153.695
X152.908Y-155.169
X153.67Y-73.66
X153.67Y-81.026
X153.67Y-86.868
X153.67Y-99.06
X153.67Y-113.538
X154.178Y-129.032
X157.48Y-129.794
X157.48Y-132.08
X158.14Y-147.193
X159.258Y-154.051
X159.512Y-73.66
X159.512Y-81.026
X159.715Y-147.218
X151.731Y-127.959
X151.731Y-128.759
X151.731Y-129.559
X151.731Y-130.359
X151.731Y-131.159
X151.731Y-131.959
X151.731Y-132.759
X151.731Y-133.559
X152.431Y-128.359
X152.431Y-129.159
X152.431Y-129.959
X152.431Y-131.559
X152.431Y-132.359
X152.431Y-133.159
T5
X109.601Y-109.271
X109.601Y-110.541
X109.601Y-111.811
X109.601Y-113.081
X109.601Y-114.351
X110.871Y-109.271
X110.871Y-110.541
X110.871Y-111.811
X110.871Y-113.081
X110.871Y-114.351
T6
X141.834Y-152.425
T7
X135.57Y-91.719
X135.57Y-94.259
X135.57Y-96.799
X135.57Y-99.339
X135.57Y-101.879
X135.57Y-104.419
X135.57Y-106.959
X135.57Y-109.499
X158.43Y-91.719
X158.43Y-94.259
X158.43Y-96.799
X158.43Y-99.339
X158.43Y-101.879
X158.43Y-104.419
X158.43Y-106.959
X158.43Y-109.499
X95.225Y-96.774
X97.765Y-96.774
T8
X110.261Y-98.73
X110.261Y-101.27
X110.261Y-103.81
X115.895Y-152.436
X118.435Y-152.436
X120.975Y-152.436
X123.515Y-152.436
X126.055Y-152.436
X128.595Y-152.436
X131.135Y-152.436
X133.675Y-152.436
X136.215Y-152.436
X158.699Y-118.288
X158.699Y-120.828
X95.628Y-77.354
X105.753Y-94.891
T9
X111.785Y-73.127
X111.785Y-78.207
X114.325Y-75.667
X116.865Y-73.127
X116.865Y-78.207
X125.92Y-73.05
X125.92Y-78.13
X128.46Y-75.59
X131.0Y-73.05
X131.0Y-78.13
T4
G00X153.181Y-126.489
M15
G01X152.581Y-126.489
M16
G05
G00X153.181Y-135.029
M15
G01X152.581Y-135.029
M16
G05
G00X157.911Y-126.489
M15
G01X157.311Y-126.489
M16
G05
G00X157.911Y-135.029
M15
G01X157.311Y-135.029
M16
G05
T0
M30
