%FSLAX45Y45*%
G04 Gerber Fmt 4.5, Leading zero omitted, Abs format (unit mm)*
G04 Created by KiCad (PCBNEW (5.1.5-0-10_14)) date 2021-01-28 08:30:47*
%MOMM*%
%LPD*%
G04 APERTURE LIST*
%TA.AperFunction,Profile*%
%ADD10C,0.050000*%
%TD*%
%ADD11C,0.200000*%
%ADD12C,0.300000*%
G04 APERTURE END LIST*
D10*
X8850000Y-7050000D02*
X15900000Y-7050000D01*
X8650000Y-7250000D02*
X8650000Y-9700000D01*
X8650000Y-15450000D02*
X8650000Y-12150000D01*
X8850000Y-15650000D02*
G75*
G02X8650000Y-15450000I0J200000D01*
G01*
X15900000Y-15650000D02*
X8850000Y-15650000D01*
X16100000Y-15450000D02*
G75*
G02X15900000Y-15650000I-200000J0D01*
G01*
X16100000Y-7250000D02*
X16100000Y-15450000D01*
X15900000Y-7050000D02*
G75*
G02X16100000Y-7250000I0J-200000D01*
G01*
X8650000Y-7250000D02*
G75*
G02X8850000Y-7050000I200000J0D01*
G01*
X8850000Y-9900000D02*
X8900000Y-9900000D01*
X9100000Y-11750000D02*
X9100000Y-10100000D01*
X8850000Y-11950000D02*
X8900000Y-11950000D01*
X8650000Y-12150000D02*
G75*
G02X8850000Y-11950000I200000J0D01*
G01*
X9100000Y-11750000D02*
G75*
G02X8900000Y-11950000I-200000J0D01*
G01*
X8900000Y-9900000D02*
G75*
G02X9100000Y-10100000I0J-200000D01*
G01*
X8850000Y-9900000D02*
G75*
G02X8650000Y-9700000I0J200000D01*
G01*
D11*
X8768240Y-14003180D02*
X8788240Y-14023180D01*
X8788240Y-14003180D02*
X8768240Y-14023180D01*
X8768240Y-14649610D02*
X8788240Y-14669610D01*
X8788240Y-14649610D02*
X8768240Y-14669610D01*
X8770780Y-13286900D02*
X8790780Y-13306900D01*
X8790780Y-13286900D02*
X8770780Y-13306900D01*
X8770780Y-13766960D02*
X8790780Y-13786960D01*
X8790780Y-13766960D02*
X8770780Y-13786960D01*
X8925730Y-14645810D02*
X8945730Y-14665810D01*
X8945730Y-14645810D02*
X8925730Y-14665810D01*
X9104790Y-13465970D02*
X9124790Y-13485970D01*
X9124790Y-13465970D02*
X9104790Y-13485970D01*
X9106060Y-13525660D02*
X9126060Y-13545660D01*
X9126060Y-13525660D02*
X9106060Y-13545660D01*
X9106060Y-13589160D02*
X9126060Y-13609160D01*
X9126060Y-13589160D02*
X9106060Y-13609160D01*
X9106060Y-13652660D02*
X9126060Y-13672660D01*
X9126060Y-13652660D02*
X9106060Y-13672660D01*
X9121300Y-13876180D02*
X9141300Y-13896180D01*
X9141300Y-13876180D02*
X9121300Y-13896180D01*
X9245760Y-12281060D02*
X9265760Y-12301060D01*
X9265760Y-12281060D02*
X9245760Y-12301060D01*
X9266080Y-12477910D02*
X9286080Y-12497910D01*
X9286080Y-12477910D02*
X9266080Y-12497910D01*
X9268620Y-13921900D02*
X9288620Y-13941900D01*
X9288620Y-13921900D02*
X9268620Y-13941900D01*
X9269890Y-13989210D02*
X9289890Y-14009210D01*
X9289890Y-13989210D02*
X9269890Y-14009210D01*
X9269890Y-14400690D02*
X9289890Y-14420690D01*
X9289890Y-14400690D02*
X9269890Y-14420690D01*
X9299100Y-14144150D02*
X9319100Y-14164150D01*
X9319100Y-14144150D02*
X9299100Y-14164150D01*
X9301640Y-13827920D02*
X9321640Y-13847920D01*
X9321640Y-13827920D02*
X9301640Y-13847920D01*
X9301640Y-14066680D02*
X9321640Y-14086680D01*
X9321640Y-14066680D02*
X9301640Y-14086680D01*
X9301640Y-14229240D02*
X9321640Y-14249240D01*
X9321640Y-14229240D02*
X9301640Y-14249240D01*
X9301640Y-14307980D02*
X9321640Y-14327980D01*
X9321640Y-14307980D02*
X9301640Y-14327980D01*
X9301640Y-14468000D02*
X9321640Y-14488000D01*
X9321640Y-14468000D02*
X9301640Y-14488000D01*
X9301640Y-14549280D02*
X9321640Y-14569280D01*
X9321640Y-14549280D02*
X9301640Y-14569280D01*
X9304180Y-13342780D02*
X9324180Y-13362780D01*
X9324180Y-13342780D02*
X9304180Y-13362780D01*
X9304180Y-13426600D02*
X9324180Y-13446600D01*
X9324180Y-13426600D02*
X9304180Y-13446600D01*
X9304180Y-13584080D02*
X9324180Y-13604080D01*
X9324180Y-13584080D02*
X9304180Y-13604080D01*
X9304180Y-13667900D02*
X9324180Y-13687900D01*
X9324180Y-13667900D02*
X9304180Y-13687900D01*
X9304180Y-13746640D02*
X9324180Y-13766640D01*
X9324180Y-13746640D02*
X9304180Y-13766640D01*
X9347360Y-12814460D02*
X9367360Y-12834460D01*
X9367360Y-12814460D02*
X9347360Y-12834460D01*
X9380380Y-12311540D02*
X9400380Y-12331540D01*
X9400380Y-12311540D02*
X9380380Y-12331540D01*
X9380380Y-12578240D02*
X9400380Y-12598240D01*
X9400380Y-12578240D02*
X9380380Y-12598240D01*
X9393080Y-13426600D02*
X9413080Y-13446600D01*
X9413080Y-13426600D02*
X9393080Y-13446600D01*
X9393080Y-13507880D02*
X9413080Y-13527880D01*
X9413080Y-13507880D02*
X9393080Y-13527880D01*
X9393080Y-13584080D02*
X9413080Y-13604080D01*
X9413080Y-13584080D02*
X9393080Y-13604080D01*
X9393080Y-13667900D02*
X9413080Y-13687900D01*
X9413080Y-13667900D02*
X9393080Y-13687900D01*
X9393080Y-13746640D02*
X9413080Y-13766640D01*
X9413080Y-13746640D02*
X9393080Y-13766640D01*
X9393080Y-13827920D02*
X9413080Y-13847920D01*
X9413080Y-13827920D02*
X9393080Y-13847920D01*
X9393080Y-13909200D02*
X9413080Y-13929200D01*
X9413080Y-13909200D02*
X9393080Y-13929200D01*
X9393080Y-14224160D02*
X9413080Y-14244160D01*
X9413080Y-14224160D02*
X9393080Y-14244160D01*
X9393080Y-14389260D02*
X9413080Y-14409260D01*
X9413080Y-14389260D02*
X9393080Y-14409260D01*
X9393080Y-14468000D02*
X9413080Y-14488000D01*
X9413080Y-14468000D02*
X9393080Y-14488000D01*
X9395620Y-14064140D02*
X9415620Y-14084140D01*
X9415620Y-14064140D02*
X9395620Y-14084140D01*
X9443880Y-12311540D02*
X9463880Y-12331540D01*
X9463880Y-12311540D02*
X9443880Y-12331540D01*
X9469280Y-14307980D02*
X9489280Y-14327980D01*
X9489280Y-14307980D02*
X9469280Y-14327980D01*
X9469280Y-14468000D02*
X9489280Y-14488000D01*
X9489280Y-14468000D02*
X9469280Y-14488000D01*
X9471820Y-13507880D02*
X9491820Y-13527880D01*
X9491820Y-13507880D02*
X9471820Y-13527880D01*
X9471820Y-13584080D02*
X9491820Y-13604080D01*
X9491820Y-13584080D02*
X9471820Y-13604080D01*
X9471820Y-13667900D02*
X9491820Y-13687900D01*
X9491820Y-13667900D02*
X9471820Y-13687900D01*
X9471820Y-13746640D02*
X9491820Y-13766640D01*
X9491820Y-13746640D02*
X9471820Y-13766640D01*
X9471820Y-14147960D02*
X9491820Y-14167960D01*
X9491820Y-14147960D02*
X9471820Y-14167960D01*
X9471820Y-14224160D02*
X9491820Y-14244160D01*
X9491820Y-14224160D02*
X9471820Y-14244160D01*
X9485790Y-14598810D02*
X9505790Y-14618810D01*
X9505790Y-14598810D02*
X9485790Y-14618810D01*
X9502300Y-12311540D02*
X9522300Y-12331540D01*
X9522300Y-12311540D02*
X9502300Y-12331540D01*
X9502300Y-12517280D02*
X9522300Y-12537280D01*
X9522300Y-12517280D02*
X9502300Y-12537280D01*
X9502300Y-12578240D02*
X9522300Y-12598240D01*
X9522300Y-12578240D02*
X9502300Y-12598240D01*
X9521350Y-13060840D02*
X9541350Y-13080840D01*
X9541350Y-13060840D02*
X9521350Y-13080840D01*
X9555640Y-13426600D02*
X9575640Y-13446600D01*
X9575640Y-13426600D02*
X9555640Y-13446600D01*
X9558180Y-14549280D02*
X9578180Y-14569280D01*
X9578180Y-14549280D02*
X9558180Y-14569280D01*
X9563260Y-12311540D02*
X9583260Y-12331540D01*
X9583260Y-12311540D02*
X9563260Y-12331540D01*
X9563260Y-12517280D02*
X9583260Y-12537280D01*
X9583260Y-12517280D02*
X9563260Y-12537280D01*
X9570880Y-13667900D02*
X9590880Y-13687900D01*
X9590880Y-13667900D02*
X9570880Y-13687900D01*
X9593740Y-15179200D02*
X9613740Y-15199200D01*
X9613740Y-15179200D02*
X9593740Y-15199200D01*
X9608980Y-12081670D02*
X9628980Y-12101670D01*
X9628980Y-12081670D02*
X9608980Y-12101670D01*
X9621680Y-12311540D02*
X9641680Y-12331540D01*
X9641680Y-12311540D02*
X9621680Y-12331540D01*
X9621680Y-12517280D02*
X9641680Y-12537280D01*
X9641680Y-12517280D02*
X9621680Y-12537280D01*
X9652160Y-14633100D02*
X9672160Y-14653100D01*
X9672160Y-14633100D02*
X9652160Y-14653100D01*
X9653430Y-14688980D02*
X9673430Y-14708980D01*
X9673430Y-14688980D02*
X9653430Y-14708980D01*
X9677560Y-12311540D02*
X9697560Y-12331540D01*
X9697560Y-12311540D02*
X9677560Y-12331540D01*
X9677560Y-12517280D02*
X9697560Y-12537280D01*
X9697560Y-12517280D02*
X9677560Y-12537280D01*
X9694070Y-11957210D02*
X9714070Y-11977210D01*
X9714070Y-11957210D02*
X9694070Y-11977210D01*
X9744870Y-14112400D02*
X9764870Y-14132400D01*
X9764870Y-14112400D02*
X9744870Y-14132400D01*
X9748680Y-12081670D02*
X9768680Y-12101670D01*
X9768680Y-12081670D02*
X9748680Y-12101670D01*
X9774080Y-12311540D02*
X9794080Y-12331540D01*
X9794080Y-12311540D02*
X9774080Y-12331540D01*
X9776620Y-14468000D02*
X9796620Y-14488000D01*
X9796620Y-14468000D02*
X9776620Y-14488000D01*
X9786780Y-13426600D02*
X9806780Y-13446600D01*
X9806780Y-13426600D02*
X9786780Y-13446600D01*
X9786780Y-13584080D02*
X9806780Y-13604080D01*
X9806780Y-13584080D02*
X9786780Y-13604080D01*
X9796940Y-12679840D02*
X9816940Y-12699840D01*
X9816940Y-12679840D02*
X9796940Y-12699840D01*
X9814720Y-12814460D02*
X9834720Y-12834460D01*
X9834720Y-12814460D02*
X9814720Y-12834460D01*
X9855360Y-15359540D02*
X9875360Y-15379540D01*
X9875360Y-15359540D02*
X9855360Y-15379540D01*
X9857900Y-11957210D02*
X9877900Y-11977210D01*
X9877900Y-11957210D02*
X9857900Y-11977210D01*
X9861710Y-12311540D02*
X9881710Y-12331540D01*
X9881710Y-12311540D02*
X9861710Y-12331540D01*
X9862980Y-12090560D02*
X9882980Y-12110560D01*
X9882980Y-12090560D02*
X9862980Y-12110560D01*
X9862980Y-12527440D02*
X9882980Y-12547440D01*
X9882980Y-12527440D02*
X9862980Y-12547440D01*
X9870600Y-12679840D02*
X9890600Y-12699840D01*
X9890600Y-12679840D02*
X9870600Y-12699840D01*
X9870600Y-13667900D02*
X9890600Y-13687900D01*
X9890600Y-13667900D02*
X9870600Y-13687900D01*
X9873140Y-13426600D02*
X9893140Y-13446600D01*
X9893140Y-13426600D02*
X9873140Y-13446600D01*
X9873140Y-13507880D02*
X9893140Y-13527880D01*
X9893140Y-13507880D02*
X9873140Y-13527880D01*
X9873140Y-13827920D02*
X9893140Y-13847920D01*
X9893140Y-13827920D02*
X9873140Y-13847920D01*
X9873140Y-14064140D02*
X9893140Y-14084140D01*
X9893140Y-14064140D02*
X9873140Y-14084140D01*
X9873140Y-14147960D02*
X9893140Y-14167960D01*
X9893140Y-14147960D02*
X9873140Y-14167960D01*
X9873140Y-14307980D02*
X9893140Y-14327980D01*
X9893140Y-14307980D02*
X9873140Y-14327980D01*
X9873140Y-14549280D02*
X9893140Y-14569280D01*
X9893140Y-14549280D02*
X9873140Y-14569280D01*
X9913780Y-13060840D02*
X9933780Y-13080840D01*
X9933780Y-13060840D02*
X9913780Y-13080840D01*
X9944260Y-12679840D02*
X9964260Y-12699840D01*
X9964260Y-12679840D02*
X9944260Y-12699840D01*
X9949340Y-12311540D02*
X9969340Y-12331540D01*
X9969340Y-12311540D02*
X9949340Y-12331540D01*
X9951880Y-13507880D02*
X9971880Y-13527880D01*
X9971880Y-13507880D02*
X9951880Y-13527880D01*
X9951880Y-13584080D02*
X9971880Y-13604080D01*
X9971880Y-13584080D02*
X9951880Y-13604080D01*
X9951880Y-13667900D02*
X9971880Y-13687900D01*
X9971880Y-13667900D02*
X9951880Y-13687900D01*
X9951880Y-13827920D02*
X9971880Y-13847920D01*
X9971880Y-13827920D02*
X9951880Y-13847920D01*
X9951880Y-13909200D02*
X9971880Y-13929200D01*
X9971880Y-13909200D02*
X9951880Y-13929200D01*
X9951880Y-14064140D02*
X9971880Y-14084140D01*
X9971880Y-14064140D02*
X9951880Y-14084140D01*
X9951880Y-14147960D02*
X9971880Y-14167960D01*
X9971880Y-14147960D02*
X9951880Y-14167960D01*
X9951880Y-14307980D02*
X9971880Y-14327980D01*
X9971880Y-14307980D02*
X9951880Y-14327980D01*
X9951880Y-14389260D02*
X9971880Y-14409260D01*
X9971880Y-14389260D02*
X9951880Y-14409260D01*
X9951880Y-14468000D02*
X9971880Y-14488000D01*
X9971880Y-14468000D02*
X9951880Y-14488000D01*
X9951880Y-14549280D02*
X9971880Y-14569280D01*
X9971880Y-14549280D02*
X9951880Y-14569280D01*
X9981090Y-12090560D02*
X10001090Y-12110560D01*
X10001090Y-12090560D02*
X9981090Y-12110560D01*
X10005220Y-12311540D02*
X10025220Y-12331540D01*
X10025220Y-12311540D02*
X10005220Y-12331540D01*
X10007760Y-12763660D02*
X10027760Y-12783660D01*
X10027760Y-12763660D02*
X10007760Y-12783660D01*
X10020460Y-11957210D02*
X10040460Y-11977210D01*
X10040460Y-11957210D02*
X10020460Y-11977210D01*
X10040780Y-13342780D02*
X10060780Y-13362780D01*
X10060780Y-13342780D02*
X10040780Y-13362780D01*
X10043320Y-13426600D02*
X10063320Y-13446600D01*
X10063320Y-13426600D02*
X10043320Y-13446600D01*
X10043320Y-13584080D02*
X10063320Y-13604080D01*
X10063320Y-13584080D02*
X10043320Y-13604080D01*
X10043320Y-13909200D02*
X10063320Y-13929200D01*
X10063320Y-13909200D02*
X10043320Y-13929200D01*
X10043320Y-14064140D02*
X10063320Y-14084140D01*
X10063320Y-14064140D02*
X10043320Y-14084140D01*
X10043320Y-14147960D02*
X10063320Y-14167960D01*
X10063320Y-14147960D02*
X10043320Y-14167960D01*
X10043320Y-14307980D02*
X10063320Y-14327980D01*
X10063320Y-14307980D02*
X10043320Y-14327980D01*
X10043320Y-14549280D02*
X10063320Y-14569280D01*
X10063320Y-14549280D02*
X10043320Y-14569280D01*
X10045860Y-14468000D02*
X10065860Y-14488000D01*
X10065860Y-14468000D02*
X10045860Y-14488000D01*
X10061100Y-12311540D02*
X10081100Y-12331540D01*
X10081100Y-12311540D02*
X10061100Y-12331540D01*
X10061100Y-14229240D02*
X10081100Y-14249240D01*
X10081100Y-14229240D02*
X10061100Y-14249240D01*
X10099200Y-12090560D02*
X10119200Y-12110560D01*
X10119200Y-12090560D02*
X10099200Y-12110560D01*
X10099200Y-12565540D02*
X10119200Y-12585540D01*
X10119200Y-12565540D02*
X10099200Y-12585540D01*
X10119520Y-13749180D02*
X10139520Y-13769180D01*
X10139520Y-13749180D02*
X10119520Y-13769180D01*
X10129680Y-11950860D02*
X10149680Y-11970860D01*
X10149680Y-11950860D02*
X10129680Y-11970860D01*
X10185560Y-12565540D02*
X10205560Y-12585540D01*
X10205560Y-12565540D02*
X10185560Y-12585540D01*
X10193180Y-11948320D02*
X10213180Y-11968320D01*
X10213180Y-11948320D02*
X10193180Y-11968320D01*
X10251600Y-12565540D02*
X10271600Y-12585540D01*
X10271600Y-12565540D02*
X10251600Y-12585540D01*
X10254140Y-11948320D02*
X10274140Y-11968320D01*
X10274140Y-11948320D02*
X10254140Y-11968320D01*
X10287160Y-12677300D02*
X10307160Y-12697300D01*
X10307160Y-12677300D02*
X10287160Y-12697300D01*
X10299860Y-14447680D02*
X10319860Y-14467680D01*
X10319860Y-14447680D02*
X10299860Y-14467680D01*
X10334150Y-10570370D02*
X10354150Y-10590370D01*
X10354150Y-10570370D02*
X10334150Y-10590370D01*
X10376060Y-13356750D02*
X10396060Y-13376750D01*
X10396060Y-13356750D02*
X10376060Y-13376750D01*
X10421780Y-12484260D02*
X10441780Y-12504260D01*
X10441780Y-12484260D02*
X10421780Y-12504260D01*
X10442100Y-14447680D02*
X10462100Y-14467680D01*
X10462100Y-14447680D02*
X10442100Y-14467680D01*
X10482740Y-12484260D02*
X10502740Y-12504260D01*
X10502740Y-12484260D02*
X10482740Y-12504260D01*
X10501790Y-12316620D02*
X10521790Y-12336620D01*
X10521790Y-12316620D02*
X10501790Y-12336620D01*
X10586880Y-14236860D02*
X10606880Y-14256860D01*
X10606880Y-14236860D02*
X10586880Y-14256860D01*
X10586880Y-14307980D02*
X10606880Y-14327980D01*
X10606880Y-14307980D02*
X10586880Y-14327980D01*
X10589420Y-14381640D02*
X10609420Y-14401640D01*
X10609420Y-14381640D02*
X10589420Y-14401640D01*
X10589420Y-14445140D02*
X10609420Y-14465140D01*
X10609420Y-14445140D02*
X10589420Y-14465140D01*
X10591960Y-12519820D02*
X10611960Y-12539820D01*
X10611960Y-12519820D02*
X10591960Y-12539820D01*
X10650380Y-15359540D02*
X10670380Y-15379540D01*
X10670380Y-15359540D02*
X10650380Y-15379540D01*
X10762140Y-12316620D02*
X10782140Y-12336620D01*
X10782140Y-12316620D02*
X10762140Y-12336620D01*
X10792620Y-11660030D02*
X10812620Y-11680030D01*
X10812620Y-11660030D02*
X10792620Y-11680030D01*
X10802780Y-14013340D02*
X10822780Y-14033340D01*
X10822780Y-14013340D02*
X10802780Y-14033340D01*
X10805320Y-13934600D02*
X10825320Y-13954600D01*
X10825320Y-13934600D02*
X10805320Y-13954600D01*
X10845960Y-14132720D02*
X10865960Y-14152720D01*
X10865960Y-14132720D02*
X10845960Y-14152720D01*
X10852310Y-11660030D02*
X10872310Y-11680030D01*
X10872310Y-11660030D02*
X10852310Y-11680030D01*
X10868820Y-14066680D02*
X10888820Y-14086680D01*
X10888820Y-14066680D02*
X10868820Y-14086680D01*
X10924700Y-13840620D02*
X10944700Y-13860620D01*
X10944700Y-13840620D02*
X10924700Y-13860620D01*
X10983120Y-14307980D02*
X11003120Y-14327980D01*
X11003120Y-14307980D02*
X10983120Y-14327980D01*
X11056780Y-14320680D02*
X11076780Y-14340680D01*
X11076780Y-14320680D02*
X11056780Y-14340680D01*
X11107580Y-12623960D02*
X11127580Y-12643960D01*
X11127580Y-12623960D02*
X11107580Y-12643960D01*
X11110120Y-13015120D02*
X11130120Y-13035120D01*
X11130120Y-13015120D02*
X11110120Y-13035120D01*
X11112660Y-13858400D02*
X11132660Y-13878400D01*
X11132660Y-13858400D02*
X11112660Y-13878400D01*
X11112660Y-13954920D02*
X11132660Y-13974920D01*
X11132660Y-13954920D02*
X11112660Y-13974920D01*
X11112660Y-14051440D02*
X11132660Y-14071440D01*
X11132660Y-14051440D02*
X11112660Y-14071440D01*
X11112660Y-14150500D02*
X11132660Y-14170500D01*
X11132660Y-14150500D02*
X11112660Y-14170500D01*
X11125360Y-12547760D02*
X11145360Y-12567760D01*
X11145360Y-12547760D02*
X11125360Y-12567760D01*
X11214260Y-14803280D02*
X11234260Y-14823280D01*
X11234260Y-14803280D02*
X11214260Y-14823280D01*
X11214260Y-14859160D02*
X11234260Y-14879160D01*
X11234260Y-14859160D02*
X11214260Y-14879160D01*
X11257440Y-13487560D02*
X11277440Y-13507560D01*
X11277440Y-13487560D02*
X11257440Y-13507560D01*
X11319670Y-11323480D02*
X11339670Y-11343480D01*
X11339670Y-11323480D02*
X11319670Y-11343480D01*
X11323480Y-13294520D02*
X11343480Y-13314520D01*
X11343480Y-13294520D02*
X11323480Y-13314520D01*
X11379360Y-13855860D02*
X11399360Y-13875860D01*
X11399360Y-13855860D02*
X11379360Y-13875860D01*
X11399680Y-12038490D02*
X11419680Y-12058490D01*
X11419680Y-12038490D02*
X11399680Y-12058490D01*
X11404760Y-12766200D02*
X11424760Y-12786200D01*
X11424760Y-12766200D02*
X11404760Y-12786200D01*
X11478420Y-13401200D02*
X11498420Y-13421200D01*
X11498420Y-13401200D02*
X11478420Y-13421200D01*
X11501280Y-12135010D02*
X11521280Y-12155010D01*
X11521280Y-12135010D02*
X11501280Y-12155010D01*
X11534300Y-14412120D02*
X11554300Y-14432120D01*
X11554300Y-14412120D02*
X11534300Y-14432120D01*
X11559700Y-12570620D02*
X11579700Y-12590620D01*
X11579700Y-12570620D02*
X11559700Y-12590620D01*
X11623200Y-11651140D02*
X11643200Y-11671140D01*
X11643200Y-11651140D02*
X11623200Y-11671140D01*
X11689240Y-11648600D02*
X11709240Y-11668600D01*
X11709240Y-11648600D02*
X11689240Y-11668600D01*
X11691780Y-13159900D02*
X11711780Y-13179900D01*
X11711780Y-13159900D02*
X11691780Y-13179900D01*
X11732420Y-14410850D02*
X11752420Y-14430850D01*
X11752420Y-14410850D02*
X11732420Y-14430850D01*
X11765440Y-12377580D02*
X11785440Y-12397580D01*
X11785440Y-12377580D02*
X11765440Y-12397580D01*
X11770520Y-12623960D02*
X11790520Y-12643960D01*
X11790520Y-12623960D02*
X11770520Y-12643960D01*
X11770520Y-13264040D02*
X11790520Y-13284040D01*
X11790520Y-13264040D02*
X11770520Y-13284040D01*
X11770520Y-13502800D02*
X11790520Y-13522800D01*
X11790520Y-13502800D02*
X11770520Y-13522800D01*
X11770520Y-13746640D02*
X11790520Y-13766640D01*
X11790520Y-13746640D02*
X11770520Y-13766640D01*
X11773060Y-11668920D02*
X11793060Y-11688920D01*
X11793060Y-11668920D02*
X11773060Y-11688920D01*
X11788300Y-14109860D02*
X11808300Y-14129860D01*
X11808300Y-14109860D02*
X11788300Y-14129860D01*
X11788300Y-14165740D02*
X11808300Y-14185740D01*
X11808300Y-14165740D02*
X11788300Y-14185740D01*
X11831480Y-14410850D02*
X11851480Y-14430850D01*
X11851480Y-14410850D02*
X11831480Y-14430850D01*
X11849260Y-13746640D02*
X11869260Y-13766640D01*
X11869260Y-13746640D02*
X11849260Y-13766640D01*
X11851800Y-13025280D02*
X11871800Y-13045280D01*
X11871800Y-13025280D02*
X11851800Y-13045280D01*
X11851800Y-13185300D02*
X11871800Y-13205300D01*
X11871800Y-13185300D02*
X11851800Y-13205300D01*
X11851800Y-13584080D02*
X11871800Y-13604080D01*
X11871800Y-13584080D02*
X11851800Y-13604080D01*
X11912760Y-14727080D02*
X11932760Y-14747080D01*
X11932760Y-14727080D02*
X11912760Y-14747080D01*
X11930540Y-12542680D02*
X11950540Y-12562680D01*
X11950540Y-12542680D02*
X11930540Y-12562680D01*
X11930540Y-12623960D02*
X11950540Y-12643960D01*
X11950540Y-12623960D02*
X11930540Y-12643960D01*
X11930540Y-12783980D02*
X11950540Y-12803980D01*
X11950540Y-12783980D02*
X11930540Y-12803980D01*
X11930540Y-12862720D02*
X11950540Y-12882720D01*
X11950540Y-12862720D02*
X11930540Y-12882720D01*
X11930540Y-12944000D02*
X11950540Y-12964000D01*
X11950540Y-12944000D02*
X11930540Y-12964000D01*
X11930540Y-13264040D02*
X11950540Y-13284040D01*
X11950540Y-13264040D02*
X11930540Y-13284040D01*
X11930540Y-13342780D02*
X11950540Y-13362780D01*
X11950540Y-13342780D02*
X11930540Y-13362780D01*
X11930540Y-13501530D02*
X11950540Y-13521530D01*
X11950540Y-13501530D02*
X11930540Y-13521530D01*
X11930540Y-14410850D02*
X11950540Y-14430850D01*
X11950540Y-14410850D02*
X11930540Y-14430850D01*
X11931810Y-13585350D02*
X11951810Y-13605350D01*
X11951810Y-13585350D02*
X11931810Y-13605350D01*
X11958480Y-14836300D02*
X11978480Y-14856300D01*
X11978480Y-14836300D02*
X11958480Y-14856300D01*
X11977530Y-10873900D02*
X11997530Y-10893900D01*
X11997530Y-10873900D02*
X11977530Y-10893900D01*
X12011820Y-12542680D02*
X12031820Y-12562680D01*
X12031820Y-12542680D02*
X12011820Y-12562680D01*
X12011820Y-12623960D02*
X12031820Y-12643960D01*
X12031820Y-12623960D02*
X12011820Y-12643960D01*
X12011820Y-13182760D02*
X12031820Y-13202760D01*
X12031820Y-13182760D02*
X12011820Y-13202760D01*
X12011820Y-13264040D02*
X12031820Y-13284040D01*
X12031820Y-13264040D02*
X12011820Y-13284040D01*
X12011820Y-13502800D02*
X12031820Y-13522800D01*
X12031820Y-13502800D02*
X12011820Y-13522800D01*
X12011820Y-13584080D02*
X12031820Y-13604080D01*
X12031820Y-13584080D02*
X12011820Y-13604080D01*
X12011820Y-13662820D02*
X12031820Y-13682820D01*
X12031820Y-13662820D02*
X12011820Y-13682820D01*
X12011820Y-13746640D02*
X12031820Y-13766640D01*
X12031820Y-13746640D02*
X12011820Y-13766640D01*
X12019440Y-11699400D02*
X12039440Y-11719400D01*
X12039440Y-11699400D02*
X12019440Y-11719400D01*
X12085480Y-14727080D02*
X12105480Y-14747080D01*
X12105480Y-14727080D02*
X12085480Y-14747080D01*
X12090560Y-12542680D02*
X12110560Y-12562680D01*
X12110560Y-12542680D02*
X12090560Y-12562680D01*
X12090560Y-12623960D02*
X12110560Y-12643960D01*
X12110560Y-12623960D02*
X12090560Y-12643960D01*
X12090560Y-12703970D02*
X12110560Y-12723970D01*
X12110560Y-12703970D02*
X12090560Y-12723970D01*
X12090560Y-12783980D02*
X12110560Y-12803980D01*
X12110560Y-12783980D02*
X12090560Y-12803980D01*
X12090560Y-12862720D02*
X12110560Y-12882720D01*
X12110560Y-12862720D02*
X12090560Y-12882720D01*
X12090560Y-12944000D02*
X12110560Y-12964000D01*
X12110560Y-12944000D02*
X12090560Y-12964000D01*
X12090560Y-13104020D02*
X12110560Y-13124020D01*
X12110560Y-13104020D02*
X12090560Y-13124020D01*
X12090560Y-13182760D02*
X12110560Y-13202760D01*
X12110560Y-13182760D02*
X12090560Y-13202760D01*
X12090560Y-13264040D02*
X12110560Y-13284040D01*
X12110560Y-13264040D02*
X12090560Y-13284040D01*
X12090560Y-13500260D02*
X12110560Y-13520260D01*
X12110560Y-13500260D02*
X12090560Y-13520260D01*
X12091830Y-13421520D02*
X12111830Y-13441520D01*
X12111830Y-13421520D02*
X12091830Y-13441520D01*
X12091830Y-13664090D02*
X12111830Y-13684090D01*
X12111830Y-13664090D02*
X12091830Y-13684090D01*
X12093100Y-13586620D02*
X12113100Y-13606620D01*
X12113100Y-13586620D02*
X12093100Y-13606620D01*
X12105800Y-11287920D02*
X12125800Y-11307920D01*
X12125800Y-11287920D02*
X12105800Y-11307920D01*
X12136280Y-10988200D02*
X12156280Y-11008200D01*
X12156280Y-10988200D02*
X12136280Y-11008200D01*
X12171840Y-12542680D02*
X12191840Y-12562680D01*
X12191840Y-12542680D02*
X12171840Y-12562680D01*
X12171840Y-12705240D02*
X12191840Y-12725240D01*
X12191840Y-12705240D02*
X12171840Y-12725240D01*
X12171840Y-13421520D02*
X12191840Y-13441520D01*
X12191840Y-13421520D02*
X12171840Y-13441520D01*
X12171840Y-13500260D02*
X12191840Y-13520260D01*
X12191840Y-13500260D02*
X12171840Y-13520260D01*
X12212480Y-14831220D02*
X12232480Y-14851220D01*
X12232480Y-14831220D02*
X12212480Y-14851220D01*
X12250580Y-12364880D02*
X12270580Y-12384880D01*
X12270580Y-12364880D02*
X12250580Y-12384880D01*
X12250580Y-12542680D02*
X12270580Y-12562680D01*
X12270580Y-12542680D02*
X12250580Y-12562680D01*
X12250580Y-12702700D02*
X12270580Y-12722700D01*
X12270580Y-12702700D02*
X12250580Y-12722700D01*
X12250580Y-13421520D02*
X12270580Y-13441520D01*
X12270580Y-13421520D02*
X12250580Y-13441520D01*
X12250580Y-13584080D02*
X12270580Y-13604080D01*
X12270580Y-13584080D02*
X12250580Y-13604080D01*
X12331860Y-12542680D02*
X12351860Y-12562680D01*
X12351860Y-12542680D02*
X12331860Y-12562680D01*
X12331860Y-12623960D02*
X12351860Y-12643960D01*
X12351860Y-12623960D02*
X12331860Y-12643960D01*
X12331860Y-12702700D02*
X12351860Y-12722700D01*
X12351860Y-12702700D02*
X12331860Y-12722700D01*
X12331860Y-12944000D02*
X12351860Y-12964000D01*
X12351860Y-12944000D02*
X12331860Y-12964000D01*
X12331860Y-13025280D02*
X12351860Y-13045280D01*
X12351860Y-13025280D02*
X12331860Y-13045280D01*
X12331860Y-13104020D02*
X12351860Y-13124020D01*
X12351860Y-13104020D02*
X12331860Y-13124020D01*
X12331860Y-13180220D02*
X12351860Y-13200220D01*
X12351860Y-13180220D02*
X12331860Y-13200220D01*
X12331860Y-13269120D02*
X12351860Y-13289120D01*
X12351860Y-13269120D02*
X12331860Y-13289120D01*
X12331860Y-13584080D02*
X12351860Y-13604080D01*
X12351860Y-13584080D02*
X12331860Y-13604080D01*
X12342020Y-14727080D02*
X12362020Y-14747080D01*
X12362020Y-14727080D02*
X12342020Y-14747080D01*
X12400440Y-12824620D02*
X12420440Y-12844620D01*
X12420440Y-12824620D02*
X12400440Y-12844620D01*
X12410600Y-10881520D02*
X12430600Y-10901520D01*
X12430600Y-10881520D02*
X12410600Y-10901520D01*
X12410600Y-13104020D02*
X12430600Y-13124020D01*
X12430600Y-13104020D02*
X12410600Y-13124020D01*
X12410600Y-13180220D02*
X12430600Y-13200220D01*
X12430600Y-13180220D02*
X12410600Y-13200220D01*
X12413140Y-12542680D02*
X12433140Y-12562680D01*
X12433140Y-12542680D02*
X12413140Y-12562680D01*
X12413140Y-12623960D02*
X12433140Y-12643960D01*
X12433140Y-12623960D02*
X12413140Y-12643960D01*
X12413140Y-12702700D02*
X12433140Y-12722700D01*
X12433140Y-12702700D02*
X12413140Y-12722700D01*
X12413140Y-12944000D02*
X12433140Y-12964000D01*
X12433140Y-12944000D02*
X12413140Y-12964000D01*
X12413140Y-13421520D02*
X12433140Y-13441520D01*
X12433140Y-13421520D02*
X12413140Y-13441520D01*
X12469020Y-14831220D02*
X12489020Y-14851220D01*
X12489020Y-14831220D02*
X12469020Y-14851220D01*
X12474100Y-11740040D02*
X12494100Y-11760040D01*
X12494100Y-11740040D02*
X12474100Y-11760040D01*
X12474100Y-11841640D02*
X12494100Y-11861640D01*
X12494100Y-11841640D02*
X12474100Y-11861640D01*
X12489340Y-12941460D02*
X12509340Y-12961460D01*
X12509340Y-12941460D02*
X12489340Y-12961460D01*
X12489340Y-13180220D02*
X12509340Y-13200220D01*
X12509340Y-13180220D02*
X12489340Y-13200220D01*
X12491880Y-11600340D02*
X12511880Y-11620340D01*
X12511880Y-11600340D02*
X12491880Y-11620340D01*
X12568080Y-13104020D02*
X12588080Y-13124020D01*
X12588080Y-13104020D02*
X12568080Y-13124020D01*
X12568080Y-13180220D02*
X12588080Y-13200220D01*
X12588080Y-13180220D02*
X12568080Y-13200220D01*
X12568080Y-13264040D02*
X12588080Y-13284040D01*
X12588080Y-13264040D02*
X12568080Y-13284040D01*
X12570620Y-12542680D02*
X12590620Y-12562680D01*
X12590620Y-12542680D02*
X12570620Y-12562680D01*
X12570620Y-12623960D02*
X12590620Y-12643960D01*
X12590620Y-12623960D02*
X12570620Y-12643960D01*
X12570620Y-12702700D02*
X12590620Y-12722700D01*
X12590620Y-12702700D02*
X12570620Y-12722700D01*
X12570620Y-12944000D02*
X12590620Y-12964000D01*
X12590620Y-12944000D02*
X12570620Y-12964000D01*
X12570620Y-13025280D02*
X12590620Y-13045280D01*
X12590620Y-13025280D02*
X12570620Y-13045280D01*
X12570620Y-13421520D02*
X12590620Y-13441520D01*
X12590620Y-13421520D02*
X12570620Y-13441520D01*
X12570620Y-13662820D02*
X12590620Y-13682820D01*
X12590620Y-13662820D02*
X12570620Y-13682820D01*
X12580780Y-11939430D02*
X12600780Y-11959430D01*
X12600780Y-11939430D02*
X12580780Y-11959430D01*
X12601100Y-14061600D02*
X12621100Y-14081600D01*
X12621100Y-14061600D02*
X12601100Y-14081600D01*
X12601100Y-14409580D02*
X12621100Y-14429580D01*
X12621100Y-14409580D02*
X12601100Y-14429580D01*
X12611260Y-13749180D02*
X12631260Y-13769180D01*
X12631260Y-13749180D02*
X12611260Y-13769180D01*
X12650630Y-13585350D02*
X12670630Y-13605350D01*
X12670630Y-13585350D02*
X12650630Y-13605350D01*
X12651900Y-12542680D02*
X12671900Y-12562680D01*
X12671900Y-12542680D02*
X12651900Y-12562680D01*
X12651900Y-12623960D02*
X12671900Y-12643960D01*
X12671900Y-12623960D02*
X12651900Y-12643960D01*
X12651900Y-12702700D02*
X12671900Y-12722700D01*
X12671900Y-12702700D02*
X12651900Y-12722700D01*
X12651900Y-13421520D02*
X12671900Y-13441520D01*
X12671900Y-13421520D02*
X12651900Y-13441520D01*
X12687460Y-12055000D02*
X12707460Y-12075000D01*
X12707460Y-12055000D02*
X12687460Y-12075000D01*
X12730640Y-12542680D02*
X12750640Y-12562680D01*
X12750640Y-12542680D02*
X12730640Y-12562680D01*
X12730640Y-12702700D02*
X12750640Y-12722700D01*
X12750640Y-12702700D02*
X12730640Y-12722700D01*
X12730640Y-13421520D02*
X12750640Y-13441520D01*
X12750640Y-13421520D02*
X12730640Y-13441520D01*
X12730640Y-13505340D02*
X12750640Y-13525340D01*
X12750640Y-13505340D02*
X12730640Y-13525340D01*
X12730640Y-13584080D02*
X12750640Y-13604080D01*
X12750640Y-13584080D02*
X12730640Y-13604080D01*
X12730640Y-13662820D02*
X12750640Y-13682820D01*
X12750640Y-13662820D02*
X12730640Y-13682820D01*
X12733180Y-11971180D02*
X12753180Y-11991180D01*
X12753180Y-11971180D02*
X12733180Y-11991180D01*
X12773820Y-14060330D02*
X12793820Y-14080330D01*
X12793820Y-14060330D02*
X12773820Y-14080330D01*
X12809380Y-12463940D02*
X12829380Y-12483940D01*
X12829380Y-12463940D02*
X12809380Y-12483940D01*
X12811920Y-12542680D02*
X12831920Y-12562680D01*
X12831920Y-12542680D02*
X12811920Y-12562680D01*
X12811920Y-12702700D02*
X12831920Y-12722700D01*
X12831920Y-12702700D02*
X12811920Y-12722700D01*
X12811920Y-12781440D02*
X12831920Y-12801440D01*
X12831920Y-12781440D02*
X12811920Y-12801440D01*
X12811920Y-12862720D02*
X12831920Y-12882720D01*
X12831920Y-12862720D02*
X12811920Y-12882720D01*
X12811920Y-12941460D02*
X12831920Y-12961460D01*
X12831920Y-12941460D02*
X12811920Y-12961460D01*
X12811920Y-13025280D02*
X12831920Y-13045280D01*
X12831920Y-13025280D02*
X12811920Y-13045280D01*
X12811920Y-13185300D02*
X12831920Y-13205300D01*
X12831920Y-13185300D02*
X12811920Y-13205300D01*
X12811920Y-13264040D02*
X12831920Y-13284040D01*
X12831920Y-13264040D02*
X12811920Y-13284040D01*
X12811920Y-13342780D02*
X12831920Y-13362780D01*
X12831920Y-13342780D02*
X12811920Y-13362780D01*
X12811920Y-13505340D02*
X12831920Y-13525340D01*
X12831920Y-13505340D02*
X12811920Y-13525340D01*
X12811920Y-13584080D02*
X12831920Y-13604080D01*
X12831920Y-13584080D02*
X12811920Y-13604080D01*
X12838590Y-14060330D02*
X12858590Y-14080330D01*
X12858590Y-14060330D02*
X12838590Y-14080330D01*
X12849512Y-14729112D02*
X12869512Y-14749112D01*
X12869512Y-14729112D02*
X12849512Y-14749112D01*
X12872880Y-11409840D02*
X12892880Y-11429840D01*
X12892880Y-11409840D02*
X12872880Y-11429840D01*
X12883040Y-11971180D02*
X12903040Y-11991180D01*
X12903040Y-11971180D02*
X12883040Y-11991180D01*
X12883040Y-12105800D02*
X12903040Y-12125800D01*
X12903040Y-12105800D02*
X12883040Y-12125800D01*
X12890660Y-12542680D02*
X12910660Y-12562680D01*
X12910660Y-12542680D02*
X12890660Y-12562680D01*
X12890660Y-12623960D02*
X12910660Y-12643960D01*
X12910660Y-12623960D02*
X12890660Y-12643960D01*
X12890660Y-12702700D02*
X12910660Y-12722700D01*
X12910660Y-12702700D02*
X12890660Y-12722700D01*
X12890660Y-12862720D02*
X12910660Y-12882720D01*
X12910660Y-12862720D02*
X12890660Y-12882720D01*
X12890660Y-13025280D02*
X12910660Y-13045280D01*
X12910660Y-13025280D02*
X12890660Y-13045280D01*
X12890660Y-13185300D02*
X12910660Y-13205300D01*
X12910660Y-13185300D02*
X12890660Y-13205300D01*
X12890660Y-13264040D02*
X12910660Y-13284040D01*
X12910660Y-13264040D02*
X12890660Y-13284040D01*
X12905900Y-14061600D02*
X12925900Y-14081600D01*
X12925900Y-14061600D02*
X12905900Y-14081600D01*
X12933840Y-12166760D02*
X12953840Y-12186760D01*
X12953840Y-12166760D02*
X12933840Y-12186760D01*
X12971940Y-12862720D02*
X12991940Y-12882720D01*
X12991940Y-12862720D02*
X12971940Y-12882720D01*
X12971940Y-12941460D02*
X12991940Y-12961460D01*
X12991940Y-12941460D02*
X12971940Y-12961460D01*
X12971940Y-13025280D02*
X12991940Y-13045280D01*
X12991940Y-13025280D02*
X12971940Y-13045280D01*
X12971940Y-13104020D02*
X12991940Y-13124020D01*
X12991940Y-13104020D02*
X12971940Y-13124020D01*
X12971940Y-13264040D02*
X12991940Y-13284040D01*
X12991940Y-13264040D02*
X12971940Y-13284040D01*
X12971940Y-13342780D02*
X12991940Y-13362780D01*
X12991940Y-13342780D02*
X12971940Y-13362780D01*
X12971940Y-13505340D02*
X12991940Y-13525340D01*
X12991940Y-13505340D02*
X12971940Y-13525340D01*
X12971940Y-13584080D02*
X12991940Y-13604080D01*
X12991940Y-13584080D02*
X12971940Y-13604080D01*
X12974480Y-14831220D02*
X12994480Y-14851220D01*
X12994480Y-14831220D02*
X12974480Y-14851220D01*
X13002420Y-12166760D02*
X13022420Y-12186760D01*
X13022420Y-12166760D02*
X13002420Y-12186760D01*
X13012580Y-12334400D02*
X13032580Y-12354400D01*
X13032580Y-12334400D02*
X13012580Y-12354400D01*
X13037980Y-11971180D02*
X13057980Y-11991180D01*
X13057980Y-11971180D02*
X13037980Y-11991180D01*
X13051950Y-13342780D02*
X13071950Y-13362780D01*
X13071950Y-13342780D02*
X13051950Y-13362780D01*
X13053220Y-12781440D02*
X13073220Y-12801440D01*
X13073220Y-12781440D02*
X13053220Y-12801440D01*
X13053220Y-12862720D02*
X13073220Y-12882720D01*
X13073220Y-12862720D02*
X13053220Y-12882720D01*
X13053220Y-13185300D02*
X13073220Y-13205300D01*
X13073220Y-13185300D02*
X13053220Y-13205300D01*
X13053220Y-13264040D02*
X13073220Y-13284040D01*
X13073220Y-13264040D02*
X13053220Y-13284040D01*
X13053220Y-13421520D02*
X13073220Y-13441520D01*
X13073220Y-13421520D02*
X13053220Y-13441520D01*
X13053220Y-13853320D02*
X13073220Y-13873320D01*
X13073220Y-13853320D02*
X13053220Y-13873320D01*
X13071000Y-12166760D02*
X13091000Y-12186760D01*
X13091000Y-12166760D02*
X13071000Y-12186760D01*
X13111640Y-13853320D02*
X13131640Y-13873320D01*
X13131640Y-13853320D02*
X13111640Y-13873320D01*
X13129420Y-12385200D02*
X13149420Y-12405200D01*
X13149420Y-12385200D02*
X13129420Y-12405200D01*
X13129420Y-13662820D02*
X13149420Y-13682820D01*
X13149420Y-13662820D02*
X13129420Y-13682820D01*
X13129420Y-13741560D02*
X13149420Y-13761560D01*
X13149420Y-13741560D02*
X13129420Y-13761560D01*
X13131960Y-12781440D02*
X13151960Y-12801440D01*
X13151960Y-12781440D02*
X13131960Y-12801440D01*
X13131960Y-12862720D02*
X13151960Y-12882720D01*
X13151960Y-12862720D02*
X13131960Y-12882720D01*
X13144660Y-13497720D02*
X13164660Y-13517720D01*
X13164660Y-13497720D02*
X13144660Y-13517720D01*
X13147200Y-13406280D02*
X13167200Y-13426280D01*
X13167200Y-13406280D02*
X13147200Y-13426280D01*
X13149740Y-12510930D02*
X13169740Y-12530930D01*
X13169740Y-12510930D02*
X13149740Y-12530930D01*
X13149740Y-12663330D02*
X13169740Y-12683330D01*
X13169740Y-12663330D02*
X13149740Y-12683330D01*
X13149740Y-13594240D02*
X13169740Y-13614240D01*
X13169740Y-13594240D02*
X13149740Y-13614240D01*
X13164980Y-13223400D02*
X13184980Y-13243400D01*
X13184980Y-13223400D02*
X13164980Y-13243400D01*
X13165748Y-12983380D02*
X13185748Y-13003380D01*
X13185748Y-12983380D02*
X13165748Y-13003380D01*
X13170060Y-13853320D02*
X13190060Y-13873320D01*
X13190060Y-13853320D02*
X13170060Y-13873320D01*
X13228480Y-13853320D02*
X13248480Y-13873320D01*
X13248480Y-13853320D02*
X13228480Y-13873320D01*
X13243720Y-12222640D02*
X13263720Y-12242640D01*
X13263720Y-12222640D02*
X13243720Y-12242640D01*
X13257690Y-13302140D02*
X13277690Y-13322140D01*
X13277690Y-13302140D02*
X13257690Y-13322140D01*
X13258960Y-12659520D02*
X13278960Y-12679520D01*
X13278960Y-12659520D02*
X13258960Y-12679520D01*
X13261500Y-13073540D02*
X13281500Y-13093540D01*
X13281500Y-13073540D02*
X13261500Y-13093540D01*
X13266580Y-13463430D02*
X13286580Y-13483430D01*
X13286580Y-13463430D02*
X13266580Y-13483430D01*
X13298330Y-13205620D02*
X13318330Y-13225620D01*
X13318330Y-13205620D02*
X13298330Y-13225620D01*
X13322460Y-13304680D02*
X13342460Y-13324680D01*
X13342460Y-13304680D02*
X13322460Y-13324680D01*
X13360560Y-14729620D02*
X13380560Y-14749620D01*
X13380560Y-14729620D02*
X13360560Y-14749620D01*
X13416440Y-12402980D02*
X13436440Y-12422980D01*
X13436440Y-12402980D02*
X13416440Y-12422980D01*
X13458350Y-13486290D02*
X13478350Y-13506290D01*
X13478350Y-13486290D02*
X13458350Y-13506290D01*
X13482480Y-14831220D02*
X13502480Y-14851220D01*
X13502480Y-14831220D02*
X13482480Y-14851220D01*
X13523120Y-12402980D02*
X13543120Y-12422980D01*
X13543120Y-12402980D02*
X13523120Y-12422980D01*
X13533280Y-13675520D02*
X13553280Y-13695520D01*
X13553280Y-13675520D02*
X13533280Y-13695520D01*
X13609480Y-13848240D02*
X13629480Y-13868240D01*
X13629480Y-13848240D02*
X13609480Y-13868240D01*
X13629800Y-14020960D02*
X13649800Y-14040960D01*
X13649800Y-14020960D02*
X13629800Y-14040960D01*
X13645040Y-12113420D02*
X13665040Y-12133420D01*
X13665040Y-12113420D02*
X13645040Y-12133420D01*
X13684410Y-13524390D02*
X13704410Y-13544390D01*
X13704410Y-13524390D02*
X13684410Y-13544390D01*
X13684410Y-13608210D02*
X13704410Y-13628210D01*
X13704410Y-13608210D02*
X13684410Y-13628210D01*
X13725050Y-13570110D02*
X13745050Y-13590110D01*
X13745050Y-13570110D02*
X13725050Y-13590110D01*
X13726320Y-13476130D02*
X13746320Y-13496130D01*
X13746320Y-13476130D02*
X13726320Y-13496130D01*
X13733940Y-13255150D02*
X13753940Y-13275150D01*
X13753940Y-13255150D02*
X13733940Y-13275150D01*
X13769500Y-14098430D02*
X13789500Y-14118430D01*
X13789500Y-14098430D02*
X13769500Y-14118430D01*
X13774580Y-11978800D02*
X13794580Y-11998800D01*
X13794580Y-11978800D02*
X13774580Y-11998800D01*
X13886340Y-12560460D02*
X13906340Y-12580460D01*
X13906340Y-12560460D02*
X13886340Y-12580460D01*
X13891420Y-13050680D02*
X13911420Y-13070680D01*
X13911420Y-13050680D02*
X13891420Y-13070680D01*
X13921900Y-12926220D02*
X13941900Y-12946220D01*
X13941900Y-12926220D02*
X13921900Y-12946220D01*
X14033660Y-12930030D02*
X14053660Y-12950030D01*
X14053660Y-12930030D02*
X14033660Y-12950030D01*
X14038740Y-12872880D02*
X14058740Y-12892880D01*
X14058740Y-12872880D02*
X14038740Y-12892880D01*
X14211460Y-12762390D02*
X14231460Y-12782390D01*
X14231460Y-12762390D02*
X14211460Y-12782390D01*
X14271150Y-12795410D02*
X14291150Y-12815410D01*
X14291150Y-12795410D02*
X14271150Y-12815410D01*
X14460380Y-12874150D02*
X14480380Y-12894150D01*
X14480380Y-12874150D02*
X14460380Y-12894150D01*
X14461650Y-12801760D02*
X14481650Y-12821760D01*
X14481650Y-12801760D02*
X14461650Y-12821760D01*
X14476890Y-10430670D02*
X14496890Y-10450670D01*
X14496890Y-10430670D02*
X14476890Y-10450670D01*
X14478160Y-9920130D02*
X14498160Y-9940130D01*
X14498160Y-9920130D02*
X14478160Y-9940130D01*
X14478160Y-10180480D02*
X14498160Y-10200480D01*
X14498160Y-10180480D02*
X14478160Y-10200480D01*
X14485780Y-14020960D02*
X14505780Y-14040960D01*
X14505780Y-14020960D02*
X14485780Y-14040960D01*
X14485780Y-14087000D02*
X14505780Y-14107000D01*
X14505780Y-14087000D02*
X14485780Y-14107000D01*
X14536580Y-12664600D02*
X14556580Y-12684600D01*
X14556580Y-12664600D02*
X14536580Y-12684600D01*
X14536580Y-12801760D02*
X14556580Y-12821760D01*
X14556580Y-12801760D02*
X14536580Y-12821760D01*
X14556900Y-12052460D02*
X14576900Y-12072460D01*
X14576900Y-12052460D02*
X14556900Y-12072460D01*
X14579760Y-13289440D02*
X14599760Y-13309440D01*
X14599760Y-13289440D02*
X14579760Y-13309440D01*
X14600080Y-12832240D02*
X14620080Y-12852240D01*
X14620080Y-12832240D02*
X14600080Y-12852240D01*
X14846460Y-12248040D02*
X14866460Y-12268040D01*
X14866460Y-12248040D02*
X14846460Y-12268040D01*
X14907420Y-14404500D02*
X14927420Y-14424500D01*
X14927420Y-14404500D02*
X14907420Y-14424500D01*
X14909960Y-13015120D02*
X14929960Y-13035120D01*
X14929960Y-13015120D02*
X14909960Y-13035120D01*
X14909960Y-13093860D02*
X14929960Y-13113860D01*
X14929960Y-13093860D02*
X14909960Y-13113860D01*
X14909960Y-14318140D02*
X14929960Y-14338140D01*
X14929960Y-14318140D02*
X14909960Y-14338140D01*
X14983620Y-12075320D02*
X15003620Y-12095320D01*
X15003620Y-12075320D02*
X14983620Y-12095320D01*
X14983620Y-13934600D02*
X15003620Y-13954600D01*
X15003620Y-13934600D02*
X14983620Y-13954600D01*
X15059820Y-13919360D02*
X15079820Y-13939360D01*
X15079820Y-13919360D02*
X15059820Y-13939360D01*
X15133480Y-13601860D02*
X15153480Y-13621860D01*
X15153480Y-13601860D02*
X15133480Y-13621860D01*
X15260480Y-14137800D02*
X15280480Y-14157800D01*
X15280480Y-14137800D02*
X15260480Y-14157800D01*
X15362080Y-13774580D02*
X15382080Y-13794580D01*
X15382080Y-13774580D02*
X15362080Y-13794580D01*
X15539880Y-13911740D02*
X15559880Y-13931740D01*
X15559880Y-13911740D02*
X15539880Y-13931740D01*
X15605920Y-13914280D02*
X15625920Y-13934280D01*
X15625920Y-13914280D02*
X15605920Y-13934280D01*
X15707520Y-13916820D02*
X15727520Y-13936820D01*
X15727520Y-13916820D02*
X15707520Y-13936820D01*
X15852300Y-14188600D02*
X15872300Y-14208600D01*
X15872300Y-14188600D02*
X15852300Y-14208600D01*
X15852300Y-14254640D02*
X15872300Y-14274640D01*
X15872300Y-14254640D02*
X15852300Y-14274640D01*
X15852300Y-14335920D02*
X15872300Y-14355920D01*
X15872300Y-14335920D02*
X15852300Y-14355920D01*
X15852300Y-14498480D02*
X15872300Y-14518480D01*
X15872300Y-14498480D02*
X15852300Y-14518480D01*
X15976760Y-12329320D02*
X15996760Y-12349320D01*
X15996760Y-12329320D02*
X15976760Y-12349320D01*
X8874520Y-13462000D02*
G75*
G03X8874520Y-13462000I-15000J0D01*
G01*
X8874520Y-13601700D02*
G75*
G03X8874520Y-13601700I-15000J0D01*
G01*
X8788400Y-9720900D02*
X8788400Y-9760900D01*
X8768400Y-9740900D02*
X8808400Y-9740900D01*
X8864600Y-12095800D02*
X8864600Y-12135800D01*
X8844600Y-12115800D02*
X8884600Y-12115800D01*
X8864600Y-12426000D02*
X8864600Y-12466000D01*
X8844600Y-12446000D02*
X8884600Y-12446000D01*
X8864600Y-14991400D02*
X8864600Y-15031400D01*
X8844600Y-15011400D02*
X8884600Y-15011400D01*
X8864600Y-15220000D02*
X8864600Y-15260000D01*
X8844600Y-15240000D02*
X8884600Y-15240000D01*
X8864600Y-15474000D02*
X8864600Y-15514000D01*
X8844600Y-15494000D02*
X8884600Y-15494000D01*
X8966200Y-7346000D02*
X8966200Y-7386000D01*
X8946200Y-7366000D02*
X8986200Y-7366000D01*
X8966200Y-8082600D02*
X8966200Y-8122600D01*
X8946200Y-8102600D02*
X8986200Y-8102600D01*
X8966200Y-8666800D02*
X8966200Y-8706800D01*
X8946200Y-8686800D02*
X8986200Y-8686800D01*
X8999220Y-9718360D02*
X8999220Y-9758360D01*
X8979220Y-9738360D02*
X9019220Y-9738360D01*
X9144000Y-15220000D02*
X9144000Y-15260000D01*
X9124000Y-15240000D02*
X9164000Y-15240000D01*
X9144000Y-15474000D02*
X9144000Y-15514000D01*
X9124000Y-15494000D02*
X9164000Y-15494000D01*
X9278620Y-10119680D02*
X9278620Y-10159680D01*
X9258620Y-10139680D02*
X9298620Y-10139680D01*
X9423400Y-15474000D02*
X9423400Y-15514000D01*
X9403400Y-15494000D02*
X9443400Y-15494000D01*
X9448800Y-11658920D02*
X9448800Y-11698920D01*
X9428800Y-11678920D02*
X9468800Y-11678920D01*
X9598660Y-10175560D02*
X9598660Y-10215560D01*
X9578660Y-10195560D02*
X9618660Y-10195560D01*
X9677400Y-7346000D02*
X9677400Y-7386000D01*
X9657400Y-7366000D02*
X9697400Y-7366000D01*
X9677400Y-8082600D02*
X9677400Y-8122600D01*
X9657400Y-8102600D02*
X9697400Y-8102600D01*
X9677400Y-8666800D02*
X9677400Y-8706800D01*
X9657400Y-8686800D02*
X9697400Y-8686800D01*
X9702800Y-15474000D02*
X9702800Y-15514000D01*
X9682800Y-15494000D02*
X9722800Y-15494000D01*
X9748520Y-10173020D02*
X9748520Y-10213020D01*
X9728520Y-10193020D02*
X9768520Y-10193020D01*
X9890760Y-10983280D02*
X9890760Y-11023280D01*
X9870760Y-11003280D02*
X9910760Y-11003280D01*
X10251440Y-11285540D02*
X10251440Y-11325540D01*
X10231440Y-11305540D02*
X10271440Y-11305540D01*
X10253980Y-10536240D02*
X10253980Y-10576240D01*
X10233980Y-10556240D02*
X10273980Y-10556240D01*
X10260330Y-13676950D02*
X10260330Y-13716950D01*
X10240330Y-13696950D02*
X10280330Y-13696950D01*
X10337800Y-7346000D02*
X10337800Y-7386000D01*
X10317800Y-7366000D02*
X10357800Y-7366000D01*
X10337800Y-8666800D02*
X10337800Y-8706800D01*
X10317800Y-8686800D02*
X10357800Y-8686800D01*
X10370820Y-10686100D02*
X10370820Y-10726100D01*
X10350820Y-10706100D02*
X10390820Y-10706100D01*
X10370820Y-10838500D02*
X10370820Y-10878500D01*
X10350820Y-10858500D02*
X10390820Y-10858500D01*
X10386060Y-10122220D02*
X10386060Y-10162220D01*
X10366060Y-10142220D02*
X10406060Y-10142220D01*
X10387330Y-14106210D02*
X10387330Y-14146210D01*
X10367330Y-14126210D02*
X10407330Y-14126210D01*
X10388600Y-10272080D02*
X10388600Y-10312080D01*
X10368600Y-10292080D02*
X10408600Y-10292080D01*
X10561320Y-15136180D02*
X10561320Y-15176180D01*
X10541320Y-15156180D02*
X10581320Y-15156180D01*
X10655300Y-11029000D02*
X10655300Y-11069000D01*
X10635300Y-11049000D02*
X10675300Y-11049000D01*
X10673080Y-10416860D02*
X10673080Y-10456860D01*
X10653080Y-10436860D02*
X10693080Y-10436860D01*
X10692130Y-12903520D02*
X10692130Y-12943520D01*
X10672130Y-12923520D02*
X10712130Y-12923520D01*
X10692130Y-13050840D02*
X10692130Y-13090840D01*
X10672130Y-13070840D02*
X10712130Y-13070840D01*
X10756900Y-10122220D02*
X10756900Y-10162220D01*
X10736900Y-10142220D02*
X10776900Y-10142220D01*
X10756900Y-10274620D02*
X10756900Y-10314620D01*
X10736900Y-10294620D02*
X10776900Y-10294620D01*
X10998200Y-8082600D02*
X10998200Y-8122600D01*
X10978200Y-8102600D02*
X11018200Y-8102600D01*
X11216640Y-11415080D02*
X11216640Y-11455080D01*
X11196640Y-11435080D02*
X11236640Y-11435080D01*
X11414760Y-11128060D02*
X11414760Y-11168060D01*
X11394760Y-11148060D02*
X11434760Y-11148060D01*
X11734800Y-9301800D02*
X11734800Y-9341800D01*
X11714800Y-9321800D02*
X11754800Y-9321800D01*
X11734800Y-9886000D02*
X11734800Y-9926000D01*
X11714800Y-9906000D02*
X11754800Y-9906000D01*
X11737340Y-10739440D02*
X11737340Y-10779440D01*
X11717340Y-10759440D02*
X11757340Y-10759440D01*
X11841480Y-8552500D02*
X11841480Y-8592500D01*
X11821480Y-8572500D02*
X11861480Y-8572500D01*
X11844020Y-8082600D02*
X11844020Y-8122600D01*
X11824020Y-8102600D02*
X11864020Y-8102600D01*
X12034520Y-8082600D02*
X12034520Y-8122600D01*
X12014520Y-8102600D02*
X12054520Y-8102600D01*
X12037060Y-8552500D02*
X12037060Y-8592500D01*
X12017060Y-8572500D02*
X12057060Y-8572500D01*
X12362180Y-8082600D02*
X12362180Y-8122600D01*
X12342180Y-8102600D02*
X12382180Y-8102600D01*
X12362180Y-8552500D02*
X12362180Y-8592500D01*
X12342180Y-8572500D02*
X12382180Y-8572500D01*
X12369800Y-9301800D02*
X12369800Y-9341800D01*
X12349800Y-9321800D02*
X12389800Y-9321800D01*
X12369800Y-9886000D02*
X12369800Y-9926000D01*
X12349800Y-9906000D02*
X12389800Y-9906000D01*
X12552680Y-8082600D02*
X12552680Y-8122600D01*
X12532680Y-8102600D02*
X12572680Y-8102600D01*
X12928600Y-8666800D02*
X12928600Y-8706800D01*
X12908600Y-8686800D02*
X12948600Y-8686800D01*
X12928600Y-9301800D02*
X12928600Y-9341800D01*
X12908600Y-9321800D02*
X12948600Y-9321800D01*
X12928600Y-9886000D02*
X12928600Y-9926000D01*
X12908600Y-9906000D02*
X12948600Y-9906000D01*
X12928600Y-10394000D02*
X12928600Y-10434000D01*
X12908600Y-10414000D02*
X12948600Y-10414000D01*
X13512800Y-7346000D02*
X13512800Y-7386000D01*
X13492800Y-7366000D02*
X13532800Y-7366000D01*
X13512800Y-8082600D02*
X13512800Y-8122600D01*
X13492800Y-8102600D02*
X13532800Y-8102600D01*
X13738860Y-12779060D02*
X13738860Y-12819060D01*
X13718860Y-12799060D02*
X13758860Y-12799060D01*
X13775690Y-13845860D02*
X13775690Y-13885860D01*
X13755690Y-13865860D02*
X13795690Y-13865860D01*
X14022070Y-13064810D02*
X14022070Y-13104810D01*
X14002070Y-13084810D02*
X14042070Y-13084810D01*
X14022070Y-13190540D02*
X14022070Y-13230540D01*
X14002070Y-13210540D02*
X14042070Y-13210540D01*
X14112240Y-11444290D02*
X14112240Y-11484290D01*
X14092240Y-11464290D02*
X14132240Y-11464290D01*
X14122400Y-7346000D02*
X14122400Y-7386000D01*
X14102400Y-7366000D02*
X14142400Y-7366000D01*
X14122400Y-8082600D02*
X14122400Y-8122600D01*
X14102400Y-8102600D02*
X14142400Y-8102600D01*
X14122400Y-8666800D02*
X14122400Y-8706800D01*
X14102400Y-8686800D02*
X14142400Y-8686800D01*
X14122400Y-9301800D02*
X14122400Y-9341800D01*
X14102400Y-9321800D02*
X14142400Y-9321800D01*
X14511020Y-15377480D02*
X14511020Y-15417480D01*
X14491020Y-15397480D02*
X14531020Y-15397480D01*
X14663420Y-15380020D02*
X14663420Y-15420020D01*
X14643420Y-15400020D02*
X14683420Y-15400020D01*
X14683740Y-12601260D02*
X14683740Y-12641260D01*
X14663740Y-12621260D02*
X14703740Y-12621260D01*
X14706600Y-7346000D02*
X14706600Y-7386000D01*
X14686600Y-7366000D02*
X14726600Y-7366000D01*
X14706600Y-8082600D02*
X14706600Y-8122600D01*
X14686600Y-8102600D02*
X14726600Y-8102600D01*
X14706600Y-9301800D02*
X14706600Y-9341800D01*
X14686600Y-9321800D02*
X14726600Y-9321800D01*
X14706600Y-9886000D02*
X14706600Y-9926000D01*
X14686600Y-9906000D02*
X14726600Y-9906000D01*
X14706600Y-11333800D02*
X14706600Y-11373800D01*
X14686600Y-11353800D02*
X14726600Y-11353800D01*
X15024100Y-12603800D02*
X15024100Y-12643800D01*
X15004100Y-12623800D02*
X15044100Y-12623800D01*
X15290000Y-14793280D02*
X15290000Y-14833280D01*
X15270000Y-14813280D02*
X15310000Y-14813280D01*
X15290000Y-14927900D02*
X15290000Y-14967900D01*
X15270000Y-14947900D02*
X15310000Y-14947900D01*
X15290000Y-15062520D02*
X15290000Y-15102520D01*
X15270000Y-15082520D02*
X15310000Y-15082520D01*
X15290800Y-15204760D02*
X15290800Y-15244760D01*
X15270800Y-15224760D02*
X15310800Y-15224760D01*
X15290800Y-15349540D02*
X15290800Y-15389540D01*
X15270800Y-15369540D02*
X15310800Y-15369540D01*
X15290800Y-15496860D02*
X15290800Y-15536860D01*
X15270800Y-15516860D02*
X15310800Y-15516860D01*
X15367000Y-7346000D02*
X15367000Y-7386000D01*
X15347000Y-7366000D02*
X15387000Y-7366000D01*
X15367000Y-8082600D02*
X15367000Y-8122600D01*
X15347000Y-8102600D02*
X15387000Y-8102600D01*
X15367000Y-8666800D02*
X15367000Y-8706800D01*
X15347000Y-8686800D02*
X15387000Y-8686800D01*
X15367000Y-9886000D02*
X15367000Y-9926000D01*
X15347000Y-9906000D02*
X15387000Y-9906000D01*
X15367000Y-11333800D02*
X15367000Y-11373800D01*
X15347000Y-11353800D02*
X15387000Y-11353800D01*
X15417800Y-12883200D02*
X15417800Y-12923200D01*
X15397800Y-12903200D02*
X15437800Y-12903200D01*
X15748000Y-12959400D02*
X15748000Y-12999400D01*
X15728000Y-12979400D02*
X15768000Y-12979400D01*
X15748000Y-13188000D02*
X15748000Y-13228000D01*
X15728000Y-13208000D02*
X15768000Y-13208000D01*
X15814040Y-14699300D02*
X15814040Y-14739300D01*
X15794040Y-14719300D02*
X15834040Y-14719300D01*
X15925800Y-15385100D02*
X15925800Y-15425100D01*
X15905800Y-15405100D02*
X15945800Y-15405100D01*
X15951200Y-7346000D02*
X15951200Y-7386000D01*
X15931200Y-7366000D02*
X15971200Y-7366000D01*
X15951200Y-8082600D02*
X15951200Y-8122600D01*
X15931200Y-8102600D02*
X15971200Y-8102600D01*
X15971520Y-14701840D02*
X15971520Y-14741840D01*
X15951520Y-14721840D02*
X15991520Y-14721840D01*
X15173140Y-12775920D02*
X15173140Y-12815920D01*
X15153140Y-12795920D02*
X15193140Y-12795920D01*
X15173140Y-12855920D02*
X15173140Y-12895920D01*
X15153140Y-12875920D02*
X15193140Y-12875920D01*
X15173140Y-12935920D02*
X15173140Y-12975920D01*
X15153140Y-12955920D02*
X15193140Y-12955920D01*
X15173140Y-13015920D02*
X15173140Y-13055920D01*
X15153140Y-13035920D02*
X15193140Y-13035920D01*
X15173140Y-13095920D02*
X15173140Y-13135920D01*
X15153140Y-13115920D02*
X15193140Y-13115920D01*
X15173140Y-13175920D02*
X15173140Y-13215920D01*
X15153140Y-13195920D02*
X15193140Y-13195920D01*
X15173140Y-13255920D02*
X15173140Y-13295920D01*
X15153140Y-13275920D02*
X15193140Y-13275920D01*
X15173140Y-13335920D02*
X15173140Y-13375920D01*
X15153140Y-13355920D02*
X15193140Y-13355920D01*
X15243140Y-12815920D02*
X15243140Y-12855920D01*
X15223140Y-12835920D02*
X15263140Y-12835920D01*
X15243140Y-12895920D02*
X15243140Y-12935920D01*
X15223140Y-12915920D02*
X15263140Y-12915920D01*
X15243140Y-12975920D02*
X15243140Y-13015920D01*
X15223140Y-12995920D02*
X15263140Y-12995920D01*
X15243140Y-13135920D02*
X15243140Y-13175920D01*
X15223140Y-13155920D02*
X15263140Y-13155920D01*
X15243140Y-13215920D02*
X15243140Y-13255920D01*
X15223140Y-13235920D02*
X15263140Y-13235920D01*
X15243140Y-13295920D02*
X15243140Y-13335920D01*
X15223140Y-13315920D02*
X15263140Y-13315920D01*
X15309353Y-12670133D02*
X15309353Y-12627707D01*
X15266927Y-12627707D01*
X15266927Y-12670133D01*
X15309353Y-12670133D01*
X15318140Y-12628920D02*
X15258140Y-12628920D01*
X15318140Y-12668920D02*
X15258140Y-12668920D01*
X15258140Y-12628920D02*
G75*
G03X15258140Y-12668920I0J-20000D01*
G01*
X15318140Y-12668920D02*
G75*
G03X15318140Y-12628920I0J20000D01*
G01*
X15309353Y-13524133D02*
X15309353Y-13481707D01*
X15266927Y-13481707D01*
X15266927Y-13524133D01*
X15309353Y-13524133D01*
X15318140Y-13482920D02*
X15258140Y-13482920D01*
X15318140Y-13522920D02*
X15258140Y-13522920D01*
X15258140Y-13482920D02*
G75*
G03X15258140Y-13522920I0J-20000D01*
G01*
X15318140Y-13522920D02*
G75*
G03X15318140Y-13482920I0J20000D01*
G01*
X15782353Y-12670133D02*
X15782353Y-12627707D01*
X15739927Y-12627707D01*
X15739927Y-12670133D01*
X15782353Y-12670133D01*
X15791140Y-12628920D02*
X15731140Y-12628920D01*
X15791140Y-12668920D02*
X15731140Y-12668920D01*
X15731140Y-12628920D02*
G75*
G03X15731140Y-12668920I0J-20000D01*
G01*
X15791140Y-12668920D02*
G75*
G03X15791140Y-12628920I0J20000D01*
G01*
X15782353Y-13524133D02*
X15782353Y-13481707D01*
X15739927Y-13481707D01*
X15739927Y-13524133D01*
X15782353Y-13524133D01*
X15791140Y-13482920D02*
X15731140Y-13482920D01*
X15791140Y-13522920D02*
X15731140Y-13522920D01*
X15731140Y-13482920D02*
G75*
G03X15731140Y-13522920I0J-20000D01*
G01*
X15791140Y-13522920D02*
G75*
G03X15791140Y-13482920I0J20000D01*
G01*
X10960100Y-10959580D02*
X10992600Y-10927080D01*
X10960100Y-10894580D01*
X10927600Y-10927080D01*
X10960100Y-10959580D01*
X10960100Y-11086580D02*
X10992600Y-11054080D01*
X10960100Y-11021580D01*
X10927600Y-11054080D01*
X10960100Y-11086580D01*
X10960100Y-11213580D02*
X10992600Y-11181080D01*
X10960100Y-11148580D01*
X10927600Y-11181080D01*
X10960100Y-11213580D01*
X10960100Y-11340580D02*
X10992600Y-11308080D01*
X10960100Y-11275580D01*
X10927600Y-11308080D01*
X10960100Y-11340580D01*
X10960100Y-11467580D02*
X10992600Y-11435080D01*
X10960100Y-11402580D01*
X10927600Y-11435080D01*
X10960100Y-11467580D01*
X11087100Y-10959580D02*
X11119600Y-10927080D01*
X11087100Y-10894580D01*
X11054600Y-10927080D01*
X11087100Y-10959580D01*
X11087100Y-11086580D02*
X11119600Y-11054080D01*
X11087100Y-11021580D01*
X11054600Y-11054080D01*
X11087100Y-11086580D01*
X11087100Y-11213580D02*
X11119600Y-11181080D01*
X11087100Y-11148580D01*
X11054600Y-11181080D01*
X11087100Y-11213580D01*
X11087100Y-11340580D02*
X11119600Y-11308080D01*
X11087100Y-11275580D01*
X11054600Y-11308080D01*
X11087100Y-11340580D01*
X11087100Y-11467580D02*
X11119600Y-11435080D01*
X11087100Y-11402580D01*
X11054600Y-11435080D01*
X11087100Y-11467580D01*
X14143360Y-15202540D02*
X14223360Y-15282540D01*
X14223360Y-15202540D02*
X14143360Y-15282540D01*
X14223360Y-15242540D02*
G75*
G03X14223360Y-15242540I-40000J0D01*
G01*
X13512000Y-9126940D02*
X13602000Y-9216940D01*
X13602000Y-9126940D02*
X13512000Y-9216940D01*
X13557000Y-9126940D02*
X13557000Y-9216940D01*
X13512000Y-9171940D02*
X13602000Y-9171940D01*
X13512000Y-9380940D02*
X13602000Y-9470940D01*
X13602000Y-9380940D02*
X13512000Y-9470940D01*
X13557000Y-9380940D02*
X13557000Y-9470940D01*
X13512000Y-9425940D02*
X13602000Y-9425940D01*
X13512000Y-9634940D02*
X13602000Y-9724940D01*
X13602000Y-9634940D02*
X13512000Y-9724940D01*
X13557000Y-9634940D02*
X13557000Y-9724940D01*
X13512000Y-9679940D02*
X13602000Y-9679940D01*
X13512000Y-9888940D02*
X13602000Y-9978940D01*
X13602000Y-9888940D02*
X13512000Y-9978940D01*
X13557000Y-9888940D02*
X13557000Y-9978940D01*
X13512000Y-9933940D02*
X13602000Y-9933940D01*
X13512000Y-10142940D02*
X13602000Y-10232940D01*
X13602000Y-10142940D02*
X13512000Y-10232940D01*
X13557000Y-10142940D02*
X13557000Y-10232940D01*
X13512000Y-10187940D02*
X13602000Y-10187940D01*
X13512000Y-10396940D02*
X13602000Y-10486940D01*
X13602000Y-10396940D02*
X13512000Y-10486940D01*
X13557000Y-10396940D02*
X13557000Y-10486940D01*
X13512000Y-10441940D02*
X13602000Y-10441940D01*
X13512000Y-10650940D02*
X13602000Y-10740940D01*
X13602000Y-10650940D02*
X13512000Y-10740940D01*
X13557000Y-10650940D02*
X13557000Y-10740940D01*
X13512000Y-10695940D02*
X13602000Y-10695940D01*
X13512000Y-10904940D02*
X13602000Y-10994940D01*
X13602000Y-10904940D02*
X13512000Y-10994940D01*
X13557000Y-10904940D02*
X13557000Y-10994940D01*
X13512000Y-10949940D02*
X13602000Y-10949940D01*
X15798000Y-9126940D02*
X15888000Y-9216940D01*
X15888000Y-9126940D02*
X15798000Y-9216940D01*
X15843000Y-9126940D02*
X15843000Y-9216940D01*
X15798000Y-9171940D02*
X15888000Y-9171940D01*
X15798000Y-9380940D02*
X15888000Y-9470940D01*
X15888000Y-9380940D02*
X15798000Y-9470940D01*
X15843000Y-9380940D02*
X15843000Y-9470940D01*
X15798000Y-9425940D02*
X15888000Y-9425940D01*
X15798000Y-9634940D02*
X15888000Y-9724940D01*
X15888000Y-9634940D02*
X15798000Y-9724940D01*
X15843000Y-9634940D02*
X15843000Y-9724940D01*
X15798000Y-9679940D02*
X15888000Y-9679940D01*
X15798000Y-9888940D02*
X15888000Y-9978940D01*
X15888000Y-9888940D02*
X15798000Y-9978940D01*
X15843000Y-9888940D02*
X15843000Y-9978940D01*
X15798000Y-9933940D02*
X15888000Y-9933940D01*
X15798000Y-10142940D02*
X15888000Y-10232940D01*
X15888000Y-10142940D02*
X15798000Y-10232940D01*
X15843000Y-10142940D02*
X15843000Y-10232940D01*
X15798000Y-10187940D02*
X15888000Y-10187940D01*
X15798000Y-10396940D02*
X15888000Y-10486940D01*
X15888000Y-10396940D02*
X15798000Y-10486940D01*
X15843000Y-10396940D02*
X15843000Y-10486940D01*
X15798000Y-10441940D02*
X15888000Y-10441940D01*
X15798000Y-10650940D02*
X15888000Y-10740940D01*
X15888000Y-10650940D02*
X15798000Y-10740940D01*
X15843000Y-10650940D02*
X15843000Y-10740940D01*
X15798000Y-10695940D02*
X15888000Y-10695940D01*
X15798000Y-10904940D02*
X15888000Y-10994940D01*
X15888000Y-10904940D02*
X15798000Y-10994940D01*
X15843000Y-10904940D02*
X15843000Y-10994940D01*
X15798000Y-10949940D02*
X15888000Y-10949940D01*
X9477460Y-9632400D02*
X9567460Y-9722400D01*
X9567460Y-9632400D02*
X9477460Y-9722400D01*
X9522460Y-9632400D02*
X9522460Y-9722400D01*
X9477460Y-9677400D02*
X9567460Y-9677400D01*
X9731460Y-9632400D02*
X9821460Y-9722400D01*
X9821460Y-9632400D02*
X9731460Y-9722400D01*
X9776460Y-9632400D02*
X9776460Y-9722400D01*
X9731460Y-9677400D02*
X9821460Y-9677400D01*
X10976140Y-9822980D02*
X11076140Y-9922980D01*
X11076140Y-9822980D02*
X10976140Y-9922980D01*
X11061496Y-9908336D02*
X11061496Y-9837624D01*
X10990784Y-9837624D01*
X10990784Y-9908336D01*
X11061496Y-9908336D01*
X10976140Y-10076980D02*
X11076140Y-10176980D01*
X11076140Y-10076980D02*
X10976140Y-10176980D01*
X11061496Y-10162336D02*
X11061496Y-10091624D01*
X10990784Y-10091624D01*
X10990784Y-10162336D01*
X11061496Y-10162336D01*
X10976140Y-10330980D02*
X11076140Y-10430980D01*
X11076140Y-10330980D02*
X10976140Y-10430980D01*
X11061496Y-10416336D02*
X11061496Y-10345624D01*
X10990784Y-10345624D01*
X10990784Y-10416336D01*
X11061496Y-10416336D01*
X11539512Y-15193556D02*
X11639512Y-15293556D01*
X11639512Y-15193556D02*
X11539512Y-15293556D01*
X11624868Y-15278912D02*
X11624868Y-15208200D01*
X11554156Y-15208200D01*
X11554156Y-15278912D01*
X11624868Y-15278912D01*
X11793512Y-15193556D02*
X11893512Y-15293556D01*
X11893512Y-15193556D02*
X11793512Y-15293556D01*
X11878868Y-15278912D02*
X11878868Y-15208200D01*
X11808156Y-15208200D01*
X11808156Y-15278912D01*
X11878868Y-15278912D01*
X12047512Y-15193556D02*
X12147512Y-15293556D01*
X12147512Y-15193556D02*
X12047512Y-15293556D01*
X12132868Y-15278912D02*
X12132868Y-15208200D01*
X12062156Y-15208200D01*
X12062156Y-15278912D01*
X12132868Y-15278912D01*
X12301512Y-15193556D02*
X12401512Y-15293556D01*
X12401512Y-15193556D02*
X12301512Y-15293556D01*
X12386868Y-15278912D02*
X12386868Y-15208200D01*
X12316156Y-15208200D01*
X12316156Y-15278912D01*
X12386868Y-15278912D01*
X12555512Y-15193556D02*
X12655512Y-15293556D01*
X12655512Y-15193556D02*
X12555512Y-15293556D01*
X12640868Y-15278912D02*
X12640868Y-15208200D01*
X12570156Y-15208200D01*
X12570156Y-15278912D01*
X12640868Y-15278912D01*
X12809512Y-15193556D02*
X12909512Y-15293556D01*
X12909512Y-15193556D02*
X12809512Y-15293556D01*
X12894868Y-15278912D02*
X12894868Y-15208200D01*
X12824156Y-15208200D01*
X12824156Y-15278912D01*
X12894868Y-15278912D01*
X13063512Y-15193556D02*
X13163512Y-15293556D01*
X13163512Y-15193556D02*
X13063512Y-15293556D01*
X13148868Y-15278912D02*
X13148868Y-15208200D01*
X13078156Y-15208200D01*
X13078156Y-15278912D01*
X13148868Y-15278912D01*
X13317512Y-15193556D02*
X13417512Y-15293556D01*
X13417512Y-15193556D02*
X13317512Y-15293556D01*
X13402868Y-15278912D02*
X13402868Y-15208200D01*
X13332156Y-15208200D01*
X13332156Y-15278912D01*
X13402868Y-15278912D01*
X13571512Y-15193556D02*
X13671512Y-15293556D01*
X13671512Y-15193556D02*
X13571512Y-15293556D01*
X13656868Y-15278912D02*
X13656868Y-15208200D01*
X13586156Y-15208200D01*
X13586156Y-15278912D01*
X13656868Y-15278912D01*
X15819920Y-11778780D02*
X15919920Y-11878780D01*
X15919920Y-11778780D02*
X15819920Y-11878780D01*
X15905276Y-11864136D02*
X15905276Y-11793424D01*
X15834564Y-11793424D01*
X15834564Y-11864136D01*
X15905276Y-11864136D01*
X15819920Y-12032780D02*
X15919920Y-12132780D01*
X15919920Y-12032780D02*
X15819920Y-12132780D01*
X15905276Y-12118136D02*
X15905276Y-12047424D01*
X15834564Y-12047424D01*
X15834564Y-12118136D01*
X15905276Y-12118136D01*
X9512820Y-7685385D02*
X9612820Y-7785385D01*
X9612820Y-7685385D02*
X9512820Y-7785385D01*
X9598176Y-7770740D02*
X9598176Y-7700029D01*
X9527464Y-7700029D01*
X9527464Y-7770740D01*
X9598176Y-7770740D01*
X10525320Y-9439086D02*
X10625320Y-9539086D01*
X10625320Y-9439086D02*
X10525320Y-9539086D01*
X10610676Y-9524442D02*
X10610676Y-9453731D01*
X10539964Y-9453731D01*
X10539964Y-9524442D01*
X10610676Y-9524442D01*
X11103540Y-7237660D02*
X11253540Y-7387660D01*
X11253540Y-7237660D02*
X11103540Y-7387660D01*
X11178540Y-7387660D02*
X11253540Y-7312660D01*
X11178540Y-7237660D01*
X11103540Y-7312660D01*
X11178540Y-7387660D01*
X11103540Y-7745660D02*
X11253540Y-7895660D01*
X11253540Y-7745660D02*
X11103540Y-7895660D01*
X11178540Y-7895660D02*
X11253540Y-7820660D01*
X11178540Y-7745660D01*
X11103540Y-7820660D01*
X11178540Y-7895660D01*
X11357540Y-7491660D02*
X11507540Y-7641660D01*
X11507540Y-7491660D02*
X11357540Y-7641660D01*
X11432540Y-7641660D02*
X11507540Y-7566660D01*
X11432540Y-7491660D01*
X11357540Y-7566660D01*
X11432540Y-7641660D01*
X11611540Y-7237660D02*
X11761540Y-7387660D01*
X11761540Y-7237660D02*
X11611540Y-7387660D01*
X11686540Y-7387660D02*
X11761540Y-7312660D01*
X11686540Y-7237660D01*
X11611540Y-7312660D01*
X11686540Y-7387660D01*
X11611540Y-7745660D02*
X11761540Y-7895660D01*
X11761540Y-7745660D02*
X11611540Y-7895660D01*
X11686540Y-7895660D02*
X11761540Y-7820660D01*
X11686540Y-7745660D01*
X11611540Y-7820660D01*
X11686540Y-7895660D01*
X12517000Y-7230040D02*
X12667000Y-7380040D01*
X12667000Y-7230040D02*
X12517000Y-7380040D01*
X12592000Y-7380040D02*
X12667000Y-7305040D01*
X12592000Y-7230040D01*
X12517000Y-7305040D01*
X12592000Y-7380040D01*
X12517000Y-7738040D02*
X12667000Y-7888040D01*
X12667000Y-7738040D02*
X12517000Y-7888040D01*
X12592000Y-7888040D02*
X12667000Y-7813040D01*
X12592000Y-7738040D01*
X12517000Y-7813040D01*
X12592000Y-7888040D01*
X12771000Y-7484040D02*
X12921000Y-7634040D01*
X12921000Y-7484040D02*
X12771000Y-7634040D01*
X12846000Y-7634040D02*
X12921000Y-7559040D01*
X12846000Y-7484040D01*
X12771000Y-7559040D01*
X12846000Y-7634040D01*
X13025000Y-7230040D02*
X13175000Y-7380040D01*
X13175000Y-7230040D02*
X13025000Y-7380040D01*
X13100000Y-7380040D02*
X13175000Y-7305040D01*
X13100000Y-7230040D01*
X13025000Y-7305040D01*
X13100000Y-7380040D01*
X13025000Y-7738040D02*
X13175000Y-7888040D01*
X13175000Y-7738040D02*
X13025000Y-7888040D01*
X13100000Y-7888040D02*
X13175000Y-7813040D01*
X13100000Y-7738040D01*
X13025000Y-7813040D01*
X13100000Y-7888040D01*
D12*
X8933928Y-16118214D02*
X8933928Y-15818214D01*
X9005357Y-15818214D01*
X9048214Y-15832500D01*
X9076786Y-15861071D01*
X9091071Y-15889643D01*
X9105357Y-15946786D01*
X9105357Y-15989643D01*
X9091071Y-16046786D01*
X9076786Y-16075357D01*
X9048214Y-16103929D01*
X9005357Y-16118214D01*
X8933928Y-16118214D01*
X9233928Y-16118214D02*
X9233928Y-15918214D01*
X9233928Y-15975357D02*
X9248214Y-15946786D01*
X9262500Y-15932500D01*
X9291071Y-15918214D01*
X9319643Y-15918214D01*
X9419643Y-16118214D02*
X9419643Y-15918214D01*
X9419643Y-15818214D02*
X9405357Y-15832500D01*
X9419643Y-15846786D01*
X9433928Y-15832500D01*
X9419643Y-15818214D01*
X9419643Y-15846786D01*
X9605357Y-16118214D02*
X9576786Y-16103929D01*
X9562500Y-16075357D01*
X9562500Y-15818214D01*
X9762500Y-16118214D02*
X9733928Y-16103929D01*
X9719643Y-16075357D01*
X9719643Y-15818214D01*
X10105357Y-16118214D02*
X10105357Y-15818214D01*
X10205357Y-16032500D01*
X10305357Y-15818214D01*
X10305357Y-16118214D01*
X10576786Y-16118214D02*
X10576786Y-15961071D01*
X10562500Y-15932500D01*
X10533928Y-15918214D01*
X10476786Y-15918214D01*
X10448214Y-15932500D01*
X10576786Y-16103929D02*
X10548214Y-16118214D01*
X10476786Y-16118214D01*
X10448214Y-16103929D01*
X10433928Y-16075357D01*
X10433928Y-16046786D01*
X10448214Y-16018214D01*
X10476786Y-16003929D01*
X10548214Y-16003929D01*
X10576786Y-15989643D01*
X10719643Y-15918214D02*
X10719643Y-16218214D01*
X10719643Y-15932500D02*
X10748214Y-15918214D01*
X10805357Y-15918214D01*
X10833928Y-15932500D01*
X10848214Y-15946786D01*
X10862500Y-15975357D01*
X10862500Y-16061071D01*
X10848214Y-16089643D01*
X10833928Y-16103929D01*
X10805357Y-16118214D01*
X10748214Y-16118214D01*
X10719643Y-16103929D01*
X10991071Y-16089643D02*
X11005357Y-16103929D01*
X10991071Y-16118214D01*
X10976786Y-16103929D01*
X10991071Y-16089643D01*
X10991071Y-16118214D01*
X10991071Y-15932500D02*
X11005357Y-15946786D01*
X10991071Y-15961071D01*
X10976786Y-15946786D01*
X10991071Y-15932500D01*
X10991071Y-15961071D01*
X8627500Y-16602500D02*
X8647500Y-16622500D01*
X8647500Y-16602500D02*
X8627500Y-16622500D01*
X8991071Y-16448214D02*
X9019643Y-16448214D01*
X9048214Y-16462500D01*
X9062500Y-16476786D01*
X9076786Y-16505357D01*
X9091071Y-16562500D01*
X9091071Y-16633929D01*
X9076786Y-16691071D01*
X9062500Y-16719643D01*
X9048214Y-16733929D01*
X9019643Y-16748214D01*
X8991071Y-16748214D01*
X8962500Y-16733929D01*
X8948214Y-16719643D01*
X8933928Y-16691071D01*
X8919643Y-16633929D01*
X8919643Y-16562500D01*
X8933928Y-16505357D01*
X8948214Y-16476786D01*
X8962500Y-16462500D01*
X8991071Y-16448214D01*
X9219643Y-16719643D02*
X9233928Y-16733929D01*
X9219643Y-16748214D01*
X9205357Y-16733929D01*
X9219643Y-16719643D01*
X9219643Y-16748214D01*
X9348214Y-16476786D02*
X9362500Y-16462500D01*
X9391071Y-16448214D01*
X9462500Y-16448214D01*
X9491071Y-16462500D01*
X9505357Y-16476786D01*
X9519643Y-16505357D01*
X9519643Y-16533929D01*
X9505357Y-16576786D01*
X9333928Y-16748214D01*
X9519643Y-16748214D01*
X9705357Y-16448214D02*
X9733928Y-16448214D01*
X9762500Y-16462500D01*
X9776786Y-16476786D01*
X9791071Y-16505357D01*
X9805357Y-16562500D01*
X9805357Y-16633929D01*
X9791071Y-16691071D01*
X9776786Y-16719643D01*
X9762500Y-16733929D01*
X9733928Y-16748214D01*
X9705357Y-16748214D01*
X9676786Y-16733929D01*
X9662500Y-16719643D01*
X9648214Y-16691071D01*
X9633928Y-16633929D01*
X9633928Y-16562500D01*
X9648214Y-16505357D01*
X9662500Y-16476786D01*
X9676786Y-16462500D01*
X9705357Y-16448214D01*
X9933928Y-16748214D02*
X9933928Y-16548214D01*
X9933928Y-16576786D02*
X9948214Y-16562500D01*
X9976786Y-16548214D01*
X10019643Y-16548214D01*
X10048214Y-16562500D01*
X10062500Y-16591071D01*
X10062500Y-16748214D01*
X10062500Y-16591071D02*
X10076786Y-16562500D01*
X10105357Y-16548214D01*
X10148214Y-16548214D01*
X10176786Y-16562500D01*
X10191071Y-16591071D01*
X10191071Y-16748214D01*
X10333928Y-16748214D02*
X10333928Y-16548214D01*
X10333928Y-16576786D02*
X10348214Y-16562500D01*
X10376786Y-16548214D01*
X10419643Y-16548214D01*
X10448214Y-16562500D01*
X10462500Y-16591071D01*
X10462500Y-16748214D01*
X10462500Y-16591071D02*
X10476786Y-16562500D01*
X10505357Y-16548214D01*
X10548214Y-16548214D01*
X10576786Y-16562500D01*
X10591071Y-16591071D01*
X10591071Y-16748214D01*
X11176786Y-16433929D02*
X10919643Y-16819643D01*
X11562500Y-16448214D02*
X11591071Y-16448214D01*
X11619643Y-16462500D01*
X11633928Y-16476786D01*
X11648214Y-16505357D01*
X11662500Y-16562500D01*
X11662500Y-16633929D01*
X11648214Y-16691071D01*
X11633928Y-16719643D01*
X11619643Y-16733929D01*
X11591071Y-16748214D01*
X11562500Y-16748214D01*
X11533928Y-16733929D01*
X11519643Y-16719643D01*
X11505357Y-16691071D01*
X11491071Y-16633929D01*
X11491071Y-16562500D01*
X11505357Y-16505357D01*
X11519643Y-16476786D01*
X11533928Y-16462500D01*
X11562500Y-16448214D01*
X11791071Y-16719643D02*
X11805357Y-16733929D01*
X11791071Y-16748214D01*
X11776786Y-16733929D01*
X11791071Y-16719643D01*
X11791071Y-16748214D01*
X11991071Y-16448214D02*
X12019643Y-16448214D01*
X12048214Y-16462500D01*
X12062500Y-16476786D01*
X12076786Y-16505357D01*
X12091071Y-16562500D01*
X12091071Y-16633929D01*
X12076786Y-16691071D01*
X12062500Y-16719643D01*
X12048214Y-16733929D01*
X12019643Y-16748214D01*
X11991071Y-16748214D01*
X11962500Y-16733929D01*
X11948214Y-16719643D01*
X11933928Y-16691071D01*
X11919643Y-16633929D01*
X11919643Y-16562500D01*
X11933928Y-16505357D01*
X11948214Y-16476786D01*
X11962500Y-16462500D01*
X11991071Y-16448214D01*
X12276786Y-16448214D02*
X12305357Y-16448214D01*
X12333928Y-16462500D01*
X12348214Y-16476786D01*
X12362500Y-16505357D01*
X12376786Y-16562500D01*
X12376786Y-16633929D01*
X12362500Y-16691071D01*
X12348214Y-16719643D01*
X12333928Y-16733929D01*
X12305357Y-16748214D01*
X12276786Y-16748214D01*
X12248214Y-16733929D01*
X12233928Y-16719643D01*
X12219643Y-16691071D01*
X12205357Y-16633929D01*
X12205357Y-16562500D01*
X12219643Y-16505357D01*
X12233928Y-16476786D01*
X12248214Y-16462500D01*
X12276786Y-16448214D01*
X12548214Y-16576786D02*
X12519643Y-16562500D01*
X12505357Y-16548214D01*
X12491071Y-16519643D01*
X12491071Y-16505357D01*
X12505357Y-16476786D01*
X12519643Y-16462500D01*
X12548214Y-16448214D01*
X12605357Y-16448214D01*
X12633928Y-16462500D01*
X12648214Y-16476786D01*
X12662500Y-16505357D01*
X12662500Y-16519643D01*
X12648214Y-16548214D01*
X12633928Y-16562500D01*
X12605357Y-16576786D01*
X12548214Y-16576786D01*
X12519643Y-16591071D01*
X12505357Y-16605357D01*
X12491071Y-16633929D01*
X12491071Y-16691071D01*
X12505357Y-16719643D01*
X12519643Y-16733929D01*
X12548214Y-16748214D01*
X12605357Y-16748214D01*
X12633928Y-16733929D01*
X12648214Y-16719643D01*
X12662500Y-16691071D01*
X12662500Y-16633929D01*
X12648214Y-16605357D01*
X12633928Y-16591071D01*
X12605357Y-16576786D01*
X12776786Y-16448214D02*
X12776786Y-16505357D01*
X12891071Y-16448214D02*
X12891071Y-16505357D01*
X13333928Y-16862500D02*
X13319643Y-16848214D01*
X13291071Y-16805357D01*
X13276786Y-16776786D01*
X13262500Y-16733929D01*
X13248214Y-16662500D01*
X13248214Y-16605357D01*
X13262500Y-16533929D01*
X13276786Y-16491071D01*
X13291071Y-16462500D01*
X13319643Y-16419643D01*
X13333928Y-16405357D01*
X13576786Y-16548214D02*
X13576786Y-16748214D01*
X13505357Y-16433929D02*
X13433928Y-16648214D01*
X13619643Y-16648214D01*
X13891071Y-16748214D02*
X13719643Y-16748214D01*
X13805357Y-16748214D02*
X13805357Y-16448214D01*
X13776786Y-16491071D01*
X13748214Y-16519643D01*
X13719643Y-16533929D01*
X14176786Y-16748214D02*
X14005357Y-16748214D01*
X14091071Y-16748214D02*
X14091071Y-16448214D01*
X14062500Y-16491071D01*
X14033928Y-16519643D01*
X14005357Y-16533929D01*
X14533928Y-16748214D02*
X14533928Y-16448214D01*
X14662500Y-16748214D02*
X14662500Y-16591071D01*
X14648214Y-16562500D01*
X14619643Y-16548214D01*
X14576786Y-16548214D01*
X14548214Y-16562500D01*
X14533928Y-16576786D01*
X14848214Y-16748214D02*
X14819643Y-16733929D01*
X14805357Y-16719643D01*
X14791071Y-16691071D01*
X14791071Y-16605357D01*
X14805357Y-16576786D01*
X14819643Y-16562500D01*
X14848214Y-16548214D01*
X14891071Y-16548214D01*
X14919643Y-16562500D01*
X14933928Y-16576786D01*
X14948214Y-16605357D01*
X14948214Y-16691071D01*
X14933928Y-16719643D01*
X14919643Y-16733929D01*
X14891071Y-16748214D01*
X14848214Y-16748214D01*
X15119643Y-16748214D02*
X15091071Y-16733929D01*
X15076786Y-16705357D01*
X15076786Y-16448214D01*
X15348214Y-16733929D02*
X15319643Y-16748214D01*
X15262500Y-16748214D01*
X15233928Y-16733929D01*
X15219643Y-16705357D01*
X15219643Y-16591071D01*
X15233928Y-16562500D01*
X15262500Y-16548214D01*
X15319643Y-16548214D01*
X15348214Y-16562500D01*
X15362500Y-16591071D01*
X15362500Y-16619643D01*
X15219643Y-16648214D01*
X15476786Y-16733929D02*
X15505357Y-16748214D01*
X15562500Y-16748214D01*
X15591071Y-16733929D01*
X15605357Y-16705357D01*
X15605357Y-16691071D01*
X15591071Y-16662500D01*
X15562500Y-16648214D01*
X15519643Y-16648214D01*
X15491071Y-16633929D01*
X15476786Y-16605357D01*
X15476786Y-16591071D01*
X15491071Y-16562500D01*
X15519643Y-16548214D01*
X15562500Y-16548214D01*
X15591071Y-16562500D01*
X15705357Y-16862500D02*
X15719643Y-16848214D01*
X15748214Y-16805357D01*
X15762500Y-16776786D01*
X15776786Y-16733929D01*
X15791071Y-16662500D01*
X15791071Y-16605357D01*
X15776786Y-16533929D01*
X15762500Y-16491071D01*
X15748214Y-16462500D01*
X15719643Y-16419643D01*
X15705357Y-16405357D01*
X8647500Y-17008500D02*
G75*
G03X8647500Y-17008500I-15000J0D01*
G01*
X8991071Y-16844214D02*
X9019643Y-16844214D01*
X9048214Y-16858500D01*
X9062500Y-16872786D01*
X9076786Y-16901357D01*
X9091071Y-16958500D01*
X9091071Y-17029929D01*
X9076786Y-17087072D01*
X9062500Y-17115643D01*
X9048214Y-17129929D01*
X9019643Y-17144214D01*
X8991071Y-17144214D01*
X8962500Y-17129929D01*
X8948214Y-17115643D01*
X8933928Y-17087072D01*
X8919643Y-17029929D01*
X8919643Y-16958500D01*
X8933928Y-16901357D01*
X8948214Y-16872786D01*
X8962500Y-16858500D01*
X8991071Y-16844214D01*
X9219643Y-17115643D02*
X9233928Y-17129929D01*
X9219643Y-17144214D01*
X9205357Y-17129929D01*
X9219643Y-17115643D01*
X9219643Y-17144214D01*
X9333928Y-16844214D02*
X9519643Y-16844214D01*
X9419643Y-16958500D01*
X9462500Y-16958500D01*
X9491071Y-16972786D01*
X9505357Y-16987072D01*
X9519643Y-17015643D01*
X9519643Y-17087072D01*
X9505357Y-17115643D01*
X9491071Y-17129929D01*
X9462500Y-17144214D01*
X9376786Y-17144214D01*
X9348214Y-17129929D01*
X9333928Y-17115643D01*
X9705357Y-16844214D02*
X9733928Y-16844214D01*
X9762500Y-16858500D01*
X9776786Y-16872786D01*
X9791071Y-16901357D01*
X9805357Y-16958500D01*
X9805357Y-17029929D01*
X9791071Y-17087072D01*
X9776786Y-17115643D01*
X9762500Y-17129929D01*
X9733928Y-17144214D01*
X9705357Y-17144214D01*
X9676786Y-17129929D01*
X9662500Y-17115643D01*
X9648214Y-17087072D01*
X9633928Y-17029929D01*
X9633928Y-16958500D01*
X9648214Y-16901357D01*
X9662500Y-16872786D01*
X9676786Y-16858500D01*
X9705357Y-16844214D01*
X9933928Y-17144214D02*
X9933928Y-16944214D01*
X9933928Y-16972786D02*
X9948214Y-16958500D01*
X9976786Y-16944214D01*
X10019643Y-16944214D01*
X10048214Y-16958500D01*
X10062500Y-16987072D01*
X10062500Y-17144214D01*
X10062500Y-16987072D02*
X10076786Y-16958500D01*
X10105357Y-16944214D01*
X10148214Y-16944214D01*
X10176786Y-16958500D01*
X10191071Y-16987072D01*
X10191071Y-17144214D01*
X10333928Y-17144214D02*
X10333928Y-16944214D01*
X10333928Y-16972786D02*
X10348214Y-16958500D01*
X10376786Y-16944214D01*
X10419643Y-16944214D01*
X10448214Y-16958500D01*
X10462500Y-16987072D01*
X10462500Y-17144214D01*
X10462500Y-16987072D02*
X10476786Y-16958500D01*
X10505357Y-16944214D01*
X10548214Y-16944214D01*
X10576786Y-16958500D01*
X10591071Y-16987072D01*
X10591071Y-17144214D01*
X11176786Y-16829929D02*
X10919643Y-17215643D01*
X11562500Y-16844214D02*
X11591071Y-16844214D01*
X11619643Y-16858500D01*
X11633928Y-16872786D01*
X11648214Y-16901357D01*
X11662500Y-16958500D01*
X11662500Y-17029929D01*
X11648214Y-17087072D01*
X11633928Y-17115643D01*
X11619643Y-17129929D01*
X11591071Y-17144214D01*
X11562500Y-17144214D01*
X11533928Y-17129929D01*
X11519643Y-17115643D01*
X11505357Y-17087072D01*
X11491071Y-17029929D01*
X11491071Y-16958500D01*
X11505357Y-16901357D01*
X11519643Y-16872786D01*
X11533928Y-16858500D01*
X11562500Y-16844214D01*
X11791071Y-17115643D02*
X11805357Y-17129929D01*
X11791071Y-17144214D01*
X11776786Y-17129929D01*
X11791071Y-17115643D01*
X11791071Y-17144214D01*
X11991071Y-16844214D02*
X12019643Y-16844214D01*
X12048214Y-16858500D01*
X12062500Y-16872786D01*
X12076786Y-16901357D01*
X12091071Y-16958500D01*
X12091071Y-17029929D01*
X12076786Y-17087072D01*
X12062500Y-17115643D01*
X12048214Y-17129929D01*
X12019643Y-17144214D01*
X11991071Y-17144214D01*
X11962500Y-17129929D01*
X11948214Y-17115643D01*
X11933928Y-17087072D01*
X11919643Y-17029929D01*
X11919643Y-16958500D01*
X11933928Y-16901357D01*
X11948214Y-16872786D01*
X11962500Y-16858500D01*
X11991071Y-16844214D01*
X12376786Y-17144214D02*
X12205357Y-17144214D01*
X12291071Y-17144214D02*
X12291071Y-16844214D01*
X12262500Y-16887072D01*
X12233928Y-16915643D01*
X12205357Y-16929929D01*
X12491071Y-16872786D02*
X12505357Y-16858500D01*
X12533928Y-16844214D01*
X12605357Y-16844214D01*
X12633928Y-16858500D01*
X12648214Y-16872786D01*
X12662500Y-16901357D01*
X12662500Y-16929929D01*
X12648214Y-16972786D01*
X12476786Y-17144214D01*
X12662500Y-17144214D01*
X12776786Y-16844214D02*
X12776786Y-16901357D01*
X12891071Y-16844214D02*
X12891071Y-16901357D01*
X13333928Y-17258500D02*
X13319643Y-17244214D01*
X13291071Y-17201357D01*
X13276786Y-17172786D01*
X13262500Y-17129929D01*
X13248214Y-17058500D01*
X13248214Y-17001357D01*
X13262500Y-16929929D01*
X13276786Y-16887072D01*
X13291071Y-16858500D01*
X13319643Y-16815643D01*
X13333928Y-16801357D01*
X13433928Y-16872786D02*
X13448214Y-16858500D01*
X13476786Y-16844214D01*
X13548214Y-16844214D01*
X13576786Y-16858500D01*
X13591071Y-16872786D01*
X13605357Y-16901357D01*
X13605357Y-16929929D01*
X13591071Y-16972786D01*
X13419643Y-17144214D01*
X13605357Y-17144214D01*
X13962500Y-17144214D02*
X13962500Y-16844214D01*
X14091071Y-17144214D02*
X14091071Y-16987072D01*
X14076786Y-16958500D01*
X14048214Y-16944214D01*
X14005357Y-16944214D01*
X13976786Y-16958500D01*
X13962500Y-16972786D01*
X14276786Y-17144214D02*
X14248214Y-17129929D01*
X14233928Y-17115643D01*
X14219643Y-17087072D01*
X14219643Y-17001357D01*
X14233928Y-16972786D01*
X14248214Y-16958500D01*
X14276786Y-16944214D01*
X14319643Y-16944214D01*
X14348214Y-16958500D01*
X14362500Y-16972786D01*
X14376786Y-17001357D01*
X14376786Y-17087072D01*
X14362500Y-17115643D01*
X14348214Y-17129929D01*
X14319643Y-17144214D01*
X14276786Y-17144214D01*
X14548214Y-17144214D02*
X14519643Y-17129929D01*
X14505357Y-17101357D01*
X14505357Y-16844214D01*
X14776786Y-17129929D02*
X14748214Y-17144214D01*
X14691071Y-17144214D01*
X14662500Y-17129929D01*
X14648214Y-17101357D01*
X14648214Y-16987072D01*
X14662500Y-16958500D01*
X14691071Y-16944214D01*
X14748214Y-16944214D01*
X14776786Y-16958500D01*
X14791071Y-16987072D01*
X14791071Y-17015643D01*
X14648214Y-17044214D01*
X14905357Y-17129929D02*
X14933928Y-17144214D01*
X14991071Y-17144214D01*
X15019643Y-17129929D01*
X15033928Y-17101357D01*
X15033928Y-17087072D01*
X15019643Y-17058500D01*
X14991071Y-17044214D01*
X14948214Y-17044214D01*
X14919643Y-17029929D01*
X14905357Y-17001357D01*
X14905357Y-16987072D01*
X14919643Y-16958500D01*
X14948214Y-16944214D01*
X14991071Y-16944214D01*
X15019643Y-16958500D01*
X15133928Y-17258500D02*
X15148214Y-17244214D01*
X15176786Y-17201357D01*
X15191071Y-17172786D01*
X15205357Y-17129929D01*
X15219643Y-17058500D01*
X15219643Y-17001357D01*
X15205357Y-16929929D01*
X15191071Y-16887072D01*
X15176786Y-16858500D01*
X15148214Y-16815643D01*
X15133928Y-16801357D01*
X8627500Y-17384500D02*
X8627500Y-17424500D01*
X8607500Y-17404500D02*
X8647500Y-17404500D01*
X8991071Y-17240214D02*
X9019643Y-17240214D01*
X9048214Y-17254500D01*
X9062500Y-17268786D01*
X9076786Y-17297357D01*
X9091071Y-17354500D01*
X9091071Y-17425929D01*
X9076786Y-17483072D01*
X9062500Y-17511643D01*
X9048214Y-17525929D01*
X9019643Y-17540214D01*
X8991071Y-17540214D01*
X8962500Y-17525929D01*
X8948214Y-17511643D01*
X8933928Y-17483072D01*
X8919643Y-17425929D01*
X8919643Y-17354500D01*
X8933928Y-17297357D01*
X8948214Y-17268786D01*
X8962500Y-17254500D01*
X8991071Y-17240214D01*
X9219643Y-17511643D02*
X9233928Y-17525929D01*
X9219643Y-17540214D01*
X9205357Y-17525929D01*
X9219643Y-17511643D01*
X9219643Y-17540214D01*
X9491071Y-17340214D02*
X9491071Y-17540214D01*
X9419643Y-17225929D02*
X9348214Y-17440214D01*
X9533928Y-17440214D01*
X9705357Y-17240214D02*
X9733928Y-17240214D01*
X9762500Y-17254500D01*
X9776786Y-17268786D01*
X9791071Y-17297357D01*
X9805357Y-17354500D01*
X9805357Y-17425929D01*
X9791071Y-17483072D01*
X9776786Y-17511643D01*
X9762500Y-17525929D01*
X9733928Y-17540214D01*
X9705357Y-17540214D01*
X9676786Y-17525929D01*
X9662500Y-17511643D01*
X9648214Y-17483072D01*
X9633928Y-17425929D01*
X9633928Y-17354500D01*
X9648214Y-17297357D01*
X9662500Y-17268786D01*
X9676786Y-17254500D01*
X9705357Y-17240214D01*
X9933928Y-17540214D02*
X9933928Y-17340214D01*
X9933928Y-17368786D02*
X9948214Y-17354500D01*
X9976786Y-17340214D01*
X10019643Y-17340214D01*
X10048214Y-17354500D01*
X10062500Y-17383072D01*
X10062500Y-17540214D01*
X10062500Y-17383072D02*
X10076786Y-17354500D01*
X10105357Y-17340214D01*
X10148214Y-17340214D01*
X10176786Y-17354500D01*
X10191071Y-17383072D01*
X10191071Y-17540214D01*
X10333928Y-17540214D02*
X10333928Y-17340214D01*
X10333928Y-17368786D02*
X10348214Y-17354500D01*
X10376786Y-17340214D01*
X10419643Y-17340214D01*
X10448214Y-17354500D01*
X10462500Y-17383072D01*
X10462500Y-17540214D01*
X10462500Y-17383072D02*
X10476786Y-17354500D01*
X10505357Y-17340214D01*
X10548214Y-17340214D01*
X10576786Y-17354500D01*
X10591071Y-17383072D01*
X10591071Y-17540214D01*
X11176786Y-17225929D02*
X10919643Y-17611643D01*
X11562500Y-17240214D02*
X11591071Y-17240214D01*
X11619643Y-17254500D01*
X11633928Y-17268786D01*
X11648214Y-17297357D01*
X11662500Y-17354500D01*
X11662500Y-17425929D01*
X11648214Y-17483072D01*
X11633928Y-17511643D01*
X11619643Y-17525929D01*
X11591071Y-17540214D01*
X11562500Y-17540214D01*
X11533928Y-17525929D01*
X11519643Y-17511643D01*
X11505357Y-17483072D01*
X11491071Y-17425929D01*
X11491071Y-17354500D01*
X11505357Y-17297357D01*
X11519643Y-17268786D01*
X11533928Y-17254500D01*
X11562500Y-17240214D01*
X11791071Y-17511643D02*
X11805357Y-17525929D01*
X11791071Y-17540214D01*
X11776786Y-17525929D01*
X11791071Y-17511643D01*
X11791071Y-17540214D01*
X11991071Y-17240214D02*
X12019643Y-17240214D01*
X12048214Y-17254500D01*
X12062500Y-17268786D01*
X12076786Y-17297357D01*
X12091071Y-17354500D01*
X12091071Y-17425929D01*
X12076786Y-17483072D01*
X12062500Y-17511643D01*
X12048214Y-17525929D01*
X12019643Y-17540214D01*
X11991071Y-17540214D01*
X11962500Y-17525929D01*
X11948214Y-17511643D01*
X11933928Y-17483072D01*
X11919643Y-17425929D01*
X11919643Y-17354500D01*
X11933928Y-17297357D01*
X11948214Y-17268786D01*
X11962500Y-17254500D01*
X11991071Y-17240214D01*
X12376786Y-17540214D02*
X12205357Y-17540214D01*
X12291071Y-17540214D02*
X12291071Y-17240214D01*
X12262500Y-17283072D01*
X12233928Y-17311643D01*
X12205357Y-17325929D01*
X12633928Y-17240214D02*
X12576786Y-17240214D01*
X12548214Y-17254500D01*
X12533928Y-17268786D01*
X12505357Y-17311643D01*
X12491071Y-17368786D01*
X12491071Y-17483072D01*
X12505357Y-17511643D01*
X12519643Y-17525929D01*
X12548214Y-17540214D01*
X12605357Y-17540214D01*
X12633928Y-17525929D01*
X12648214Y-17511643D01*
X12662500Y-17483072D01*
X12662500Y-17411643D01*
X12648214Y-17383072D01*
X12633928Y-17368786D01*
X12605357Y-17354500D01*
X12548214Y-17354500D01*
X12519643Y-17368786D01*
X12505357Y-17383072D01*
X12491071Y-17411643D01*
X12776786Y-17240214D02*
X12776786Y-17297357D01*
X12891071Y-17240214D02*
X12891071Y-17297357D01*
X13333928Y-17654500D02*
X13319643Y-17640214D01*
X13291071Y-17597357D01*
X13276786Y-17568786D01*
X13262500Y-17525929D01*
X13248214Y-17454500D01*
X13248214Y-17397357D01*
X13262500Y-17325929D01*
X13276786Y-17283072D01*
X13291071Y-17254500D01*
X13319643Y-17211643D01*
X13333928Y-17197357D01*
X13605357Y-17540214D02*
X13433928Y-17540214D01*
X13519643Y-17540214D02*
X13519643Y-17240214D01*
X13491071Y-17283072D01*
X13462500Y-17311643D01*
X13433928Y-17325929D01*
X13891071Y-17540214D02*
X13719643Y-17540214D01*
X13805357Y-17540214D02*
X13805357Y-17240214D01*
X13776786Y-17283072D01*
X13748214Y-17311643D01*
X13719643Y-17325929D01*
X14176786Y-17540214D02*
X14005357Y-17540214D01*
X14091071Y-17540214D02*
X14091071Y-17240214D01*
X14062500Y-17283072D01*
X14033928Y-17311643D01*
X14005357Y-17325929D01*
X14533928Y-17540214D02*
X14533928Y-17240214D01*
X14662500Y-17540214D02*
X14662500Y-17383072D01*
X14648214Y-17354500D01*
X14619643Y-17340214D01*
X14576786Y-17340214D01*
X14548214Y-17354500D01*
X14533928Y-17368786D01*
X14848214Y-17540214D02*
X14819643Y-17525929D01*
X14805357Y-17511643D01*
X14791071Y-17483072D01*
X14791071Y-17397357D01*
X14805357Y-17368786D01*
X14819643Y-17354500D01*
X14848214Y-17340214D01*
X14891071Y-17340214D01*
X14919643Y-17354500D01*
X14933928Y-17368786D01*
X14948214Y-17397357D01*
X14948214Y-17483072D01*
X14933928Y-17511643D01*
X14919643Y-17525929D01*
X14891071Y-17540214D01*
X14848214Y-17540214D01*
X15119643Y-17540214D02*
X15091071Y-17525929D01*
X15076786Y-17497357D01*
X15076786Y-17240214D01*
X15348214Y-17525929D02*
X15319643Y-17540214D01*
X15262500Y-17540214D01*
X15233928Y-17525929D01*
X15219643Y-17497357D01*
X15219643Y-17383072D01*
X15233928Y-17354500D01*
X15262500Y-17340214D01*
X15319643Y-17340214D01*
X15348214Y-17354500D01*
X15362500Y-17383072D01*
X15362500Y-17411643D01*
X15219643Y-17440214D01*
X15476786Y-17525929D02*
X15505357Y-17540214D01*
X15562500Y-17540214D01*
X15591071Y-17525929D01*
X15605357Y-17497357D01*
X15605357Y-17483072D01*
X15591071Y-17454500D01*
X15562500Y-17440214D01*
X15519643Y-17440214D01*
X15491071Y-17425929D01*
X15476786Y-17397357D01*
X15476786Y-17383072D01*
X15491071Y-17354500D01*
X15519643Y-17340214D01*
X15562500Y-17340214D01*
X15591071Y-17354500D01*
X15705357Y-17654500D02*
X15719643Y-17640214D01*
X15748214Y-17597357D01*
X15762500Y-17568786D01*
X15776786Y-17525929D01*
X15791071Y-17454500D01*
X15791071Y-17397357D01*
X15776786Y-17325929D01*
X15762500Y-17283072D01*
X15748214Y-17254500D01*
X15719643Y-17211643D01*
X15705357Y-17197357D01*
X8638713Y-17821714D02*
X8638713Y-17779287D01*
X8596287Y-17779287D01*
X8596287Y-17821714D01*
X8638713Y-17821714D01*
X8991071Y-17636214D02*
X9019643Y-17636214D01*
X9048214Y-17650500D01*
X9062500Y-17664786D01*
X9076786Y-17693357D01*
X9091071Y-17750500D01*
X9091071Y-17821929D01*
X9076786Y-17879072D01*
X9062500Y-17907643D01*
X9048214Y-17921929D01*
X9019643Y-17936214D01*
X8991071Y-17936214D01*
X8962500Y-17921929D01*
X8948214Y-17907643D01*
X8933928Y-17879072D01*
X8919643Y-17821929D01*
X8919643Y-17750500D01*
X8933928Y-17693357D01*
X8948214Y-17664786D01*
X8962500Y-17650500D01*
X8991071Y-17636214D01*
X9219643Y-17907643D02*
X9233928Y-17921929D01*
X9219643Y-17936214D01*
X9205357Y-17921929D01*
X9219643Y-17907643D01*
X9219643Y-17936214D01*
X9491071Y-17636214D02*
X9433928Y-17636214D01*
X9405357Y-17650500D01*
X9391071Y-17664786D01*
X9362500Y-17707643D01*
X9348214Y-17764786D01*
X9348214Y-17879072D01*
X9362500Y-17907643D01*
X9376786Y-17921929D01*
X9405357Y-17936214D01*
X9462500Y-17936214D01*
X9491071Y-17921929D01*
X9505357Y-17907643D01*
X9519643Y-17879072D01*
X9519643Y-17807643D01*
X9505357Y-17779072D01*
X9491071Y-17764786D01*
X9462500Y-17750500D01*
X9405357Y-17750500D01*
X9376786Y-17764786D01*
X9362500Y-17779072D01*
X9348214Y-17807643D01*
X9705357Y-17636214D02*
X9733928Y-17636214D01*
X9762500Y-17650500D01*
X9776786Y-17664786D01*
X9791071Y-17693357D01*
X9805357Y-17750500D01*
X9805357Y-17821929D01*
X9791071Y-17879072D01*
X9776786Y-17907643D01*
X9762500Y-17921929D01*
X9733928Y-17936214D01*
X9705357Y-17936214D01*
X9676786Y-17921929D01*
X9662500Y-17907643D01*
X9648214Y-17879072D01*
X9633928Y-17821929D01*
X9633928Y-17750500D01*
X9648214Y-17693357D01*
X9662500Y-17664786D01*
X9676786Y-17650500D01*
X9705357Y-17636214D01*
X9933928Y-17936214D02*
X9933928Y-17736214D01*
X9933928Y-17764786D02*
X9948214Y-17750500D01*
X9976786Y-17736214D01*
X10019643Y-17736214D01*
X10048214Y-17750500D01*
X10062500Y-17779072D01*
X10062500Y-17936214D01*
X10062500Y-17779072D02*
X10076786Y-17750500D01*
X10105357Y-17736214D01*
X10148214Y-17736214D01*
X10176786Y-17750500D01*
X10191071Y-17779072D01*
X10191071Y-17936214D01*
X10333928Y-17936214D02*
X10333928Y-17736214D01*
X10333928Y-17764786D02*
X10348214Y-17750500D01*
X10376786Y-17736214D01*
X10419643Y-17736214D01*
X10448214Y-17750500D01*
X10462500Y-17779072D01*
X10462500Y-17936214D01*
X10462500Y-17779072D02*
X10476786Y-17750500D01*
X10505357Y-17736214D01*
X10548214Y-17736214D01*
X10576786Y-17750500D01*
X10591071Y-17779072D01*
X10591071Y-17936214D01*
X11176786Y-17621929D02*
X10919643Y-18007643D01*
X11562500Y-17636214D02*
X11591071Y-17636214D01*
X11619643Y-17650500D01*
X11633928Y-17664786D01*
X11648214Y-17693357D01*
X11662500Y-17750500D01*
X11662500Y-17821929D01*
X11648214Y-17879072D01*
X11633928Y-17907643D01*
X11619643Y-17921929D01*
X11591071Y-17936214D01*
X11562500Y-17936214D01*
X11533928Y-17921929D01*
X11519643Y-17907643D01*
X11505357Y-17879072D01*
X11491071Y-17821929D01*
X11491071Y-17750500D01*
X11505357Y-17693357D01*
X11519643Y-17664786D01*
X11533928Y-17650500D01*
X11562500Y-17636214D01*
X11791071Y-17907643D02*
X11805357Y-17921929D01*
X11791071Y-17936214D01*
X11776786Y-17921929D01*
X11791071Y-17907643D01*
X11791071Y-17936214D01*
X11991071Y-17636214D02*
X12019643Y-17636214D01*
X12048214Y-17650500D01*
X12062500Y-17664786D01*
X12076786Y-17693357D01*
X12091071Y-17750500D01*
X12091071Y-17821929D01*
X12076786Y-17879072D01*
X12062500Y-17907643D01*
X12048214Y-17921929D01*
X12019643Y-17936214D01*
X11991071Y-17936214D01*
X11962500Y-17921929D01*
X11948214Y-17907643D01*
X11933928Y-17879072D01*
X11919643Y-17821929D01*
X11919643Y-17750500D01*
X11933928Y-17693357D01*
X11948214Y-17664786D01*
X11962500Y-17650500D01*
X11991071Y-17636214D01*
X12205357Y-17664786D02*
X12219643Y-17650500D01*
X12248214Y-17636214D01*
X12319643Y-17636214D01*
X12348214Y-17650500D01*
X12362500Y-17664786D01*
X12376786Y-17693357D01*
X12376786Y-17721929D01*
X12362500Y-17764786D01*
X12191071Y-17936214D01*
X12376786Y-17936214D01*
X12633928Y-17736214D02*
X12633928Y-17936214D01*
X12562500Y-17621929D02*
X12491071Y-17836214D01*
X12676786Y-17836214D01*
X12776786Y-17636214D02*
X12776786Y-17693357D01*
X12891071Y-17636214D02*
X12891071Y-17693357D01*
X13333928Y-18050500D02*
X13319643Y-18036214D01*
X13291071Y-17993357D01*
X13276786Y-17964786D01*
X13262500Y-17921929D01*
X13248214Y-17850500D01*
X13248214Y-17793357D01*
X13262500Y-17721929D01*
X13276786Y-17679072D01*
X13291071Y-17650500D01*
X13319643Y-17607643D01*
X13333928Y-17593357D01*
X13505357Y-17636214D02*
X13533928Y-17636214D01*
X13562500Y-17650500D01*
X13576786Y-17664786D01*
X13591071Y-17693357D01*
X13605357Y-17750500D01*
X13605357Y-17821929D01*
X13591071Y-17879072D01*
X13576786Y-17907643D01*
X13562500Y-17921929D01*
X13533928Y-17936214D01*
X13505357Y-17936214D01*
X13476786Y-17921929D01*
X13462500Y-17907643D01*
X13448214Y-17879072D01*
X13433928Y-17821929D01*
X13433928Y-17750500D01*
X13448214Y-17693357D01*
X13462500Y-17664786D01*
X13476786Y-17650500D01*
X13505357Y-17636214D01*
X13962500Y-17936214D02*
X13962500Y-17636214D01*
X14091071Y-17936214D02*
X14091071Y-17779072D01*
X14076786Y-17750500D01*
X14048214Y-17736214D01*
X14005357Y-17736214D01*
X13976786Y-17750500D01*
X13962500Y-17764786D01*
X14276786Y-17936214D02*
X14248214Y-17921929D01*
X14233928Y-17907643D01*
X14219643Y-17879072D01*
X14219643Y-17793357D01*
X14233928Y-17764786D01*
X14248214Y-17750500D01*
X14276786Y-17736214D01*
X14319643Y-17736214D01*
X14348214Y-17750500D01*
X14362500Y-17764786D01*
X14376786Y-17793357D01*
X14376786Y-17879072D01*
X14362500Y-17907643D01*
X14348214Y-17921929D01*
X14319643Y-17936214D01*
X14276786Y-17936214D01*
X14548214Y-17936214D02*
X14519643Y-17921929D01*
X14505357Y-17893357D01*
X14505357Y-17636214D01*
X14776786Y-17921929D02*
X14748214Y-17936214D01*
X14691071Y-17936214D01*
X14662500Y-17921929D01*
X14648214Y-17893357D01*
X14648214Y-17779072D01*
X14662500Y-17750500D01*
X14691071Y-17736214D01*
X14748214Y-17736214D01*
X14776786Y-17750500D01*
X14791071Y-17779072D01*
X14791071Y-17807643D01*
X14648214Y-17836214D01*
X14905357Y-17921929D02*
X14933928Y-17936214D01*
X14991071Y-17936214D01*
X15019643Y-17921929D01*
X15033928Y-17893357D01*
X15033928Y-17879072D01*
X15019643Y-17850500D01*
X14991071Y-17836214D01*
X14948214Y-17836214D01*
X14919643Y-17821929D01*
X14905357Y-17793357D01*
X14905357Y-17779072D01*
X14919643Y-17750500D01*
X14948214Y-17736214D01*
X14991071Y-17736214D01*
X15019643Y-17750500D01*
X15391071Y-17821929D02*
X15619643Y-17821929D01*
X15505357Y-17936214D02*
X15505357Y-17707643D01*
X16119643Y-17736214D02*
X16119643Y-17936214D01*
X16048214Y-17621929D02*
X15976786Y-17836214D01*
X16162500Y-17836214D01*
X16491071Y-17921929D02*
X16519643Y-17936214D01*
X16576786Y-17936214D01*
X16605357Y-17921929D01*
X16619643Y-17893357D01*
X16619643Y-17879072D01*
X16605357Y-17850500D01*
X16576786Y-17836214D01*
X16533928Y-17836214D01*
X16505357Y-17821929D01*
X16491071Y-17793357D01*
X16491071Y-17779072D01*
X16505357Y-17750500D01*
X16533928Y-17736214D01*
X16576786Y-17736214D01*
X16605357Y-17750500D01*
X16791071Y-17936214D02*
X16762500Y-17921929D01*
X16748214Y-17893357D01*
X16748214Y-17636214D01*
X16948214Y-17936214D02*
X16919643Y-17921929D01*
X16905357Y-17907643D01*
X16891071Y-17879072D01*
X16891071Y-17793357D01*
X16905357Y-17764786D01*
X16919643Y-17750500D01*
X16948214Y-17736214D01*
X16991071Y-17736214D01*
X17019643Y-17750500D01*
X17033928Y-17764786D01*
X17048214Y-17793357D01*
X17048214Y-17879072D01*
X17033928Y-17907643D01*
X17019643Y-17921929D01*
X16991071Y-17936214D01*
X16948214Y-17936214D01*
X17133928Y-17736214D02*
X17248214Y-17736214D01*
X17176786Y-17636214D02*
X17176786Y-17893357D01*
X17191071Y-17921929D01*
X17219643Y-17936214D01*
X17248214Y-17936214D01*
X17333928Y-17921929D02*
X17362500Y-17936214D01*
X17419643Y-17936214D01*
X17448214Y-17921929D01*
X17462500Y-17893357D01*
X17462500Y-17879072D01*
X17448214Y-17850500D01*
X17419643Y-17836214D01*
X17376786Y-17836214D01*
X17348214Y-17821929D01*
X17333928Y-17793357D01*
X17333928Y-17779072D01*
X17348214Y-17750500D01*
X17376786Y-17736214D01*
X17419643Y-17736214D01*
X17448214Y-17750500D01*
X17562500Y-18050500D02*
X17576786Y-18036214D01*
X17605357Y-17993357D01*
X17619643Y-17964786D01*
X17633928Y-17921929D01*
X17648214Y-17850500D01*
X17648214Y-17793357D01*
X17633928Y-17721929D01*
X17619643Y-17679072D01*
X17605357Y-17650500D01*
X17576786Y-17607643D01*
X17562500Y-17593357D01*
X8615000Y-18229000D02*
X8647500Y-18196500D01*
X8615000Y-18164000D01*
X8582500Y-18196500D01*
X8615000Y-18229000D01*
X8991071Y-18032214D02*
X9019643Y-18032214D01*
X9048214Y-18046500D01*
X9062500Y-18060786D01*
X9076786Y-18089357D01*
X9091071Y-18146500D01*
X9091071Y-18217929D01*
X9076786Y-18275072D01*
X9062500Y-18303643D01*
X9048214Y-18317929D01*
X9019643Y-18332214D01*
X8991071Y-18332214D01*
X8962500Y-18317929D01*
X8948214Y-18303643D01*
X8933928Y-18275072D01*
X8919643Y-18217929D01*
X8919643Y-18146500D01*
X8933928Y-18089357D01*
X8948214Y-18060786D01*
X8962500Y-18046500D01*
X8991071Y-18032214D01*
X9219643Y-18303643D02*
X9233928Y-18317929D01*
X9219643Y-18332214D01*
X9205357Y-18317929D01*
X9219643Y-18303643D01*
X9219643Y-18332214D01*
X9491071Y-18032214D02*
X9433928Y-18032214D01*
X9405357Y-18046500D01*
X9391071Y-18060786D01*
X9362500Y-18103643D01*
X9348214Y-18160786D01*
X9348214Y-18275072D01*
X9362500Y-18303643D01*
X9376786Y-18317929D01*
X9405357Y-18332214D01*
X9462500Y-18332214D01*
X9491071Y-18317929D01*
X9505357Y-18303643D01*
X9519643Y-18275072D01*
X9519643Y-18203643D01*
X9505357Y-18175072D01*
X9491071Y-18160786D01*
X9462500Y-18146500D01*
X9405357Y-18146500D01*
X9376786Y-18160786D01*
X9362500Y-18175072D01*
X9348214Y-18203643D01*
X9791071Y-18032214D02*
X9648214Y-18032214D01*
X9633928Y-18175072D01*
X9648214Y-18160786D01*
X9676786Y-18146500D01*
X9748214Y-18146500D01*
X9776786Y-18160786D01*
X9791071Y-18175072D01*
X9805357Y-18203643D01*
X9805357Y-18275072D01*
X9791071Y-18303643D01*
X9776786Y-18317929D01*
X9748214Y-18332214D01*
X9676786Y-18332214D01*
X9648214Y-18317929D01*
X9633928Y-18303643D01*
X9933928Y-18332214D02*
X9933928Y-18132214D01*
X9933928Y-18160786D02*
X9948214Y-18146500D01*
X9976786Y-18132214D01*
X10019643Y-18132214D01*
X10048214Y-18146500D01*
X10062500Y-18175072D01*
X10062500Y-18332214D01*
X10062500Y-18175072D02*
X10076786Y-18146500D01*
X10105357Y-18132214D01*
X10148214Y-18132214D01*
X10176786Y-18146500D01*
X10191071Y-18175072D01*
X10191071Y-18332214D01*
X10333928Y-18332214D02*
X10333928Y-18132214D01*
X10333928Y-18160786D02*
X10348214Y-18146500D01*
X10376786Y-18132214D01*
X10419643Y-18132214D01*
X10448214Y-18146500D01*
X10462500Y-18175072D01*
X10462500Y-18332214D01*
X10462500Y-18175072D02*
X10476786Y-18146500D01*
X10505357Y-18132214D01*
X10548214Y-18132214D01*
X10576786Y-18146500D01*
X10591071Y-18175072D01*
X10591071Y-18332214D01*
X11176786Y-18017929D02*
X10919643Y-18403643D01*
X11562500Y-18032214D02*
X11591071Y-18032214D01*
X11619643Y-18046500D01*
X11633928Y-18060786D01*
X11648214Y-18089357D01*
X11662500Y-18146500D01*
X11662500Y-18217929D01*
X11648214Y-18275072D01*
X11633928Y-18303643D01*
X11619643Y-18317929D01*
X11591071Y-18332214D01*
X11562500Y-18332214D01*
X11533928Y-18317929D01*
X11519643Y-18303643D01*
X11505357Y-18275072D01*
X11491071Y-18217929D01*
X11491071Y-18146500D01*
X11505357Y-18089357D01*
X11519643Y-18060786D01*
X11533928Y-18046500D01*
X11562500Y-18032214D01*
X11791071Y-18303643D02*
X11805357Y-18317929D01*
X11791071Y-18332214D01*
X11776786Y-18317929D01*
X11791071Y-18303643D01*
X11791071Y-18332214D01*
X11991071Y-18032214D02*
X12019643Y-18032214D01*
X12048214Y-18046500D01*
X12062500Y-18060786D01*
X12076786Y-18089357D01*
X12091071Y-18146500D01*
X12091071Y-18217929D01*
X12076786Y-18275072D01*
X12062500Y-18303643D01*
X12048214Y-18317929D01*
X12019643Y-18332214D01*
X11991071Y-18332214D01*
X11962500Y-18317929D01*
X11948214Y-18303643D01*
X11933928Y-18275072D01*
X11919643Y-18217929D01*
X11919643Y-18146500D01*
X11933928Y-18089357D01*
X11948214Y-18060786D01*
X11962500Y-18046500D01*
X11991071Y-18032214D01*
X12205357Y-18060786D02*
X12219643Y-18046500D01*
X12248214Y-18032214D01*
X12319643Y-18032214D01*
X12348214Y-18046500D01*
X12362500Y-18060786D01*
X12376786Y-18089357D01*
X12376786Y-18117929D01*
X12362500Y-18160786D01*
X12191071Y-18332214D01*
X12376786Y-18332214D01*
X12633928Y-18032214D02*
X12576786Y-18032214D01*
X12548214Y-18046500D01*
X12533928Y-18060786D01*
X12505357Y-18103643D01*
X12491071Y-18160786D01*
X12491071Y-18275072D01*
X12505357Y-18303643D01*
X12519643Y-18317929D01*
X12548214Y-18332214D01*
X12605357Y-18332214D01*
X12633928Y-18317929D01*
X12648214Y-18303643D01*
X12662500Y-18275072D01*
X12662500Y-18203643D01*
X12648214Y-18175072D01*
X12633928Y-18160786D01*
X12605357Y-18146500D01*
X12548214Y-18146500D01*
X12519643Y-18160786D01*
X12505357Y-18175072D01*
X12491071Y-18203643D01*
X12776786Y-18032214D02*
X12776786Y-18089357D01*
X12891071Y-18032214D02*
X12891071Y-18089357D01*
X13333928Y-18446500D02*
X13319643Y-18432214D01*
X13291071Y-18389357D01*
X13276786Y-18360786D01*
X13262500Y-18317929D01*
X13248214Y-18246500D01*
X13248214Y-18189357D01*
X13262500Y-18117929D01*
X13276786Y-18075072D01*
X13291071Y-18046500D01*
X13319643Y-18003643D01*
X13333928Y-17989357D01*
X13605357Y-18332214D02*
X13433928Y-18332214D01*
X13519643Y-18332214D02*
X13519643Y-18032214D01*
X13491071Y-18075072D01*
X13462500Y-18103643D01*
X13433928Y-18117929D01*
X13791071Y-18032214D02*
X13819643Y-18032214D01*
X13848214Y-18046500D01*
X13862500Y-18060786D01*
X13876786Y-18089357D01*
X13891071Y-18146500D01*
X13891071Y-18217929D01*
X13876786Y-18275072D01*
X13862500Y-18303643D01*
X13848214Y-18317929D01*
X13819643Y-18332214D01*
X13791071Y-18332214D01*
X13762500Y-18317929D01*
X13748214Y-18303643D01*
X13733928Y-18275072D01*
X13719643Y-18217929D01*
X13719643Y-18146500D01*
X13733928Y-18089357D01*
X13748214Y-18060786D01*
X13762500Y-18046500D01*
X13791071Y-18032214D01*
X14248214Y-18332214D02*
X14248214Y-18032214D01*
X14376786Y-18332214D02*
X14376786Y-18175072D01*
X14362500Y-18146500D01*
X14333928Y-18132214D01*
X14291071Y-18132214D01*
X14262500Y-18146500D01*
X14248214Y-18160786D01*
X14562500Y-18332214D02*
X14533928Y-18317929D01*
X14519643Y-18303643D01*
X14505357Y-18275072D01*
X14505357Y-18189357D01*
X14519643Y-18160786D01*
X14533928Y-18146500D01*
X14562500Y-18132214D01*
X14605357Y-18132214D01*
X14633928Y-18146500D01*
X14648214Y-18160786D01*
X14662500Y-18189357D01*
X14662500Y-18275072D01*
X14648214Y-18303643D01*
X14633928Y-18317929D01*
X14605357Y-18332214D01*
X14562500Y-18332214D01*
X14833928Y-18332214D02*
X14805357Y-18317929D01*
X14791071Y-18289357D01*
X14791071Y-18032214D01*
X15062500Y-18317929D02*
X15033928Y-18332214D01*
X14976786Y-18332214D01*
X14948214Y-18317929D01*
X14933928Y-18289357D01*
X14933928Y-18175072D01*
X14948214Y-18146500D01*
X14976786Y-18132214D01*
X15033928Y-18132214D01*
X15062500Y-18146500D01*
X15076786Y-18175072D01*
X15076786Y-18203643D01*
X14933928Y-18232214D01*
X15191071Y-18317929D02*
X15219643Y-18332214D01*
X15276786Y-18332214D01*
X15305357Y-18317929D01*
X15319643Y-18289357D01*
X15319643Y-18275072D01*
X15305357Y-18246500D01*
X15276786Y-18232214D01*
X15233928Y-18232214D01*
X15205357Y-18217929D01*
X15191071Y-18189357D01*
X15191071Y-18175072D01*
X15205357Y-18146500D01*
X15233928Y-18132214D01*
X15276786Y-18132214D01*
X15305357Y-18146500D01*
X15419643Y-18446500D02*
X15433928Y-18432214D01*
X15462500Y-18389357D01*
X15476786Y-18360786D01*
X15491071Y-18317929D01*
X15505357Y-18246500D01*
X15505357Y-18189357D01*
X15491071Y-18117929D01*
X15476786Y-18075072D01*
X15462500Y-18046500D01*
X15433928Y-18003643D01*
X15419643Y-17989357D01*
X8567500Y-18552500D02*
X8647500Y-18632500D01*
X8647500Y-18552500D02*
X8567500Y-18632500D01*
X8647500Y-18592500D02*
G75*
G03X8647500Y-18592500I-40000J0D01*
G01*
X8991071Y-18428214D02*
X9019643Y-18428214D01*
X9048214Y-18442500D01*
X9062500Y-18456786D01*
X9076786Y-18485357D01*
X9091071Y-18542500D01*
X9091071Y-18613929D01*
X9076786Y-18671072D01*
X9062500Y-18699643D01*
X9048214Y-18713929D01*
X9019643Y-18728214D01*
X8991071Y-18728214D01*
X8962500Y-18713929D01*
X8948214Y-18699643D01*
X8933928Y-18671072D01*
X8919643Y-18613929D01*
X8919643Y-18542500D01*
X8933928Y-18485357D01*
X8948214Y-18456786D01*
X8962500Y-18442500D01*
X8991071Y-18428214D01*
X9219643Y-18699643D02*
X9233928Y-18713929D01*
X9219643Y-18728214D01*
X9205357Y-18713929D01*
X9219643Y-18699643D01*
X9219643Y-18728214D01*
X9405357Y-18556786D02*
X9376786Y-18542500D01*
X9362500Y-18528214D01*
X9348214Y-18499643D01*
X9348214Y-18485357D01*
X9362500Y-18456786D01*
X9376786Y-18442500D01*
X9405357Y-18428214D01*
X9462500Y-18428214D01*
X9491071Y-18442500D01*
X9505357Y-18456786D01*
X9519643Y-18485357D01*
X9519643Y-18499643D01*
X9505357Y-18528214D01*
X9491071Y-18542500D01*
X9462500Y-18556786D01*
X9405357Y-18556786D01*
X9376786Y-18571072D01*
X9362500Y-18585357D01*
X9348214Y-18613929D01*
X9348214Y-18671072D01*
X9362500Y-18699643D01*
X9376786Y-18713929D01*
X9405357Y-18728214D01*
X9462500Y-18728214D01*
X9491071Y-18713929D01*
X9505357Y-18699643D01*
X9519643Y-18671072D01*
X9519643Y-18613929D01*
X9505357Y-18585357D01*
X9491071Y-18571072D01*
X9462500Y-18556786D01*
X9705357Y-18428214D02*
X9733928Y-18428214D01*
X9762500Y-18442500D01*
X9776786Y-18456786D01*
X9791071Y-18485357D01*
X9805357Y-18542500D01*
X9805357Y-18613929D01*
X9791071Y-18671072D01*
X9776786Y-18699643D01*
X9762500Y-18713929D01*
X9733928Y-18728214D01*
X9705357Y-18728214D01*
X9676786Y-18713929D01*
X9662500Y-18699643D01*
X9648214Y-18671072D01*
X9633928Y-18613929D01*
X9633928Y-18542500D01*
X9648214Y-18485357D01*
X9662500Y-18456786D01*
X9676786Y-18442500D01*
X9705357Y-18428214D01*
X9933928Y-18728214D02*
X9933928Y-18528214D01*
X9933928Y-18556786D02*
X9948214Y-18542500D01*
X9976786Y-18528214D01*
X10019643Y-18528214D01*
X10048214Y-18542500D01*
X10062500Y-18571072D01*
X10062500Y-18728214D01*
X10062500Y-18571072D02*
X10076786Y-18542500D01*
X10105357Y-18528214D01*
X10148214Y-18528214D01*
X10176786Y-18542500D01*
X10191071Y-18571072D01*
X10191071Y-18728214D01*
X10333928Y-18728214D02*
X10333928Y-18528214D01*
X10333928Y-18556786D02*
X10348214Y-18542500D01*
X10376786Y-18528214D01*
X10419643Y-18528214D01*
X10448214Y-18542500D01*
X10462500Y-18571072D01*
X10462500Y-18728214D01*
X10462500Y-18571072D02*
X10476786Y-18542500D01*
X10505357Y-18528214D01*
X10548214Y-18528214D01*
X10576786Y-18542500D01*
X10591071Y-18571072D01*
X10591071Y-18728214D01*
X11176786Y-18413929D02*
X10919643Y-18799643D01*
X11562500Y-18428214D02*
X11591071Y-18428214D01*
X11619643Y-18442500D01*
X11633928Y-18456786D01*
X11648214Y-18485357D01*
X11662500Y-18542500D01*
X11662500Y-18613929D01*
X11648214Y-18671072D01*
X11633928Y-18699643D01*
X11619643Y-18713929D01*
X11591071Y-18728214D01*
X11562500Y-18728214D01*
X11533928Y-18713929D01*
X11519643Y-18699643D01*
X11505357Y-18671072D01*
X11491071Y-18613929D01*
X11491071Y-18542500D01*
X11505357Y-18485357D01*
X11519643Y-18456786D01*
X11533928Y-18442500D01*
X11562500Y-18428214D01*
X11791071Y-18699643D02*
X11805357Y-18713929D01*
X11791071Y-18728214D01*
X11776786Y-18713929D01*
X11791071Y-18699643D01*
X11791071Y-18728214D01*
X11991071Y-18428214D02*
X12019643Y-18428214D01*
X12048214Y-18442500D01*
X12062500Y-18456786D01*
X12076786Y-18485357D01*
X12091071Y-18542500D01*
X12091071Y-18613929D01*
X12076786Y-18671072D01*
X12062500Y-18699643D01*
X12048214Y-18713929D01*
X12019643Y-18728214D01*
X11991071Y-18728214D01*
X11962500Y-18713929D01*
X11948214Y-18699643D01*
X11933928Y-18671072D01*
X11919643Y-18613929D01*
X11919643Y-18542500D01*
X11933928Y-18485357D01*
X11948214Y-18456786D01*
X11962500Y-18442500D01*
X11991071Y-18428214D01*
X12191071Y-18428214D02*
X12376786Y-18428214D01*
X12276786Y-18542500D01*
X12319643Y-18542500D01*
X12348214Y-18556786D01*
X12362500Y-18571072D01*
X12376786Y-18599643D01*
X12376786Y-18671072D01*
X12362500Y-18699643D01*
X12348214Y-18713929D01*
X12319643Y-18728214D01*
X12233928Y-18728214D01*
X12205357Y-18713929D01*
X12191071Y-18699643D01*
X12662500Y-18728214D02*
X12491071Y-18728214D01*
X12576786Y-18728214D02*
X12576786Y-18428214D01*
X12548214Y-18471072D01*
X12519643Y-18499643D01*
X12491071Y-18513929D01*
X12776786Y-18428214D02*
X12776786Y-18485357D01*
X12891071Y-18428214D02*
X12891071Y-18485357D01*
X13333928Y-18842500D02*
X13319643Y-18828214D01*
X13291071Y-18785357D01*
X13276786Y-18756786D01*
X13262500Y-18713929D01*
X13248214Y-18642500D01*
X13248214Y-18585357D01*
X13262500Y-18513929D01*
X13276786Y-18471072D01*
X13291071Y-18442500D01*
X13319643Y-18399643D01*
X13333928Y-18385357D01*
X13605357Y-18728214D02*
X13433928Y-18728214D01*
X13519643Y-18728214D02*
X13519643Y-18428214D01*
X13491071Y-18471072D01*
X13462500Y-18499643D01*
X13433928Y-18513929D01*
X13962500Y-18728214D02*
X13962500Y-18428214D01*
X14091071Y-18728214D02*
X14091071Y-18571072D01*
X14076786Y-18542500D01*
X14048214Y-18528214D01*
X14005357Y-18528214D01*
X13976786Y-18542500D01*
X13962500Y-18556786D01*
X14276786Y-18728214D02*
X14248214Y-18713929D01*
X14233928Y-18699643D01*
X14219643Y-18671072D01*
X14219643Y-18585357D01*
X14233928Y-18556786D01*
X14248214Y-18542500D01*
X14276786Y-18528214D01*
X14319643Y-18528214D01*
X14348214Y-18542500D01*
X14362500Y-18556786D01*
X14376786Y-18585357D01*
X14376786Y-18671072D01*
X14362500Y-18699643D01*
X14348214Y-18713929D01*
X14319643Y-18728214D01*
X14276786Y-18728214D01*
X14548214Y-18728214D02*
X14519643Y-18713929D01*
X14505357Y-18685357D01*
X14505357Y-18428214D01*
X14776786Y-18713929D02*
X14748214Y-18728214D01*
X14691071Y-18728214D01*
X14662500Y-18713929D01*
X14648214Y-18685357D01*
X14648214Y-18571072D01*
X14662500Y-18542500D01*
X14691071Y-18528214D01*
X14748214Y-18528214D01*
X14776786Y-18542500D01*
X14791071Y-18571072D01*
X14791071Y-18599643D01*
X14648214Y-18628214D01*
X14891071Y-18842500D02*
X14905357Y-18828214D01*
X14933928Y-18785357D01*
X14948214Y-18756786D01*
X14962500Y-18713929D01*
X14976786Y-18642500D01*
X14976786Y-18585357D01*
X14962500Y-18513929D01*
X14948214Y-18471072D01*
X14933928Y-18442500D01*
X14905357Y-18399643D01*
X14891071Y-18385357D01*
X8557500Y-18943500D02*
X8647500Y-19033500D01*
X8647500Y-18943500D02*
X8557500Y-19033500D01*
X8602500Y-18943500D02*
X8602500Y-19033500D01*
X8557500Y-18988500D02*
X8647500Y-18988500D01*
X8991071Y-18824214D02*
X9019643Y-18824214D01*
X9048214Y-18838500D01*
X9062500Y-18852786D01*
X9076786Y-18881357D01*
X9091071Y-18938500D01*
X9091071Y-19009929D01*
X9076786Y-19067072D01*
X9062500Y-19095643D01*
X9048214Y-19109929D01*
X9019643Y-19124214D01*
X8991071Y-19124214D01*
X8962500Y-19109929D01*
X8948214Y-19095643D01*
X8933928Y-19067072D01*
X8919643Y-19009929D01*
X8919643Y-18938500D01*
X8933928Y-18881357D01*
X8948214Y-18852786D01*
X8962500Y-18838500D01*
X8991071Y-18824214D01*
X9219643Y-19095643D02*
X9233928Y-19109929D01*
X9219643Y-19124214D01*
X9205357Y-19109929D01*
X9219643Y-19095643D01*
X9219643Y-19124214D01*
X9376786Y-19124214D02*
X9433928Y-19124214D01*
X9462500Y-19109929D01*
X9476786Y-19095643D01*
X9505357Y-19052786D01*
X9519643Y-18995643D01*
X9519643Y-18881357D01*
X9505357Y-18852786D01*
X9491071Y-18838500D01*
X9462500Y-18824214D01*
X9405357Y-18824214D01*
X9376786Y-18838500D01*
X9362500Y-18852786D01*
X9348214Y-18881357D01*
X9348214Y-18952786D01*
X9362500Y-18981357D01*
X9376786Y-18995643D01*
X9405357Y-19009929D01*
X9462500Y-19009929D01*
X9491071Y-18995643D01*
X9505357Y-18981357D01*
X9519643Y-18952786D01*
X9705357Y-18824214D02*
X9733928Y-18824214D01*
X9762500Y-18838500D01*
X9776786Y-18852786D01*
X9791071Y-18881357D01*
X9805357Y-18938500D01*
X9805357Y-19009929D01*
X9791071Y-19067072D01*
X9776786Y-19095643D01*
X9762500Y-19109929D01*
X9733928Y-19124214D01*
X9705357Y-19124214D01*
X9676786Y-19109929D01*
X9662500Y-19095643D01*
X9648214Y-19067072D01*
X9633928Y-19009929D01*
X9633928Y-18938500D01*
X9648214Y-18881357D01*
X9662500Y-18852786D01*
X9676786Y-18838500D01*
X9705357Y-18824214D01*
X9933928Y-19124214D02*
X9933928Y-18924214D01*
X9933928Y-18952786D02*
X9948214Y-18938500D01*
X9976786Y-18924214D01*
X10019643Y-18924214D01*
X10048214Y-18938500D01*
X10062500Y-18967072D01*
X10062500Y-19124214D01*
X10062500Y-18967072D02*
X10076786Y-18938500D01*
X10105357Y-18924214D01*
X10148214Y-18924214D01*
X10176786Y-18938500D01*
X10191071Y-18967072D01*
X10191071Y-19124214D01*
X10333928Y-19124214D02*
X10333928Y-18924214D01*
X10333928Y-18952786D02*
X10348214Y-18938500D01*
X10376786Y-18924214D01*
X10419643Y-18924214D01*
X10448214Y-18938500D01*
X10462500Y-18967072D01*
X10462500Y-19124214D01*
X10462500Y-18967072D02*
X10476786Y-18938500D01*
X10505357Y-18924214D01*
X10548214Y-18924214D01*
X10576786Y-18938500D01*
X10591071Y-18967072D01*
X10591071Y-19124214D01*
X11176786Y-18809929D02*
X10919643Y-19195643D01*
X11562500Y-18824214D02*
X11591071Y-18824214D01*
X11619643Y-18838500D01*
X11633928Y-18852786D01*
X11648214Y-18881357D01*
X11662500Y-18938500D01*
X11662500Y-19009929D01*
X11648214Y-19067072D01*
X11633928Y-19095643D01*
X11619643Y-19109929D01*
X11591071Y-19124214D01*
X11562500Y-19124214D01*
X11533928Y-19109929D01*
X11519643Y-19095643D01*
X11505357Y-19067072D01*
X11491071Y-19009929D01*
X11491071Y-18938500D01*
X11505357Y-18881357D01*
X11519643Y-18852786D01*
X11533928Y-18838500D01*
X11562500Y-18824214D01*
X11791071Y-19095643D02*
X11805357Y-19109929D01*
X11791071Y-19124214D01*
X11776786Y-19109929D01*
X11791071Y-19095643D01*
X11791071Y-19124214D01*
X11991071Y-18824214D02*
X12019643Y-18824214D01*
X12048214Y-18838500D01*
X12062500Y-18852786D01*
X12076786Y-18881357D01*
X12091071Y-18938500D01*
X12091071Y-19009929D01*
X12076786Y-19067072D01*
X12062500Y-19095643D01*
X12048214Y-19109929D01*
X12019643Y-19124214D01*
X11991071Y-19124214D01*
X11962500Y-19109929D01*
X11948214Y-19095643D01*
X11933928Y-19067072D01*
X11919643Y-19009929D01*
X11919643Y-18938500D01*
X11933928Y-18881357D01*
X11948214Y-18852786D01*
X11962500Y-18838500D01*
X11991071Y-18824214D01*
X12191071Y-18824214D02*
X12376786Y-18824214D01*
X12276786Y-18938500D01*
X12319643Y-18938500D01*
X12348214Y-18952786D01*
X12362500Y-18967072D01*
X12376786Y-18995643D01*
X12376786Y-19067072D01*
X12362500Y-19095643D01*
X12348214Y-19109929D01*
X12319643Y-19124214D01*
X12233928Y-19124214D01*
X12205357Y-19109929D01*
X12191071Y-19095643D01*
X12648214Y-18824214D02*
X12505357Y-18824214D01*
X12491071Y-18967072D01*
X12505357Y-18952786D01*
X12533928Y-18938500D01*
X12605357Y-18938500D01*
X12633928Y-18952786D01*
X12648214Y-18967072D01*
X12662500Y-18995643D01*
X12662500Y-19067072D01*
X12648214Y-19095643D01*
X12633928Y-19109929D01*
X12605357Y-19124214D01*
X12533928Y-19124214D01*
X12505357Y-19109929D01*
X12491071Y-19095643D01*
X12776786Y-18824214D02*
X12776786Y-18881357D01*
X12891071Y-18824214D02*
X12891071Y-18881357D01*
X13333928Y-19238500D02*
X13319643Y-19224214D01*
X13291071Y-19181357D01*
X13276786Y-19152786D01*
X13262500Y-19109929D01*
X13248214Y-19038500D01*
X13248214Y-18981357D01*
X13262500Y-18909929D01*
X13276786Y-18867072D01*
X13291071Y-18838500D01*
X13319643Y-18795643D01*
X13333928Y-18781357D01*
X13605357Y-19124214D02*
X13433928Y-19124214D01*
X13519643Y-19124214D02*
X13519643Y-18824214D01*
X13491071Y-18867072D01*
X13462500Y-18895643D01*
X13433928Y-18909929D01*
X13776786Y-18952786D02*
X13748214Y-18938500D01*
X13733928Y-18924214D01*
X13719643Y-18895643D01*
X13719643Y-18881357D01*
X13733928Y-18852786D01*
X13748214Y-18838500D01*
X13776786Y-18824214D01*
X13833928Y-18824214D01*
X13862500Y-18838500D01*
X13876786Y-18852786D01*
X13891071Y-18881357D01*
X13891071Y-18895643D01*
X13876786Y-18924214D01*
X13862500Y-18938500D01*
X13833928Y-18952786D01*
X13776786Y-18952786D01*
X13748214Y-18967072D01*
X13733928Y-18981357D01*
X13719643Y-19009929D01*
X13719643Y-19067072D01*
X13733928Y-19095643D01*
X13748214Y-19109929D01*
X13776786Y-19124214D01*
X13833928Y-19124214D01*
X13862500Y-19109929D01*
X13876786Y-19095643D01*
X13891071Y-19067072D01*
X13891071Y-19009929D01*
X13876786Y-18981357D01*
X13862500Y-18967072D01*
X13833928Y-18952786D01*
X14248214Y-19124214D02*
X14248214Y-18824214D01*
X14376786Y-19124214D02*
X14376786Y-18967072D01*
X14362500Y-18938500D01*
X14333928Y-18924214D01*
X14291071Y-18924214D01*
X14262500Y-18938500D01*
X14248214Y-18952786D01*
X14562500Y-19124214D02*
X14533928Y-19109929D01*
X14519643Y-19095643D01*
X14505357Y-19067072D01*
X14505357Y-18981357D01*
X14519643Y-18952786D01*
X14533928Y-18938500D01*
X14562500Y-18924214D01*
X14605357Y-18924214D01*
X14633928Y-18938500D01*
X14648214Y-18952786D01*
X14662500Y-18981357D01*
X14662500Y-19067072D01*
X14648214Y-19095643D01*
X14633928Y-19109929D01*
X14605357Y-19124214D01*
X14562500Y-19124214D01*
X14833928Y-19124214D02*
X14805357Y-19109929D01*
X14791071Y-19081357D01*
X14791071Y-18824214D01*
X15062500Y-19109929D02*
X15033928Y-19124214D01*
X14976786Y-19124214D01*
X14948214Y-19109929D01*
X14933928Y-19081357D01*
X14933928Y-18967072D01*
X14948214Y-18938500D01*
X14976786Y-18924214D01*
X15033928Y-18924214D01*
X15062500Y-18938500D01*
X15076786Y-18967072D01*
X15076786Y-18995643D01*
X14933928Y-19024214D01*
X15191071Y-19109929D02*
X15219643Y-19124214D01*
X15276786Y-19124214D01*
X15305357Y-19109929D01*
X15319643Y-19081357D01*
X15319643Y-19067072D01*
X15305357Y-19038500D01*
X15276786Y-19024214D01*
X15233928Y-19024214D01*
X15205357Y-19009929D01*
X15191071Y-18981357D01*
X15191071Y-18967072D01*
X15205357Y-18938500D01*
X15233928Y-18924214D01*
X15276786Y-18924214D01*
X15305357Y-18938500D01*
X15419643Y-19238500D02*
X15433928Y-19224214D01*
X15462500Y-19181357D01*
X15476786Y-19152786D01*
X15491071Y-19109929D01*
X15505357Y-19038500D01*
X15505357Y-18981357D01*
X15491071Y-18909929D01*
X15476786Y-18867072D01*
X15462500Y-18838500D01*
X15433928Y-18795643D01*
X15419643Y-18781357D01*
X8547500Y-19334500D02*
X8647500Y-19434500D01*
X8647500Y-19334500D02*
X8547500Y-19434500D01*
X8632856Y-19419856D02*
X8632856Y-19349144D01*
X8562144Y-19349144D01*
X8562144Y-19419856D01*
X8632856Y-19419856D01*
X9091071Y-19520214D02*
X8919643Y-19520214D01*
X9005357Y-19520214D02*
X9005357Y-19220214D01*
X8976786Y-19263072D01*
X8948214Y-19291643D01*
X8919643Y-19305929D01*
X9219643Y-19491643D02*
X9233928Y-19505929D01*
X9219643Y-19520214D01*
X9205357Y-19505929D01*
X9219643Y-19491643D01*
X9219643Y-19520214D01*
X9419643Y-19220214D02*
X9448214Y-19220214D01*
X9476786Y-19234500D01*
X9491071Y-19248786D01*
X9505357Y-19277357D01*
X9519643Y-19334500D01*
X9519643Y-19405929D01*
X9505357Y-19463072D01*
X9491071Y-19491643D01*
X9476786Y-19505929D01*
X9448214Y-19520214D01*
X9419643Y-19520214D01*
X9391071Y-19505929D01*
X9376786Y-19491643D01*
X9362500Y-19463072D01*
X9348214Y-19405929D01*
X9348214Y-19334500D01*
X9362500Y-19277357D01*
X9376786Y-19248786D01*
X9391071Y-19234500D01*
X9419643Y-19220214D01*
X9705357Y-19220214D02*
X9733928Y-19220214D01*
X9762500Y-19234500D01*
X9776786Y-19248786D01*
X9791071Y-19277357D01*
X9805357Y-19334500D01*
X9805357Y-19405929D01*
X9791071Y-19463072D01*
X9776786Y-19491643D01*
X9762500Y-19505929D01*
X9733928Y-19520214D01*
X9705357Y-19520214D01*
X9676786Y-19505929D01*
X9662500Y-19491643D01*
X9648214Y-19463072D01*
X9633928Y-19405929D01*
X9633928Y-19334500D01*
X9648214Y-19277357D01*
X9662500Y-19248786D01*
X9676786Y-19234500D01*
X9705357Y-19220214D01*
X9933928Y-19520214D02*
X9933928Y-19320214D01*
X9933928Y-19348786D02*
X9948214Y-19334500D01*
X9976786Y-19320214D01*
X10019643Y-19320214D01*
X10048214Y-19334500D01*
X10062500Y-19363072D01*
X10062500Y-19520214D01*
X10062500Y-19363072D02*
X10076786Y-19334500D01*
X10105357Y-19320214D01*
X10148214Y-19320214D01*
X10176786Y-19334500D01*
X10191071Y-19363072D01*
X10191071Y-19520214D01*
X10333928Y-19520214D02*
X10333928Y-19320214D01*
X10333928Y-19348786D02*
X10348214Y-19334500D01*
X10376786Y-19320214D01*
X10419643Y-19320214D01*
X10448214Y-19334500D01*
X10462500Y-19363072D01*
X10462500Y-19520214D01*
X10462500Y-19363072D02*
X10476786Y-19334500D01*
X10505357Y-19320214D01*
X10548214Y-19320214D01*
X10576786Y-19334500D01*
X10591071Y-19363072D01*
X10591071Y-19520214D01*
X11176786Y-19205929D02*
X10919643Y-19591643D01*
X11562500Y-19220214D02*
X11591071Y-19220214D01*
X11619643Y-19234500D01*
X11633928Y-19248786D01*
X11648214Y-19277357D01*
X11662500Y-19334500D01*
X11662500Y-19405929D01*
X11648214Y-19463072D01*
X11633928Y-19491643D01*
X11619643Y-19505929D01*
X11591071Y-19520214D01*
X11562500Y-19520214D01*
X11533928Y-19505929D01*
X11519643Y-19491643D01*
X11505357Y-19463072D01*
X11491071Y-19405929D01*
X11491071Y-19334500D01*
X11505357Y-19277357D01*
X11519643Y-19248786D01*
X11533928Y-19234500D01*
X11562500Y-19220214D01*
X11791071Y-19491643D02*
X11805357Y-19505929D01*
X11791071Y-19520214D01*
X11776786Y-19505929D01*
X11791071Y-19491643D01*
X11791071Y-19520214D01*
X11991071Y-19220214D02*
X12019643Y-19220214D01*
X12048214Y-19234500D01*
X12062500Y-19248786D01*
X12076786Y-19277357D01*
X12091071Y-19334500D01*
X12091071Y-19405929D01*
X12076786Y-19463072D01*
X12062500Y-19491643D01*
X12048214Y-19505929D01*
X12019643Y-19520214D01*
X11991071Y-19520214D01*
X11962500Y-19505929D01*
X11948214Y-19491643D01*
X11933928Y-19463072D01*
X11919643Y-19405929D01*
X11919643Y-19334500D01*
X11933928Y-19277357D01*
X11948214Y-19248786D01*
X11962500Y-19234500D01*
X11991071Y-19220214D01*
X12191071Y-19220214D02*
X12376786Y-19220214D01*
X12276786Y-19334500D01*
X12319643Y-19334500D01*
X12348214Y-19348786D01*
X12362500Y-19363072D01*
X12376786Y-19391643D01*
X12376786Y-19463072D01*
X12362500Y-19491643D01*
X12348214Y-19505929D01*
X12319643Y-19520214D01*
X12233928Y-19520214D01*
X12205357Y-19505929D01*
X12191071Y-19491643D01*
X12519643Y-19520214D02*
X12576786Y-19520214D01*
X12605357Y-19505929D01*
X12619643Y-19491643D01*
X12648214Y-19448786D01*
X12662500Y-19391643D01*
X12662500Y-19277357D01*
X12648214Y-19248786D01*
X12633928Y-19234500D01*
X12605357Y-19220214D01*
X12548214Y-19220214D01*
X12519643Y-19234500D01*
X12505357Y-19248786D01*
X12491071Y-19277357D01*
X12491071Y-19348786D01*
X12505357Y-19377357D01*
X12519643Y-19391643D01*
X12548214Y-19405929D01*
X12605357Y-19405929D01*
X12633928Y-19391643D01*
X12648214Y-19377357D01*
X12662500Y-19348786D01*
X12776786Y-19220214D02*
X12776786Y-19277357D01*
X12891071Y-19220214D02*
X12891071Y-19277357D01*
X13333928Y-19634500D02*
X13319643Y-19620214D01*
X13291071Y-19577357D01*
X13276786Y-19548786D01*
X13262500Y-19505929D01*
X13248214Y-19434500D01*
X13248214Y-19377357D01*
X13262500Y-19305929D01*
X13276786Y-19263072D01*
X13291071Y-19234500D01*
X13319643Y-19191643D01*
X13333928Y-19177357D01*
X13605357Y-19520214D02*
X13433928Y-19520214D01*
X13519643Y-19520214D02*
X13519643Y-19220214D01*
X13491071Y-19263072D01*
X13462500Y-19291643D01*
X13433928Y-19305929D01*
X13862500Y-19220214D02*
X13805357Y-19220214D01*
X13776786Y-19234500D01*
X13762500Y-19248786D01*
X13733928Y-19291643D01*
X13719643Y-19348786D01*
X13719643Y-19463072D01*
X13733928Y-19491643D01*
X13748214Y-19505929D01*
X13776786Y-19520214D01*
X13833928Y-19520214D01*
X13862500Y-19505929D01*
X13876786Y-19491643D01*
X13891071Y-19463072D01*
X13891071Y-19391643D01*
X13876786Y-19363072D01*
X13862500Y-19348786D01*
X13833928Y-19334500D01*
X13776786Y-19334500D01*
X13748214Y-19348786D01*
X13733928Y-19363072D01*
X13719643Y-19391643D01*
X14248214Y-19520214D02*
X14248214Y-19220214D01*
X14376786Y-19520214D02*
X14376786Y-19363072D01*
X14362500Y-19334500D01*
X14333928Y-19320214D01*
X14291071Y-19320214D01*
X14262500Y-19334500D01*
X14248214Y-19348786D01*
X14562500Y-19520214D02*
X14533928Y-19505929D01*
X14519643Y-19491643D01*
X14505357Y-19463072D01*
X14505357Y-19377357D01*
X14519643Y-19348786D01*
X14533928Y-19334500D01*
X14562500Y-19320214D01*
X14605357Y-19320214D01*
X14633928Y-19334500D01*
X14648214Y-19348786D01*
X14662500Y-19377357D01*
X14662500Y-19463072D01*
X14648214Y-19491643D01*
X14633928Y-19505929D01*
X14605357Y-19520214D01*
X14562500Y-19520214D01*
X14833928Y-19520214D02*
X14805357Y-19505929D01*
X14791071Y-19477357D01*
X14791071Y-19220214D01*
X15062500Y-19505929D02*
X15033928Y-19520214D01*
X14976786Y-19520214D01*
X14948214Y-19505929D01*
X14933928Y-19477357D01*
X14933928Y-19363072D01*
X14948214Y-19334500D01*
X14976786Y-19320214D01*
X15033928Y-19320214D01*
X15062500Y-19334500D01*
X15076786Y-19363072D01*
X15076786Y-19391643D01*
X14933928Y-19420214D01*
X15191071Y-19505929D02*
X15219643Y-19520214D01*
X15276786Y-19520214D01*
X15305357Y-19505929D01*
X15319643Y-19477357D01*
X15319643Y-19463072D01*
X15305357Y-19434500D01*
X15276786Y-19420214D01*
X15233928Y-19420214D01*
X15205357Y-19405929D01*
X15191071Y-19377357D01*
X15191071Y-19363072D01*
X15205357Y-19334500D01*
X15233928Y-19320214D01*
X15276786Y-19320214D01*
X15305357Y-19334500D01*
X15419643Y-19634500D02*
X15433928Y-19620214D01*
X15462500Y-19577357D01*
X15476786Y-19548786D01*
X15491071Y-19505929D01*
X15505357Y-19434500D01*
X15505357Y-19377357D01*
X15491071Y-19305929D01*
X15476786Y-19263072D01*
X15462500Y-19234500D01*
X15433928Y-19191643D01*
X15419643Y-19177357D01*
X8497500Y-19705500D02*
X8647500Y-19855500D01*
X8647500Y-19705500D02*
X8497500Y-19855500D01*
X8572500Y-19855500D02*
X8647500Y-19780500D01*
X8572500Y-19705500D01*
X8497500Y-19780500D01*
X8572500Y-19855500D01*
X9091071Y-19916214D02*
X8919643Y-19916214D01*
X9005357Y-19916214D02*
X9005357Y-19616214D01*
X8976786Y-19659072D01*
X8948214Y-19687643D01*
X8919643Y-19701929D01*
X9219643Y-19887643D02*
X9233928Y-19901929D01*
X9219643Y-19916214D01*
X9205357Y-19901929D01*
X9219643Y-19887643D01*
X9219643Y-19916214D01*
X9505357Y-19616214D02*
X9362500Y-19616214D01*
X9348214Y-19759072D01*
X9362500Y-19744786D01*
X9391071Y-19730500D01*
X9462500Y-19730500D01*
X9491071Y-19744786D01*
X9505357Y-19759072D01*
X9519643Y-19787643D01*
X9519643Y-19859072D01*
X9505357Y-19887643D01*
X9491071Y-19901929D01*
X9462500Y-19916214D01*
X9391071Y-19916214D01*
X9362500Y-19901929D01*
X9348214Y-19887643D01*
X9705357Y-19616214D02*
X9733928Y-19616214D01*
X9762500Y-19630500D01*
X9776786Y-19644786D01*
X9791071Y-19673357D01*
X9805357Y-19730500D01*
X9805357Y-19801929D01*
X9791071Y-19859072D01*
X9776786Y-19887643D01*
X9762500Y-19901929D01*
X9733928Y-19916214D01*
X9705357Y-19916214D01*
X9676786Y-19901929D01*
X9662500Y-19887643D01*
X9648214Y-19859072D01*
X9633928Y-19801929D01*
X9633928Y-19730500D01*
X9648214Y-19673357D01*
X9662500Y-19644786D01*
X9676786Y-19630500D01*
X9705357Y-19616214D01*
X9933928Y-19916214D02*
X9933928Y-19716214D01*
X9933928Y-19744786D02*
X9948214Y-19730500D01*
X9976786Y-19716214D01*
X10019643Y-19716214D01*
X10048214Y-19730500D01*
X10062500Y-19759072D01*
X10062500Y-19916214D01*
X10062500Y-19759072D02*
X10076786Y-19730500D01*
X10105357Y-19716214D01*
X10148214Y-19716214D01*
X10176786Y-19730500D01*
X10191071Y-19759072D01*
X10191071Y-19916214D01*
X10333928Y-19916214D02*
X10333928Y-19716214D01*
X10333928Y-19744786D02*
X10348214Y-19730500D01*
X10376786Y-19716214D01*
X10419643Y-19716214D01*
X10448214Y-19730500D01*
X10462500Y-19759072D01*
X10462500Y-19916214D01*
X10462500Y-19759072D02*
X10476786Y-19730500D01*
X10505357Y-19716214D01*
X10548214Y-19716214D01*
X10576786Y-19730500D01*
X10591071Y-19759072D01*
X10591071Y-19916214D01*
X11176786Y-19601929D02*
X10919643Y-19987643D01*
X11562500Y-19616214D02*
X11591071Y-19616214D01*
X11619643Y-19630500D01*
X11633928Y-19644786D01*
X11648214Y-19673357D01*
X11662500Y-19730500D01*
X11662500Y-19801929D01*
X11648214Y-19859072D01*
X11633928Y-19887643D01*
X11619643Y-19901929D01*
X11591071Y-19916214D01*
X11562500Y-19916214D01*
X11533928Y-19901929D01*
X11519643Y-19887643D01*
X11505357Y-19859072D01*
X11491071Y-19801929D01*
X11491071Y-19730500D01*
X11505357Y-19673357D01*
X11519643Y-19644786D01*
X11533928Y-19630500D01*
X11562500Y-19616214D01*
X11791071Y-19887643D02*
X11805357Y-19901929D01*
X11791071Y-19916214D01*
X11776786Y-19901929D01*
X11791071Y-19887643D01*
X11791071Y-19916214D01*
X11991071Y-19616214D02*
X12019643Y-19616214D01*
X12048214Y-19630500D01*
X12062500Y-19644786D01*
X12076786Y-19673357D01*
X12091071Y-19730500D01*
X12091071Y-19801929D01*
X12076786Y-19859072D01*
X12062500Y-19887643D01*
X12048214Y-19901929D01*
X12019643Y-19916214D01*
X11991071Y-19916214D01*
X11962500Y-19901929D01*
X11948214Y-19887643D01*
X11933928Y-19859072D01*
X11919643Y-19801929D01*
X11919643Y-19730500D01*
X11933928Y-19673357D01*
X11948214Y-19644786D01*
X11962500Y-19630500D01*
X11991071Y-19616214D01*
X12362500Y-19616214D02*
X12219643Y-19616214D01*
X12205357Y-19759072D01*
X12219643Y-19744786D01*
X12248214Y-19730500D01*
X12319643Y-19730500D01*
X12348214Y-19744786D01*
X12362500Y-19759072D01*
X12376786Y-19787643D01*
X12376786Y-19859072D01*
X12362500Y-19887643D01*
X12348214Y-19901929D01*
X12319643Y-19916214D01*
X12248214Y-19916214D01*
X12219643Y-19901929D01*
X12205357Y-19887643D01*
X12519643Y-19916214D02*
X12576786Y-19916214D01*
X12605357Y-19901929D01*
X12619643Y-19887643D01*
X12648214Y-19844786D01*
X12662500Y-19787643D01*
X12662500Y-19673357D01*
X12648214Y-19644786D01*
X12633928Y-19630500D01*
X12605357Y-19616214D01*
X12548214Y-19616214D01*
X12519643Y-19630500D01*
X12505357Y-19644786D01*
X12491071Y-19673357D01*
X12491071Y-19744786D01*
X12505357Y-19773357D01*
X12519643Y-19787643D01*
X12548214Y-19801929D01*
X12605357Y-19801929D01*
X12633928Y-19787643D01*
X12648214Y-19773357D01*
X12662500Y-19744786D01*
X12776786Y-19616214D02*
X12776786Y-19673357D01*
X12891071Y-19616214D02*
X12891071Y-19673357D01*
X13333928Y-20030500D02*
X13319643Y-20016214D01*
X13291071Y-19973357D01*
X13276786Y-19944786D01*
X13262500Y-19901929D01*
X13248214Y-19830500D01*
X13248214Y-19773357D01*
X13262500Y-19701929D01*
X13276786Y-19659072D01*
X13291071Y-19630500D01*
X13319643Y-19587643D01*
X13333928Y-19573357D01*
X13605357Y-19916214D02*
X13433928Y-19916214D01*
X13519643Y-19916214D02*
X13519643Y-19616214D01*
X13491071Y-19659072D01*
X13462500Y-19687643D01*
X13433928Y-19701929D01*
X13791071Y-19616214D02*
X13819643Y-19616214D01*
X13848214Y-19630500D01*
X13862500Y-19644786D01*
X13876786Y-19673357D01*
X13891071Y-19730500D01*
X13891071Y-19801929D01*
X13876786Y-19859072D01*
X13862500Y-19887643D01*
X13848214Y-19901929D01*
X13819643Y-19916214D01*
X13791071Y-19916214D01*
X13762500Y-19901929D01*
X13748214Y-19887643D01*
X13733928Y-19859072D01*
X13719643Y-19801929D01*
X13719643Y-19730500D01*
X13733928Y-19673357D01*
X13748214Y-19644786D01*
X13762500Y-19630500D01*
X13791071Y-19616214D01*
X14248214Y-19916214D02*
X14248214Y-19616214D01*
X14376786Y-19916214D02*
X14376786Y-19759072D01*
X14362500Y-19730500D01*
X14333928Y-19716214D01*
X14291071Y-19716214D01*
X14262500Y-19730500D01*
X14248214Y-19744786D01*
X14562500Y-19916214D02*
X14533928Y-19901929D01*
X14519643Y-19887643D01*
X14505357Y-19859072D01*
X14505357Y-19773357D01*
X14519643Y-19744786D01*
X14533928Y-19730500D01*
X14562500Y-19716214D01*
X14605357Y-19716214D01*
X14633928Y-19730500D01*
X14648214Y-19744786D01*
X14662500Y-19773357D01*
X14662500Y-19859072D01*
X14648214Y-19887643D01*
X14633928Y-19901929D01*
X14605357Y-19916214D01*
X14562500Y-19916214D01*
X14833928Y-19916214D02*
X14805357Y-19901929D01*
X14791071Y-19873357D01*
X14791071Y-19616214D01*
X15062500Y-19901929D02*
X15033928Y-19916214D01*
X14976786Y-19916214D01*
X14948214Y-19901929D01*
X14933928Y-19873357D01*
X14933928Y-19759072D01*
X14948214Y-19730500D01*
X14976786Y-19716214D01*
X15033928Y-19716214D01*
X15062500Y-19730500D01*
X15076786Y-19759072D01*
X15076786Y-19787643D01*
X14933928Y-19816214D01*
X15191071Y-19901929D02*
X15219643Y-19916214D01*
X15276786Y-19916214D01*
X15305357Y-19901929D01*
X15319643Y-19873357D01*
X15319643Y-19859072D01*
X15305357Y-19830500D01*
X15276786Y-19816214D01*
X15233928Y-19816214D01*
X15205357Y-19801929D01*
X15191071Y-19773357D01*
X15191071Y-19759072D01*
X15205357Y-19730500D01*
X15233928Y-19716214D01*
X15276786Y-19716214D01*
X15305357Y-19730500D01*
X15419643Y-20030500D02*
X15433928Y-20016214D01*
X15462500Y-19973357D01*
X15476786Y-19944786D01*
X15491071Y-19901929D01*
X15505357Y-19830500D01*
X15505357Y-19773357D01*
X15491071Y-19701929D01*
X15476786Y-19659072D01*
X15462500Y-19630500D01*
X15433928Y-19587643D01*
X15419643Y-19573357D01*
M02*
