G04 #@! TF.GenerationSoftware,KiCad,Pcbnew,(5.1.5-0-10_14)*
G04 #@! TF.CreationDate,2021-01-28T08:30:45+01:00*
G04 #@! TF.ProjectId,BEASTH7_01,42454153-5448-4375-9f30-312e6b696361,rev?*
G04 #@! TF.SameCoordinates,Original*
G04 #@! TF.FileFunction,Legend,Bot*
G04 #@! TF.FilePolarity,Positive*
%FSLAX46Y46*%
G04 Gerber Fmt 4.6, Leading zero omitted, Abs format (unit mm)*
G04 Created by KiCad (PCBNEW (5.1.5-0-10_14)) date 2021-01-28 08:30:45*
%MOMM*%
%LPD*%
G04 APERTURE LIST*
%ADD10C,0.150000*%
%ADD11C,0.120000*%
G04 APERTURE END LIST*
D10*
X144892400Y-74186971D02*
X144749542Y-74234590D01*
X144701923Y-74282209D01*
X144654304Y-74377447D01*
X144654304Y-74520304D01*
X144701923Y-74615542D01*
X144749542Y-74663161D01*
X144844780Y-74710780D01*
X145225733Y-74710780D01*
X145225733Y-73710780D01*
X144892400Y-73710780D01*
X144797161Y-73758400D01*
X144749542Y-73806019D01*
X144701923Y-73901257D01*
X144701923Y-73996495D01*
X144749542Y-74091733D01*
X144797161Y-74139352D01*
X144892400Y-74186971D01*
X145225733Y-74186971D01*
X144225733Y-73710780D02*
X144225733Y-74520304D01*
X144178114Y-74615542D01*
X144130495Y-74663161D01*
X144035257Y-74710780D01*
X143844780Y-74710780D01*
X143749542Y-74663161D01*
X143701923Y-74615542D01*
X143654304Y-74520304D01*
X143654304Y-73710780D01*
X143320971Y-73710780D02*
X142749542Y-73710780D01*
X143035257Y-74710780D02*
X143035257Y-73710780D01*
X142559066Y-73710780D02*
X141987638Y-73710780D01*
X142273352Y-74710780D02*
X142273352Y-73710780D01*
X141463828Y-73710780D02*
X141273352Y-73710780D01*
X141178114Y-73758400D01*
X141082876Y-73853638D01*
X141035257Y-74044114D01*
X141035257Y-74377447D01*
X141082876Y-74567923D01*
X141178114Y-74663161D01*
X141273352Y-74710780D01*
X141463828Y-74710780D01*
X141559066Y-74663161D01*
X141654304Y-74567923D01*
X141701923Y-74377447D01*
X141701923Y-74044114D01*
X141654304Y-73853638D01*
X141559066Y-73758400D01*
X141463828Y-73710780D01*
X140606685Y-74710780D02*
X140606685Y-73710780D01*
X140035257Y-74710780D01*
X140035257Y-73710780D01*
X139559066Y-74615542D02*
X139511447Y-74663161D01*
X139559066Y-74710780D01*
X139606685Y-74663161D01*
X139559066Y-74615542D01*
X139559066Y-74710780D01*
X139559066Y-74091733D02*
X139511447Y-74139352D01*
X139559066Y-74186971D01*
X139606685Y-74139352D01*
X139559066Y-74091733D01*
X139559066Y-74186971D01*
X146559066Y-77486971D02*
X146416209Y-77534590D01*
X146368590Y-77582209D01*
X146320971Y-77677447D01*
X146320971Y-77820304D01*
X146368590Y-77915542D01*
X146416209Y-77963161D01*
X146511447Y-78010780D01*
X146892400Y-78010780D01*
X146892400Y-77010780D01*
X146559066Y-77010780D01*
X146463828Y-77058400D01*
X146416209Y-77106019D01*
X146368590Y-77201257D01*
X146368590Y-77296495D01*
X146416209Y-77391733D01*
X146463828Y-77439352D01*
X146559066Y-77486971D01*
X146892400Y-77486971D01*
X145892400Y-77010780D02*
X145892400Y-77820304D01*
X145844780Y-77915542D01*
X145797161Y-77963161D01*
X145701923Y-78010780D01*
X145511447Y-78010780D01*
X145416209Y-77963161D01*
X145368590Y-77915542D01*
X145320971Y-77820304D01*
X145320971Y-77010780D01*
X144987638Y-77010780D02*
X144416209Y-77010780D01*
X144701923Y-78010780D02*
X144701923Y-77010780D01*
X143559066Y-78010780D02*
X144130495Y-78010780D01*
X143844780Y-78010780D02*
X143844780Y-77010780D01*
X143940019Y-77153638D01*
X144035257Y-77248876D01*
X144130495Y-77296495D01*
X142368590Y-77629828D02*
X141606685Y-77629828D01*
X140368590Y-78010780D02*
X140368590Y-77010780D01*
X139987638Y-77010780D01*
X139892400Y-77058400D01*
X139844780Y-77106019D01*
X139797161Y-77201257D01*
X139797161Y-77344114D01*
X139844780Y-77439352D01*
X139892400Y-77486971D01*
X139987638Y-77534590D01*
X140368590Y-77534590D01*
X139368590Y-78010780D02*
X139368590Y-77010780D01*
X139130495Y-77010780D01*
X138987638Y-77058400D01*
X138892400Y-77153638D01*
X138844780Y-77248876D01*
X138797161Y-77439352D01*
X138797161Y-77582209D01*
X138844780Y-77772685D01*
X138892400Y-77867923D01*
X138987638Y-77963161D01*
X139130495Y-78010780D01*
X139368590Y-78010780D01*
X138416209Y-77106019D02*
X138368590Y-77058400D01*
X138273352Y-77010780D01*
X138035257Y-77010780D01*
X137940019Y-77058400D01*
X137892400Y-77106019D01*
X137844780Y-77201257D01*
X137844780Y-77296495D01*
X137892400Y-77439352D01*
X138463828Y-78010780D01*
X137844780Y-78010780D01*
X146559066Y-79136971D02*
X146416209Y-79184590D01*
X146368590Y-79232209D01*
X146320971Y-79327447D01*
X146320971Y-79470304D01*
X146368590Y-79565542D01*
X146416209Y-79613161D01*
X146511447Y-79660780D01*
X146892400Y-79660780D01*
X146892400Y-78660780D01*
X146559066Y-78660780D01*
X146463828Y-78708400D01*
X146416209Y-78756019D01*
X146368590Y-78851257D01*
X146368590Y-78946495D01*
X146416209Y-79041733D01*
X146463828Y-79089352D01*
X146559066Y-79136971D01*
X146892400Y-79136971D01*
X145892400Y-78660780D02*
X145892400Y-79470304D01*
X145844780Y-79565542D01*
X145797161Y-79613161D01*
X145701923Y-79660780D01*
X145511447Y-79660780D01*
X145416209Y-79613161D01*
X145368590Y-79565542D01*
X145320971Y-79470304D01*
X145320971Y-78660780D01*
X144987638Y-78660780D02*
X144416209Y-78660780D01*
X144701923Y-79660780D02*
X144701923Y-78660780D01*
X144130495Y-78756019D02*
X144082876Y-78708400D01*
X143987638Y-78660780D01*
X143749542Y-78660780D01*
X143654304Y-78708400D01*
X143606685Y-78756019D01*
X143559066Y-78851257D01*
X143559066Y-78946495D01*
X143606685Y-79089352D01*
X144178114Y-79660780D01*
X143559066Y-79660780D01*
X142368590Y-79279828D02*
X141606685Y-79279828D01*
X140368590Y-79660780D02*
X140368590Y-78660780D01*
X139987638Y-78660780D01*
X139892400Y-78708400D01*
X139844780Y-78756019D01*
X139797161Y-78851257D01*
X139797161Y-78994114D01*
X139844780Y-79089352D01*
X139892400Y-79136971D01*
X139987638Y-79184590D01*
X140368590Y-79184590D01*
X139368590Y-79660780D02*
X139368590Y-78660780D01*
X139130495Y-78660780D01*
X138987638Y-78708400D01*
X138892400Y-78803638D01*
X138844780Y-78898876D01*
X138797161Y-79089352D01*
X138797161Y-79232209D01*
X138844780Y-79422685D01*
X138892400Y-79517923D01*
X138987638Y-79613161D01*
X139130495Y-79660780D01*
X139368590Y-79660780D01*
X138463828Y-78660780D02*
X137844780Y-78660780D01*
X138178114Y-79041733D01*
X138035257Y-79041733D01*
X137940019Y-79089352D01*
X137892400Y-79136971D01*
X137844780Y-79232209D01*
X137844780Y-79470304D01*
X137892400Y-79565542D01*
X137940019Y-79613161D01*
X138035257Y-79660780D01*
X138320971Y-79660780D01*
X138416209Y-79613161D01*
X138463828Y-79565542D01*
X153992152Y-74737180D02*
X154468342Y-74737180D01*
X154468342Y-73737180D01*
X153658819Y-74213371D02*
X153325485Y-74213371D01*
X153182628Y-74737180D02*
X153658819Y-74737180D01*
X153658819Y-73737180D01*
X153182628Y-73737180D01*
X152754057Y-74737180D02*
X152754057Y-73737180D01*
X152515961Y-73737180D01*
X152373104Y-73784800D01*
X152277866Y-73880038D01*
X152230247Y-73975276D01*
X152182628Y-74165752D01*
X152182628Y-74308609D01*
X152230247Y-74499085D01*
X152277866Y-74594323D01*
X152373104Y-74689561D01*
X152515961Y-74737180D01*
X152754057Y-74737180D01*
X151754057Y-74641942D02*
X151706438Y-74689561D01*
X151754057Y-74737180D01*
X151801676Y-74689561D01*
X151754057Y-74641942D01*
X151754057Y-74737180D01*
X151754057Y-74118133D02*
X151706438Y-74165752D01*
X151754057Y-74213371D01*
X151801676Y-74165752D01*
X151754057Y-74118133D01*
X151754057Y-74213371D01*
X155635009Y-78037180D02*
X156206438Y-78037180D01*
X155920723Y-78037180D02*
X155920723Y-77037180D01*
X156015961Y-77180038D01*
X156111200Y-77275276D01*
X156206438Y-77322895D01*
X154444533Y-77656228D02*
X153682628Y-77656228D01*
X152444533Y-78037180D02*
X152444533Y-77037180D01*
X152063580Y-77037180D01*
X151968342Y-77084800D01*
X151920723Y-77132419D01*
X151873104Y-77227657D01*
X151873104Y-77370514D01*
X151920723Y-77465752D01*
X151968342Y-77513371D01*
X152063580Y-77560990D01*
X152444533Y-77560990D01*
X151444533Y-77513371D02*
X151111200Y-77513371D01*
X150968342Y-78037180D02*
X151444533Y-78037180D01*
X151444533Y-77037180D01*
X150968342Y-77037180D01*
X150063580Y-77037180D02*
X150539771Y-77037180D01*
X150587390Y-77513371D01*
X150539771Y-77465752D01*
X150444533Y-77418133D01*
X150206438Y-77418133D01*
X150111200Y-77465752D01*
X150063580Y-77513371D01*
X150015961Y-77608609D01*
X150015961Y-77846704D01*
X150063580Y-77941942D01*
X150111200Y-77989561D01*
X150206438Y-78037180D01*
X150444533Y-78037180D01*
X150539771Y-77989561D01*
X150587390Y-77941942D01*
X156468342Y-78782419D02*
X156420723Y-78734800D01*
X156325485Y-78687180D01*
X156087390Y-78687180D01*
X155992152Y-78734800D01*
X155944533Y-78782419D01*
X155896914Y-78877657D01*
X155896914Y-78972895D01*
X155944533Y-79115752D01*
X156515961Y-79687180D01*
X155896914Y-79687180D01*
X154706438Y-79306228D02*
X153944533Y-79306228D01*
X152706438Y-79687180D02*
X152706438Y-78687180D01*
X152325485Y-78687180D01*
X152230247Y-78734800D01*
X152182628Y-78782419D01*
X152135009Y-78877657D01*
X152135009Y-79020514D01*
X152182628Y-79115752D01*
X152230247Y-79163371D01*
X152325485Y-79210990D01*
X152706438Y-79210990D01*
X151706438Y-79687180D02*
X151706438Y-78687180D01*
X150706438Y-79687180D02*
X151277866Y-79687180D01*
X150992152Y-79687180D02*
X150992152Y-78687180D01*
X151087390Y-78830038D01*
X151182628Y-78925276D01*
X151277866Y-78972895D01*
X149849295Y-79020514D02*
X149849295Y-79687180D01*
X150087390Y-78639561D02*
X150325485Y-79353847D01*
X149706438Y-79353847D01*
X156515961Y-80337180D02*
X155896914Y-80337180D01*
X156230247Y-80718133D01*
X156087390Y-80718133D01*
X155992152Y-80765752D01*
X155944533Y-80813371D01*
X155896914Y-80908609D01*
X155896914Y-81146704D01*
X155944533Y-81241942D01*
X155992152Y-81289561D01*
X156087390Y-81337180D01*
X156373104Y-81337180D01*
X156468342Y-81289561D01*
X156515961Y-81241942D01*
X154706438Y-80956228D02*
X153944533Y-80956228D01*
X152706438Y-81337180D02*
X152706438Y-80337180D01*
X152325485Y-80337180D01*
X152230247Y-80384800D01*
X152182628Y-80432419D01*
X152135009Y-80527657D01*
X152135009Y-80670514D01*
X152182628Y-80765752D01*
X152230247Y-80813371D01*
X152325485Y-80860990D01*
X152706438Y-80860990D01*
X151706438Y-81337180D02*
X151706438Y-80337180D01*
X150706438Y-81337180D02*
X151277866Y-81337180D01*
X150992152Y-81337180D02*
X150992152Y-80337180D01*
X151087390Y-80480038D01*
X151182628Y-80575276D01*
X151277866Y-80622895D01*
X150373104Y-80337180D02*
X149754057Y-80337180D01*
X150087390Y-80718133D01*
X149944533Y-80718133D01*
X149849295Y-80765752D01*
X149801676Y-80813371D01*
X149754057Y-80908609D01*
X149754057Y-81146704D01*
X149801676Y-81241942D01*
X149849295Y-81289561D01*
X149944533Y-81337180D01*
X150230247Y-81337180D01*
X150325485Y-81289561D01*
X150373104Y-81241942D01*
X155992152Y-82320514D02*
X155992152Y-82987180D01*
X156230247Y-81939561D02*
X156468342Y-82653847D01*
X155849295Y-82653847D01*
X154706438Y-82606228D02*
X153944533Y-82606228D01*
X152706438Y-82987180D02*
X152706438Y-81987180D01*
X152325485Y-81987180D01*
X152230247Y-82034800D01*
X152182628Y-82082419D01*
X152135009Y-82177657D01*
X152135009Y-82320514D01*
X152182628Y-82415752D01*
X152230247Y-82463371D01*
X152325485Y-82510990D01*
X152706438Y-82510990D01*
X151706438Y-82987180D02*
X151706438Y-81987180D01*
X150706438Y-82987180D02*
X151277866Y-82987180D01*
X150992152Y-82987180D02*
X150992152Y-81987180D01*
X151087390Y-82130038D01*
X151182628Y-82225276D01*
X151277866Y-82272895D01*
X150325485Y-82082419D02*
X150277866Y-82034800D01*
X150182628Y-81987180D01*
X149944533Y-81987180D01*
X149849295Y-82034800D01*
X149801676Y-82082419D01*
X149754057Y-82177657D01*
X149754057Y-82272895D01*
X149801676Y-82415752D01*
X150373104Y-82987180D01*
X149754057Y-82987180D01*
D11*
X138780800Y-126445200D02*
X138780800Y-130355200D01*
X138780800Y-130355200D02*
X136910800Y-130355200D01*
X136910800Y-130355200D02*
X136910800Y-126445200D01*
X114873821Y-132535200D02*
X115199379Y-132535200D01*
X114873821Y-133555200D02*
X115199379Y-133555200D01*
X134777200Y-128954400D02*
X134777200Y-125044400D01*
X136647200Y-128954400D02*
X134777200Y-128954400D01*
X136647200Y-125044400D02*
X136647200Y-128954400D01*
X135087579Y-132636800D02*
X134762021Y-132636800D01*
X135087579Y-133656800D02*
X134762021Y-133656800D01*
X134808179Y-131624800D02*
X134482621Y-131624800D01*
X134808179Y-130604800D02*
X134482621Y-130604800D01*
X134418800Y-128691421D02*
X134418800Y-129016979D01*
X133398800Y-128691421D02*
X133398800Y-129016979D01*
X148402600Y-129475200D02*
X148402600Y-131875200D01*
X145302600Y-131875200D02*
X145302600Y-128925200D01*
D10*
X127992142Y-125188742D02*
X128039761Y-125141123D01*
X128087380Y-124998266D01*
X128087380Y-124903028D01*
X128039761Y-124760171D01*
X127944523Y-124664933D01*
X127849285Y-124617314D01*
X127658809Y-124569695D01*
X127515952Y-124569695D01*
X127325476Y-124617314D01*
X127230238Y-124664933D01*
X127135000Y-124760171D01*
X127087380Y-124903028D01*
X127087380Y-124998266D01*
X127135000Y-125141123D01*
X127182619Y-125188742D01*
X127420714Y-126045885D02*
X128087380Y-126045885D01*
X127039761Y-125807790D02*
X127754047Y-125569695D01*
X127754047Y-126188742D01*
X127087380Y-126474457D02*
X127087380Y-127093504D01*
X127468333Y-126760171D01*
X127468333Y-126903028D01*
X127515952Y-126998266D01*
X127563571Y-127045885D01*
X127658809Y-127093504D01*
X127896904Y-127093504D01*
X127992142Y-127045885D01*
X128039761Y-126998266D01*
X128087380Y-126903028D01*
X128087380Y-126617314D01*
X128039761Y-126522076D01*
X127992142Y-126474457D01*
X120149857Y-128246142D02*
X120197476Y-128293761D01*
X120340333Y-128341380D01*
X120435571Y-128341380D01*
X120578428Y-128293761D01*
X120673666Y-128198523D01*
X120721285Y-128103285D01*
X120768904Y-127912809D01*
X120768904Y-127769952D01*
X120721285Y-127579476D01*
X120673666Y-127484238D01*
X120578428Y-127389000D01*
X120435571Y-127341380D01*
X120340333Y-127341380D01*
X120197476Y-127389000D01*
X120149857Y-127436619D01*
X119768904Y-127436619D02*
X119721285Y-127389000D01*
X119626047Y-127341380D01*
X119387952Y-127341380D01*
X119292714Y-127389000D01*
X119245095Y-127436619D01*
X119197476Y-127531857D01*
X119197476Y-127627095D01*
X119245095Y-127769952D01*
X119816523Y-128341380D01*
X119197476Y-128341380D01*
X118864142Y-127341380D02*
X118245095Y-127341380D01*
X118578428Y-127722333D01*
X118435571Y-127722333D01*
X118340333Y-127769952D01*
X118292714Y-127817571D01*
X118245095Y-127912809D01*
X118245095Y-128150904D01*
X118292714Y-128246142D01*
X118340333Y-128293761D01*
X118435571Y-128341380D01*
X118721285Y-128341380D01*
X118816523Y-128293761D01*
X118864142Y-128246142D01*
X117425742Y-129481342D02*
X117473361Y-129433723D01*
X117520980Y-129290866D01*
X117520980Y-129195628D01*
X117473361Y-129052771D01*
X117378123Y-128957533D01*
X117282885Y-128909914D01*
X117092409Y-128862295D01*
X116949552Y-128862295D01*
X116759076Y-128909914D01*
X116663838Y-128957533D01*
X116568600Y-129052771D01*
X116520980Y-129195628D01*
X116520980Y-129290866D01*
X116568600Y-129433723D01*
X116616219Y-129481342D01*
X116616219Y-129862295D02*
X116568600Y-129909914D01*
X116520980Y-130005152D01*
X116520980Y-130243247D01*
X116568600Y-130338485D01*
X116616219Y-130386104D01*
X116711457Y-130433723D01*
X116806695Y-130433723D01*
X116949552Y-130386104D01*
X117520980Y-129814676D01*
X117520980Y-130433723D01*
X116854314Y-131290866D02*
X117520980Y-131290866D01*
X116473361Y-131052771D02*
X117187647Y-130814676D01*
X117187647Y-131433723D01*
X122808942Y-127677942D02*
X122856561Y-127630323D01*
X122904180Y-127487466D01*
X122904180Y-127392228D01*
X122856561Y-127249371D01*
X122761323Y-127154133D01*
X122666085Y-127106514D01*
X122475609Y-127058895D01*
X122332752Y-127058895D01*
X122142276Y-127106514D01*
X122047038Y-127154133D01*
X121951800Y-127249371D01*
X121904180Y-127392228D01*
X121904180Y-127487466D01*
X121951800Y-127630323D01*
X121999419Y-127677942D01*
X121999419Y-128058895D02*
X121951800Y-128106514D01*
X121904180Y-128201752D01*
X121904180Y-128439847D01*
X121951800Y-128535085D01*
X121999419Y-128582704D01*
X122094657Y-128630323D01*
X122189895Y-128630323D01*
X122332752Y-128582704D01*
X122904180Y-128011276D01*
X122904180Y-128630323D01*
X121904180Y-129535085D02*
X121904180Y-129058895D01*
X122380371Y-129011276D01*
X122332752Y-129058895D01*
X122285133Y-129154133D01*
X122285133Y-129392228D01*
X122332752Y-129487466D01*
X122380371Y-129535085D01*
X122475609Y-129582704D01*
X122713704Y-129582704D01*
X122808942Y-129535085D01*
X122856561Y-129487466D01*
X122904180Y-129392228D01*
X122904180Y-129154133D01*
X122856561Y-129058895D01*
X122808942Y-129011276D01*
X140158742Y-126712742D02*
X140206361Y-126665123D01*
X140253980Y-126522266D01*
X140253980Y-126427028D01*
X140206361Y-126284171D01*
X140111123Y-126188933D01*
X140015885Y-126141314D01*
X139825409Y-126093695D01*
X139682552Y-126093695D01*
X139492076Y-126141314D01*
X139396838Y-126188933D01*
X139301600Y-126284171D01*
X139253980Y-126427028D01*
X139253980Y-126522266D01*
X139301600Y-126665123D01*
X139349219Y-126712742D01*
X139349219Y-127093695D02*
X139301600Y-127141314D01*
X139253980Y-127236552D01*
X139253980Y-127474647D01*
X139301600Y-127569885D01*
X139349219Y-127617504D01*
X139444457Y-127665123D01*
X139539695Y-127665123D01*
X139682552Y-127617504D01*
X140253980Y-127046076D01*
X140253980Y-127665123D01*
X139253980Y-127998457D02*
X139253980Y-128665123D01*
X140253980Y-128236552D01*
X131876742Y-129074942D02*
X131924361Y-129027323D01*
X131971980Y-128884466D01*
X131971980Y-128789228D01*
X131924361Y-128646371D01*
X131829123Y-128551133D01*
X131733885Y-128503514D01*
X131543409Y-128455895D01*
X131400552Y-128455895D01*
X131210076Y-128503514D01*
X131114838Y-128551133D01*
X131019600Y-128646371D01*
X130971980Y-128789228D01*
X130971980Y-128884466D01*
X131019600Y-129027323D01*
X131067219Y-129074942D01*
X131067219Y-129455895D02*
X131019600Y-129503514D01*
X130971980Y-129598752D01*
X130971980Y-129836847D01*
X131019600Y-129932085D01*
X131067219Y-129979704D01*
X131162457Y-130027323D01*
X131257695Y-130027323D01*
X131400552Y-129979704D01*
X131971980Y-129408276D01*
X131971980Y-130027323D01*
X131400552Y-130598752D02*
X131352933Y-130503514D01*
X131305314Y-130455895D01*
X131210076Y-130408276D01*
X131162457Y-130408276D01*
X131067219Y-130455895D01*
X131019600Y-130503514D01*
X130971980Y-130598752D01*
X130971980Y-130789228D01*
X131019600Y-130884466D01*
X131067219Y-130932085D01*
X131162457Y-130979704D01*
X131210076Y-130979704D01*
X131305314Y-130932085D01*
X131352933Y-130884466D01*
X131400552Y-130789228D01*
X131400552Y-130598752D01*
X131448171Y-130503514D01*
X131495790Y-130455895D01*
X131591028Y-130408276D01*
X131781504Y-130408276D01*
X131876742Y-130455895D01*
X131924361Y-130503514D01*
X131971980Y-130598752D01*
X131971980Y-130789228D01*
X131924361Y-130884466D01*
X131876742Y-130932085D01*
X131781504Y-130979704D01*
X131591028Y-130979704D01*
X131495790Y-130932085D01*
X131448171Y-130884466D01*
X131400552Y-130789228D01*
X123774142Y-127677942D02*
X123821761Y-127630323D01*
X123869380Y-127487466D01*
X123869380Y-127392228D01*
X123821761Y-127249371D01*
X123726523Y-127154133D01*
X123631285Y-127106514D01*
X123440809Y-127058895D01*
X123297952Y-127058895D01*
X123107476Y-127106514D01*
X123012238Y-127154133D01*
X122917000Y-127249371D01*
X122869380Y-127392228D01*
X122869380Y-127487466D01*
X122917000Y-127630323D01*
X122964619Y-127677942D01*
X122869380Y-128011276D02*
X122869380Y-128630323D01*
X123250333Y-128296990D01*
X123250333Y-128439847D01*
X123297952Y-128535085D01*
X123345571Y-128582704D01*
X123440809Y-128630323D01*
X123678904Y-128630323D01*
X123774142Y-128582704D01*
X123821761Y-128535085D01*
X123869380Y-128439847D01*
X123869380Y-128154133D01*
X123821761Y-128058895D01*
X123774142Y-128011276D01*
X122964619Y-129011276D02*
X122917000Y-129058895D01*
X122869380Y-129154133D01*
X122869380Y-129392228D01*
X122917000Y-129487466D01*
X122964619Y-129535085D01*
X123059857Y-129582704D01*
X123155095Y-129582704D01*
X123297952Y-129535085D01*
X123869380Y-128963657D01*
X123869380Y-129582704D01*
X131954542Y-126357142D02*
X132002161Y-126309523D01*
X132049780Y-126166666D01*
X132049780Y-126071428D01*
X132002161Y-125928571D01*
X131906923Y-125833333D01*
X131811685Y-125785714D01*
X131621209Y-125738095D01*
X131478352Y-125738095D01*
X131287876Y-125785714D01*
X131192638Y-125833333D01*
X131097400Y-125928571D01*
X131049780Y-126071428D01*
X131049780Y-126166666D01*
X131097400Y-126309523D01*
X131145019Y-126357142D01*
X131049780Y-126690476D02*
X131049780Y-127309523D01*
X131430733Y-126976190D01*
X131430733Y-127119047D01*
X131478352Y-127214285D01*
X131525971Y-127261904D01*
X131621209Y-127309523D01*
X131859304Y-127309523D01*
X131954542Y-127261904D01*
X132002161Y-127214285D01*
X132049780Y-127119047D01*
X132049780Y-126833333D01*
X132002161Y-126738095D01*
X131954542Y-126690476D01*
X131383114Y-128166666D02*
X132049780Y-128166666D01*
X131002161Y-127928571D02*
X131716447Y-127690476D01*
X131716447Y-128309523D01*
X124563142Y-134866142D02*
X124610761Y-134818523D01*
X124658380Y-134675666D01*
X124658380Y-134580428D01*
X124610761Y-134437571D01*
X124515523Y-134342333D01*
X124420285Y-134294714D01*
X124229809Y-134247095D01*
X124086952Y-134247095D01*
X123896476Y-134294714D01*
X123801238Y-134342333D01*
X123706000Y-134437571D01*
X123658380Y-134580428D01*
X123658380Y-134675666D01*
X123706000Y-134818523D01*
X123753619Y-134866142D01*
X123658380Y-135199476D02*
X123658380Y-135818523D01*
X124039333Y-135485190D01*
X124039333Y-135628047D01*
X124086952Y-135723285D01*
X124134571Y-135770904D01*
X124229809Y-135818523D01*
X124467904Y-135818523D01*
X124563142Y-135770904D01*
X124610761Y-135723285D01*
X124658380Y-135628047D01*
X124658380Y-135342333D01*
X124610761Y-135247095D01*
X124563142Y-135199476D01*
X123658380Y-136723285D02*
X123658380Y-136247095D01*
X124134571Y-136199476D01*
X124086952Y-136247095D01*
X124039333Y-136342333D01*
X124039333Y-136580428D01*
X124086952Y-136675666D01*
X124134571Y-136723285D01*
X124229809Y-136770904D01*
X124467904Y-136770904D01*
X124563142Y-136723285D01*
X124610761Y-136675666D01*
X124658380Y-136580428D01*
X124658380Y-136342333D01*
X124610761Y-136247095D01*
X124563142Y-136199476D01*
X125934742Y-125188742D02*
X125982361Y-125141123D01*
X126029980Y-124998266D01*
X126029980Y-124903028D01*
X125982361Y-124760171D01*
X125887123Y-124664933D01*
X125791885Y-124617314D01*
X125601409Y-124569695D01*
X125458552Y-124569695D01*
X125268076Y-124617314D01*
X125172838Y-124664933D01*
X125077600Y-124760171D01*
X125029980Y-124903028D01*
X125029980Y-124998266D01*
X125077600Y-125141123D01*
X125125219Y-125188742D01*
X125029980Y-125522076D02*
X125029980Y-126141123D01*
X125410933Y-125807790D01*
X125410933Y-125950647D01*
X125458552Y-126045885D01*
X125506171Y-126093504D01*
X125601409Y-126141123D01*
X125839504Y-126141123D01*
X125934742Y-126093504D01*
X125982361Y-126045885D01*
X126029980Y-125950647D01*
X126029980Y-125664933D01*
X125982361Y-125569695D01*
X125934742Y-125522076D01*
X125029980Y-126998266D02*
X125029980Y-126807790D01*
X125077600Y-126712552D01*
X125125219Y-126664933D01*
X125268076Y-126569695D01*
X125458552Y-126522076D01*
X125839504Y-126522076D01*
X125934742Y-126569695D01*
X125982361Y-126617314D01*
X126029980Y-126712552D01*
X126029980Y-126903028D01*
X125982361Y-126998266D01*
X125934742Y-127045885D01*
X125839504Y-127093504D01*
X125601409Y-127093504D01*
X125506171Y-127045885D01*
X125458552Y-126998266D01*
X125410933Y-126903028D01*
X125410933Y-126712552D01*
X125458552Y-126617314D01*
X125506171Y-126569695D01*
X125601409Y-126522076D01*
X115679457Y-134832342D02*
X115727076Y-134879961D01*
X115869933Y-134927580D01*
X115965171Y-134927580D01*
X116108028Y-134879961D01*
X116203266Y-134784723D01*
X116250885Y-134689485D01*
X116298504Y-134499009D01*
X116298504Y-134356152D01*
X116250885Y-134165676D01*
X116203266Y-134070438D01*
X116108028Y-133975200D01*
X115965171Y-133927580D01*
X115869933Y-133927580D01*
X115727076Y-133975200D01*
X115679457Y-134022819D01*
X115346123Y-133927580D02*
X114727076Y-133927580D01*
X115060409Y-134308533D01*
X114917552Y-134308533D01*
X114822314Y-134356152D01*
X114774695Y-134403771D01*
X114727076Y-134499009D01*
X114727076Y-134737104D01*
X114774695Y-134832342D01*
X114822314Y-134879961D01*
X114917552Y-134927580D01*
X115203266Y-134927580D01*
X115298504Y-134879961D01*
X115346123Y-134832342D01*
X114393742Y-133927580D02*
X113727076Y-133927580D01*
X114155647Y-134927580D01*
X136145542Y-122039142D02*
X136193161Y-121991523D01*
X136240780Y-121848666D01*
X136240780Y-121753428D01*
X136193161Y-121610571D01*
X136097923Y-121515333D01*
X136002685Y-121467714D01*
X135812209Y-121420095D01*
X135669352Y-121420095D01*
X135478876Y-121467714D01*
X135383638Y-121515333D01*
X135288400Y-121610571D01*
X135240780Y-121753428D01*
X135240780Y-121848666D01*
X135288400Y-121991523D01*
X135336019Y-122039142D01*
X135240780Y-122372476D02*
X135240780Y-122991523D01*
X135621733Y-122658190D01*
X135621733Y-122801047D01*
X135669352Y-122896285D01*
X135716971Y-122943904D01*
X135812209Y-122991523D01*
X136050304Y-122991523D01*
X136145542Y-122943904D01*
X136193161Y-122896285D01*
X136240780Y-122801047D01*
X136240780Y-122515333D01*
X136193161Y-122420095D01*
X136145542Y-122372476D01*
X135669352Y-123562952D02*
X135621733Y-123467714D01*
X135574114Y-123420095D01*
X135478876Y-123372476D01*
X135431257Y-123372476D01*
X135336019Y-123420095D01*
X135288400Y-123467714D01*
X135240780Y-123562952D01*
X135240780Y-123753428D01*
X135288400Y-123848666D01*
X135336019Y-123896285D01*
X135431257Y-123943904D01*
X135478876Y-123943904D01*
X135574114Y-123896285D01*
X135621733Y-123848666D01*
X135669352Y-123753428D01*
X135669352Y-123562952D01*
X135716971Y-123467714D01*
X135764590Y-123420095D01*
X135859828Y-123372476D01*
X136050304Y-123372476D01*
X136145542Y-123420095D01*
X136193161Y-123467714D01*
X136240780Y-123562952D01*
X136240780Y-123753428D01*
X136193161Y-123848666D01*
X136145542Y-123896285D01*
X136050304Y-123943904D01*
X135859828Y-123943904D01*
X135764590Y-123896285D01*
X135716971Y-123848666D01*
X135669352Y-123753428D01*
X125579142Y-134891542D02*
X125626761Y-134843923D01*
X125674380Y-134701066D01*
X125674380Y-134605828D01*
X125626761Y-134462971D01*
X125531523Y-134367733D01*
X125436285Y-134320114D01*
X125245809Y-134272495D01*
X125102952Y-134272495D01*
X124912476Y-134320114D01*
X124817238Y-134367733D01*
X124722000Y-134462971D01*
X124674380Y-134605828D01*
X124674380Y-134701066D01*
X124722000Y-134843923D01*
X124769619Y-134891542D01*
X125007714Y-135748685D02*
X125674380Y-135748685D01*
X124626761Y-135510590D02*
X125341047Y-135272495D01*
X125341047Y-135891542D01*
X124674380Y-136462971D02*
X124674380Y-136558209D01*
X124722000Y-136653447D01*
X124769619Y-136701066D01*
X124864857Y-136748685D01*
X125055333Y-136796304D01*
X125293428Y-136796304D01*
X125483904Y-136748685D01*
X125579142Y-136701066D01*
X125626761Y-136653447D01*
X125674380Y-136558209D01*
X125674380Y-136462971D01*
X125626761Y-136367733D01*
X125579142Y-136320114D01*
X125483904Y-136272495D01*
X125293428Y-136224876D01*
X125055333Y-136224876D01*
X124864857Y-136272495D01*
X124769619Y-136320114D01*
X124722000Y-136367733D01*
X124674380Y-136462971D01*
X126925342Y-125214142D02*
X126972961Y-125166523D01*
X127020580Y-125023666D01*
X127020580Y-124928428D01*
X126972961Y-124785571D01*
X126877723Y-124690333D01*
X126782485Y-124642714D01*
X126592009Y-124595095D01*
X126449152Y-124595095D01*
X126258676Y-124642714D01*
X126163438Y-124690333D01*
X126068200Y-124785571D01*
X126020580Y-124928428D01*
X126020580Y-125023666D01*
X126068200Y-125166523D01*
X126115819Y-125214142D01*
X126353914Y-126071285D02*
X127020580Y-126071285D01*
X125972961Y-125833190D02*
X126687247Y-125595095D01*
X126687247Y-126214142D01*
X127020580Y-127118904D02*
X127020580Y-126547476D01*
X127020580Y-126833190D02*
X126020580Y-126833190D01*
X126163438Y-126737952D01*
X126258676Y-126642714D01*
X126306295Y-126547476D01*
X120327657Y-134037342D02*
X120375276Y-134084961D01*
X120518133Y-134132580D01*
X120613371Y-134132580D01*
X120756228Y-134084961D01*
X120851466Y-133989723D01*
X120899085Y-133894485D01*
X120946704Y-133704009D01*
X120946704Y-133561152D01*
X120899085Y-133370676D01*
X120851466Y-133275438D01*
X120756228Y-133180200D01*
X120613371Y-133132580D01*
X120518133Y-133132580D01*
X120375276Y-133180200D01*
X120327657Y-133227819D01*
X119470514Y-133465914D02*
X119470514Y-134132580D01*
X119708609Y-133084961D02*
X119946704Y-133799247D01*
X119327657Y-133799247D01*
X118994323Y-133227819D02*
X118946704Y-133180200D01*
X118851466Y-133132580D01*
X118613371Y-133132580D01*
X118518133Y-133180200D01*
X118470514Y-133227819D01*
X118422895Y-133323057D01*
X118422895Y-133418295D01*
X118470514Y-133561152D01*
X119041942Y-134132580D01*
X118422895Y-134132580D01*
X120276857Y-132614942D02*
X120324476Y-132662561D01*
X120467333Y-132710180D01*
X120562571Y-132710180D01*
X120705428Y-132662561D01*
X120800666Y-132567323D01*
X120848285Y-132472085D01*
X120895904Y-132281609D01*
X120895904Y-132138752D01*
X120848285Y-131948276D01*
X120800666Y-131853038D01*
X120705428Y-131757800D01*
X120562571Y-131710180D01*
X120467333Y-131710180D01*
X120324476Y-131757800D01*
X120276857Y-131805419D01*
X119419714Y-132043514D02*
X119419714Y-132710180D01*
X119657809Y-131662561D02*
X119895904Y-132376847D01*
X119276857Y-132376847D01*
X118467333Y-132043514D02*
X118467333Y-132710180D01*
X118705428Y-131662561D02*
X118943523Y-132376847D01*
X118324476Y-132376847D01*
X130030457Y-130151142D02*
X130078076Y-130198761D01*
X130220933Y-130246380D01*
X130316171Y-130246380D01*
X130459028Y-130198761D01*
X130554266Y-130103523D01*
X130601885Y-130008285D01*
X130649504Y-129817809D01*
X130649504Y-129674952D01*
X130601885Y-129484476D01*
X130554266Y-129389238D01*
X130459028Y-129294000D01*
X130316171Y-129246380D01*
X130220933Y-129246380D01*
X130078076Y-129294000D01*
X130030457Y-129341619D01*
X129173314Y-129579714D02*
X129173314Y-130246380D01*
X129411409Y-129198761D02*
X129649504Y-129913047D01*
X129030457Y-129913047D01*
X128173314Y-129246380D02*
X128649504Y-129246380D01*
X128697123Y-129722571D01*
X128649504Y-129674952D01*
X128554266Y-129627333D01*
X128316171Y-129627333D01*
X128220933Y-129674952D01*
X128173314Y-129722571D01*
X128125695Y-129817809D01*
X128125695Y-130055904D01*
X128173314Y-130151142D01*
X128220933Y-130198761D01*
X128316171Y-130246380D01*
X128554266Y-130246380D01*
X128649504Y-130198761D01*
X128697123Y-130151142D01*
X120251457Y-131471942D02*
X120299076Y-131519561D01*
X120441933Y-131567180D01*
X120537171Y-131567180D01*
X120680028Y-131519561D01*
X120775266Y-131424323D01*
X120822885Y-131329085D01*
X120870504Y-131138609D01*
X120870504Y-130995752D01*
X120822885Y-130805276D01*
X120775266Y-130710038D01*
X120680028Y-130614800D01*
X120537171Y-130567180D01*
X120441933Y-130567180D01*
X120299076Y-130614800D01*
X120251457Y-130662419D01*
X119394314Y-130900514D02*
X119394314Y-131567180D01*
X119632409Y-130519561D02*
X119870504Y-131233847D01*
X119251457Y-131233847D01*
X118965742Y-130567180D02*
X118299076Y-130567180D01*
X118727647Y-131567180D01*
X130030457Y-131954542D02*
X130078076Y-132002161D01*
X130220933Y-132049780D01*
X130316171Y-132049780D01*
X130459028Y-132002161D01*
X130554266Y-131906923D01*
X130601885Y-131811685D01*
X130649504Y-131621209D01*
X130649504Y-131478352D01*
X130601885Y-131287876D01*
X130554266Y-131192638D01*
X130459028Y-131097400D01*
X130316171Y-131049780D01*
X130220933Y-131049780D01*
X130078076Y-131097400D01*
X130030457Y-131145019D01*
X129173314Y-131383114D02*
X129173314Y-132049780D01*
X129411409Y-131002161D02*
X129649504Y-131716447D01*
X129030457Y-131716447D01*
X128506647Y-131478352D02*
X128601885Y-131430733D01*
X128649504Y-131383114D01*
X128697123Y-131287876D01*
X128697123Y-131240257D01*
X128649504Y-131145019D01*
X128601885Y-131097400D01*
X128506647Y-131049780D01*
X128316171Y-131049780D01*
X128220933Y-131097400D01*
X128173314Y-131145019D01*
X128125695Y-131240257D01*
X128125695Y-131287876D01*
X128173314Y-131383114D01*
X128220933Y-131430733D01*
X128316171Y-131478352D01*
X128506647Y-131478352D01*
X128601885Y-131525971D01*
X128649504Y-131573590D01*
X128697123Y-131668828D01*
X128697123Y-131859304D01*
X128649504Y-131954542D01*
X128601885Y-132002161D01*
X128506647Y-132049780D01*
X128316171Y-132049780D01*
X128220933Y-132002161D01*
X128173314Y-131954542D01*
X128125695Y-131859304D01*
X128125695Y-131668828D01*
X128173314Y-131573590D01*
X128220933Y-131525971D01*
X128316171Y-131478352D01*
X120200657Y-130278142D02*
X120248276Y-130325761D01*
X120391133Y-130373380D01*
X120486371Y-130373380D01*
X120629228Y-130325761D01*
X120724466Y-130230523D01*
X120772085Y-130135285D01*
X120819704Y-129944809D01*
X120819704Y-129801952D01*
X120772085Y-129611476D01*
X120724466Y-129516238D01*
X120629228Y-129421000D01*
X120486371Y-129373380D01*
X120391133Y-129373380D01*
X120248276Y-129421000D01*
X120200657Y-129468619D01*
X119295895Y-129373380D02*
X119772085Y-129373380D01*
X119819704Y-129849571D01*
X119772085Y-129801952D01*
X119676847Y-129754333D01*
X119438752Y-129754333D01*
X119343514Y-129801952D01*
X119295895Y-129849571D01*
X119248276Y-129944809D01*
X119248276Y-130182904D01*
X119295895Y-130278142D01*
X119343514Y-130325761D01*
X119438752Y-130373380D01*
X119676847Y-130373380D01*
X119772085Y-130325761D01*
X119819704Y-130278142D01*
X118629228Y-129373380D02*
X118533990Y-129373380D01*
X118438752Y-129421000D01*
X118391133Y-129468619D01*
X118343514Y-129563857D01*
X118295895Y-129754333D01*
X118295895Y-129992428D01*
X118343514Y-130182904D01*
X118391133Y-130278142D01*
X118438752Y-130325761D01*
X118533990Y-130373380D01*
X118629228Y-130373380D01*
X118724466Y-130325761D01*
X118772085Y-130278142D01*
X118819704Y-130182904D01*
X118867323Y-129992428D01*
X118867323Y-129754333D01*
X118819704Y-129563857D01*
X118772085Y-129468619D01*
X118724466Y-129421000D01*
X118629228Y-129373380D01*
X130005057Y-132945142D02*
X130052676Y-132992761D01*
X130195533Y-133040380D01*
X130290771Y-133040380D01*
X130433628Y-132992761D01*
X130528866Y-132897523D01*
X130576485Y-132802285D01*
X130624104Y-132611809D01*
X130624104Y-132468952D01*
X130576485Y-132278476D01*
X130528866Y-132183238D01*
X130433628Y-132088000D01*
X130290771Y-132040380D01*
X130195533Y-132040380D01*
X130052676Y-132088000D01*
X130005057Y-132135619D01*
X129100295Y-132040380D02*
X129576485Y-132040380D01*
X129624104Y-132516571D01*
X129576485Y-132468952D01*
X129481247Y-132421333D01*
X129243152Y-132421333D01*
X129147914Y-132468952D01*
X129100295Y-132516571D01*
X129052676Y-132611809D01*
X129052676Y-132849904D01*
X129100295Y-132945142D01*
X129147914Y-132992761D01*
X129243152Y-133040380D01*
X129481247Y-133040380D01*
X129576485Y-132992761D01*
X129624104Y-132945142D01*
X128100295Y-133040380D02*
X128671723Y-133040380D01*
X128386009Y-133040380D02*
X128386009Y-132040380D01*
X128481247Y-132183238D01*
X128576485Y-132278476D01*
X128671723Y-132326095D01*
X120200657Y-129262142D02*
X120248276Y-129309761D01*
X120391133Y-129357380D01*
X120486371Y-129357380D01*
X120629228Y-129309761D01*
X120724466Y-129214523D01*
X120772085Y-129119285D01*
X120819704Y-128928809D01*
X120819704Y-128785952D01*
X120772085Y-128595476D01*
X120724466Y-128500238D01*
X120629228Y-128405000D01*
X120486371Y-128357380D01*
X120391133Y-128357380D01*
X120248276Y-128405000D01*
X120200657Y-128452619D01*
X119295895Y-128357380D02*
X119772085Y-128357380D01*
X119819704Y-128833571D01*
X119772085Y-128785952D01*
X119676847Y-128738333D01*
X119438752Y-128738333D01*
X119343514Y-128785952D01*
X119295895Y-128833571D01*
X119248276Y-128928809D01*
X119248276Y-129166904D01*
X119295895Y-129262142D01*
X119343514Y-129309761D01*
X119438752Y-129357380D01*
X119676847Y-129357380D01*
X119772085Y-129309761D01*
X119819704Y-129262142D01*
X118867323Y-128452619D02*
X118819704Y-128405000D01*
X118724466Y-128357380D01*
X118486371Y-128357380D01*
X118391133Y-128405000D01*
X118343514Y-128452619D01*
X118295895Y-128547857D01*
X118295895Y-128643095D01*
X118343514Y-128785952D01*
X118914942Y-129357380D01*
X118295895Y-129357380D01*
X130030457Y-134062742D02*
X130078076Y-134110361D01*
X130220933Y-134157980D01*
X130316171Y-134157980D01*
X130459028Y-134110361D01*
X130554266Y-134015123D01*
X130601885Y-133919885D01*
X130649504Y-133729409D01*
X130649504Y-133586552D01*
X130601885Y-133396076D01*
X130554266Y-133300838D01*
X130459028Y-133205600D01*
X130316171Y-133157980D01*
X130220933Y-133157980D01*
X130078076Y-133205600D01*
X130030457Y-133253219D01*
X129125695Y-133157980D02*
X129601885Y-133157980D01*
X129649504Y-133634171D01*
X129601885Y-133586552D01*
X129506647Y-133538933D01*
X129268552Y-133538933D01*
X129173314Y-133586552D01*
X129125695Y-133634171D01*
X129078076Y-133729409D01*
X129078076Y-133967504D01*
X129125695Y-134062742D01*
X129173314Y-134110361D01*
X129268552Y-134157980D01*
X129506647Y-134157980D01*
X129601885Y-134110361D01*
X129649504Y-134062742D01*
X128744742Y-133157980D02*
X128125695Y-133157980D01*
X128459028Y-133538933D01*
X128316171Y-133538933D01*
X128220933Y-133586552D01*
X128173314Y-133634171D01*
X128125695Y-133729409D01*
X128125695Y-133967504D01*
X128173314Y-134062742D01*
X128220933Y-134110361D01*
X128316171Y-134157980D01*
X128601885Y-134157980D01*
X128697123Y-134110361D01*
X128744742Y-134062742D01*
X138755333Y-133100771D02*
X139088666Y-133100771D01*
X139088666Y-133624580D02*
X139088666Y-132624580D01*
X138612476Y-132624580D01*
X137898190Y-133100771D02*
X137755333Y-133148390D01*
X137707714Y-133196009D01*
X137660095Y-133291247D01*
X137660095Y-133434104D01*
X137707714Y-133529342D01*
X137755333Y-133576961D01*
X137850571Y-133624580D01*
X138231523Y-133624580D01*
X138231523Y-132624580D01*
X137898190Y-132624580D01*
X137802952Y-132672200D01*
X137755333Y-132719819D01*
X137707714Y-132815057D01*
X137707714Y-132910295D01*
X137755333Y-133005533D01*
X137802952Y-133053152D01*
X137898190Y-133100771D01*
X138231523Y-133100771D01*
X137326761Y-132624580D02*
X136707714Y-132624580D01*
X137041047Y-133005533D01*
X136898190Y-133005533D01*
X136802952Y-133053152D01*
X136755333Y-133100771D01*
X136707714Y-133196009D01*
X136707714Y-133434104D01*
X136755333Y-133529342D01*
X136802952Y-133576961D01*
X136898190Y-133624580D01*
X137183904Y-133624580D01*
X137279142Y-133576961D01*
X137326761Y-133529342D01*
X138298133Y-130992571D02*
X138631466Y-130992571D01*
X138631466Y-131516380D02*
X138631466Y-130516380D01*
X138155276Y-130516380D01*
X137440990Y-130992571D02*
X137298133Y-131040190D01*
X137250514Y-131087809D01*
X137202895Y-131183047D01*
X137202895Y-131325904D01*
X137250514Y-131421142D01*
X137298133Y-131468761D01*
X137393371Y-131516380D01*
X137774323Y-131516380D01*
X137774323Y-130516380D01*
X137440990Y-130516380D01*
X137345752Y-130564000D01*
X137298133Y-130611619D01*
X137250514Y-130706857D01*
X137250514Y-130802095D01*
X137298133Y-130897333D01*
X137345752Y-130944952D01*
X137440990Y-130992571D01*
X137774323Y-130992571D01*
X136345752Y-130849714D02*
X136345752Y-131516380D01*
X136583847Y-130468761D02*
X136821942Y-131183047D01*
X136202895Y-131183047D01*
X134411980Y-125137942D02*
X133935790Y-124804609D01*
X134411980Y-124566514D02*
X133411980Y-124566514D01*
X133411980Y-124947466D01*
X133459600Y-125042704D01*
X133507219Y-125090323D01*
X133602457Y-125137942D01*
X133745314Y-125137942D01*
X133840552Y-125090323D01*
X133888171Y-125042704D01*
X133935790Y-124947466D01*
X133935790Y-124566514D01*
X133840552Y-125709371D02*
X133792933Y-125614133D01*
X133745314Y-125566514D01*
X133650076Y-125518895D01*
X133602457Y-125518895D01*
X133507219Y-125566514D01*
X133459600Y-125614133D01*
X133411980Y-125709371D01*
X133411980Y-125899847D01*
X133459600Y-125995085D01*
X133507219Y-126042704D01*
X133602457Y-126090323D01*
X133650076Y-126090323D01*
X133745314Y-126042704D01*
X133792933Y-125995085D01*
X133840552Y-125899847D01*
X133840552Y-125709371D01*
X133888171Y-125614133D01*
X133935790Y-125566514D01*
X134031028Y-125518895D01*
X134221504Y-125518895D01*
X134316742Y-125566514D01*
X134364361Y-125614133D01*
X134411980Y-125709371D01*
X134411980Y-125899847D01*
X134364361Y-125995085D01*
X134316742Y-126042704D01*
X134221504Y-126090323D01*
X134031028Y-126090323D01*
X133935790Y-126042704D01*
X133888171Y-125995085D01*
X133840552Y-125899847D01*
X133411980Y-126947466D02*
X133411980Y-126756990D01*
X133459600Y-126661752D01*
X133507219Y-126614133D01*
X133650076Y-126518895D01*
X133840552Y-126471276D01*
X134221504Y-126471276D01*
X134316742Y-126518895D01*
X134364361Y-126566514D01*
X134411980Y-126661752D01*
X134411980Y-126852228D01*
X134364361Y-126947466D01*
X134316742Y-126995085D01*
X134221504Y-127042704D01*
X133983409Y-127042704D01*
X133888171Y-126995085D01*
X133840552Y-126947466D01*
X133792933Y-126852228D01*
X133792933Y-126661752D01*
X133840552Y-126566514D01*
X133888171Y-126518895D01*
X133983409Y-126471276D01*
X144678304Y-130262380D02*
X144678304Y-131071904D01*
X144630685Y-131167142D01*
X144583066Y-131214761D01*
X144487828Y-131262380D01*
X144297352Y-131262380D01*
X144202114Y-131214761D01*
X144154495Y-131167142D01*
X144106876Y-131071904D01*
X144106876Y-130262380D01*
X143725923Y-130262380D02*
X143059257Y-130262380D01*
X143487828Y-131262380D01*
X110777257Y-132735580D02*
X111110590Y-132259390D01*
X111348685Y-132735580D02*
X111348685Y-131735580D01*
X110967733Y-131735580D01*
X110872495Y-131783200D01*
X110824876Y-131830819D01*
X110777257Y-131926057D01*
X110777257Y-132068914D01*
X110824876Y-132164152D01*
X110872495Y-132211771D01*
X110967733Y-132259390D01*
X111348685Y-132259390D01*
X109824876Y-132735580D02*
X110396304Y-132735580D01*
X110110590Y-132735580D02*
X110110590Y-131735580D01*
X110205828Y-131878438D01*
X110301066Y-131973676D01*
X110396304Y-132021295D01*
X108920114Y-131735580D02*
X109396304Y-131735580D01*
X109443923Y-132211771D01*
X109396304Y-132164152D01*
X109301066Y-132116533D01*
X109062971Y-132116533D01*
X108967733Y-132164152D01*
X108920114Y-132211771D01*
X108872495Y-132307009D01*
X108872495Y-132545104D01*
X108920114Y-132640342D01*
X108967733Y-132687961D01*
X109062971Y-132735580D01*
X109301066Y-132735580D01*
X109396304Y-132687961D01*
X109443923Y-132640342D01*
X110777257Y-131643380D02*
X111110590Y-131167190D01*
X111348685Y-131643380D02*
X111348685Y-130643380D01*
X110967733Y-130643380D01*
X110872495Y-130691000D01*
X110824876Y-130738619D01*
X110777257Y-130833857D01*
X110777257Y-130976714D01*
X110824876Y-131071952D01*
X110872495Y-131119571D01*
X110967733Y-131167190D01*
X111348685Y-131167190D01*
X109824876Y-131643380D02*
X110396304Y-131643380D01*
X110110590Y-131643380D02*
X110110590Y-130643380D01*
X110205828Y-130786238D01*
X110301066Y-130881476D01*
X110396304Y-130929095D01*
X108967733Y-130643380D02*
X109158209Y-130643380D01*
X109253447Y-130691000D01*
X109301066Y-130738619D01*
X109396304Y-130881476D01*
X109443923Y-131071952D01*
X109443923Y-131452904D01*
X109396304Y-131548142D01*
X109348685Y-131595761D01*
X109253447Y-131643380D01*
X109062971Y-131643380D01*
X108967733Y-131595761D01*
X108920114Y-131548142D01*
X108872495Y-131452904D01*
X108872495Y-131214809D01*
X108920114Y-131119571D01*
X108967733Y-131071952D01*
X109062971Y-131024333D01*
X109253447Y-131024333D01*
X109348685Y-131071952D01*
X109396304Y-131119571D01*
X109443923Y-131214809D01*
X110777257Y-127782580D02*
X111110590Y-127306390D01*
X111348685Y-127782580D02*
X111348685Y-126782580D01*
X110967733Y-126782580D01*
X110872495Y-126830200D01*
X110824876Y-126877819D01*
X110777257Y-126973057D01*
X110777257Y-127115914D01*
X110824876Y-127211152D01*
X110872495Y-127258771D01*
X110967733Y-127306390D01*
X111348685Y-127306390D01*
X110396304Y-126877819D02*
X110348685Y-126830200D01*
X110253447Y-126782580D01*
X110015352Y-126782580D01*
X109920114Y-126830200D01*
X109872495Y-126877819D01*
X109824876Y-126973057D01*
X109824876Y-127068295D01*
X109872495Y-127211152D01*
X110443923Y-127782580D01*
X109824876Y-127782580D01*
X108872495Y-127782580D02*
X109443923Y-127782580D01*
X109158209Y-127782580D02*
X109158209Y-126782580D01*
X109253447Y-126925438D01*
X109348685Y-127020676D01*
X109443923Y-127068295D01*
X116962180Y-115409742D02*
X116485990Y-115076409D01*
X116962180Y-114838314D02*
X115962180Y-114838314D01*
X115962180Y-115219266D01*
X116009800Y-115314504D01*
X116057419Y-115362123D01*
X116152657Y-115409742D01*
X116295514Y-115409742D01*
X116390752Y-115362123D01*
X116438371Y-115314504D01*
X116485990Y-115219266D01*
X116485990Y-114838314D01*
X116057419Y-115790695D02*
X116009800Y-115838314D01*
X115962180Y-115933552D01*
X115962180Y-116171647D01*
X116009800Y-116266885D01*
X116057419Y-116314504D01*
X116152657Y-116362123D01*
X116247895Y-116362123D01*
X116390752Y-116314504D01*
X116962180Y-115743076D01*
X116962180Y-116362123D01*
X116295514Y-117219266D02*
X116962180Y-117219266D01*
X115914561Y-116981171D02*
X116628847Y-116743076D01*
X116628847Y-117362123D01*
X119197380Y-115409742D02*
X118721190Y-115076409D01*
X119197380Y-114838314D02*
X118197380Y-114838314D01*
X118197380Y-115219266D01*
X118245000Y-115314504D01*
X118292619Y-115362123D01*
X118387857Y-115409742D01*
X118530714Y-115409742D01*
X118625952Y-115362123D01*
X118673571Y-115314504D01*
X118721190Y-115219266D01*
X118721190Y-114838314D01*
X118292619Y-115790695D02*
X118245000Y-115838314D01*
X118197380Y-115933552D01*
X118197380Y-116171647D01*
X118245000Y-116266885D01*
X118292619Y-116314504D01*
X118387857Y-116362123D01*
X118483095Y-116362123D01*
X118625952Y-116314504D01*
X119197380Y-115743076D01*
X119197380Y-116362123D01*
X118197380Y-117266885D02*
X118197380Y-116790695D01*
X118673571Y-116743076D01*
X118625952Y-116790695D01*
X118578333Y-116885933D01*
X118578333Y-117124028D01*
X118625952Y-117219266D01*
X118673571Y-117266885D01*
X118768809Y-117314504D01*
X119006904Y-117314504D01*
X119102142Y-117266885D01*
X119149761Y-117219266D01*
X119197380Y-117124028D01*
X119197380Y-116885933D01*
X119149761Y-116790695D01*
X119102142Y-116743076D01*
X110777257Y-121432580D02*
X111110590Y-120956390D01*
X111348685Y-121432580D02*
X111348685Y-120432580D01*
X110967733Y-120432580D01*
X110872495Y-120480200D01*
X110824876Y-120527819D01*
X110777257Y-120623057D01*
X110777257Y-120765914D01*
X110824876Y-120861152D01*
X110872495Y-120908771D01*
X110967733Y-120956390D01*
X111348685Y-120956390D01*
X110396304Y-120527819D02*
X110348685Y-120480200D01*
X110253447Y-120432580D01*
X110015352Y-120432580D01*
X109920114Y-120480200D01*
X109872495Y-120527819D01*
X109824876Y-120623057D01*
X109824876Y-120718295D01*
X109872495Y-120861152D01*
X110443923Y-121432580D01*
X109824876Y-121432580D01*
X108967733Y-120432580D02*
X109158209Y-120432580D01*
X109253447Y-120480200D01*
X109301066Y-120527819D01*
X109396304Y-120670676D01*
X109443923Y-120861152D01*
X109443923Y-121242104D01*
X109396304Y-121337342D01*
X109348685Y-121384961D01*
X109253447Y-121432580D01*
X109062971Y-121432580D01*
X108967733Y-121384961D01*
X108920114Y-121337342D01*
X108872495Y-121242104D01*
X108872495Y-121004009D01*
X108920114Y-120908771D01*
X108967733Y-120861152D01*
X109062971Y-120813533D01*
X109253447Y-120813533D01*
X109348685Y-120861152D01*
X109396304Y-120908771D01*
X109443923Y-121004009D01*
X110777257Y-120416580D02*
X111110590Y-119940390D01*
X111348685Y-120416580D02*
X111348685Y-119416580D01*
X110967733Y-119416580D01*
X110872495Y-119464200D01*
X110824876Y-119511819D01*
X110777257Y-119607057D01*
X110777257Y-119749914D01*
X110824876Y-119845152D01*
X110872495Y-119892771D01*
X110967733Y-119940390D01*
X111348685Y-119940390D01*
X110396304Y-119511819D02*
X110348685Y-119464200D01*
X110253447Y-119416580D01*
X110015352Y-119416580D01*
X109920114Y-119464200D01*
X109872495Y-119511819D01*
X109824876Y-119607057D01*
X109824876Y-119702295D01*
X109872495Y-119845152D01*
X110443923Y-120416580D01*
X109824876Y-120416580D01*
X109491542Y-119416580D02*
X108824876Y-119416580D01*
X109253447Y-120416580D01*
X110777257Y-122321580D02*
X111110590Y-121845390D01*
X111348685Y-122321580D02*
X111348685Y-121321580D01*
X110967733Y-121321580D01*
X110872495Y-121369200D01*
X110824876Y-121416819D01*
X110777257Y-121512057D01*
X110777257Y-121654914D01*
X110824876Y-121750152D01*
X110872495Y-121797771D01*
X110967733Y-121845390D01*
X111348685Y-121845390D01*
X110443923Y-121321580D02*
X109824876Y-121321580D01*
X110158209Y-121702533D01*
X110015352Y-121702533D01*
X109920114Y-121750152D01*
X109872495Y-121797771D01*
X109824876Y-121893009D01*
X109824876Y-122131104D01*
X109872495Y-122226342D01*
X109920114Y-122273961D01*
X110015352Y-122321580D01*
X110301066Y-122321580D01*
X110396304Y-122273961D01*
X110443923Y-122226342D01*
X109205828Y-121321580D02*
X109110590Y-121321580D01*
X109015352Y-121369200D01*
X108967733Y-121416819D01*
X108920114Y-121512057D01*
X108872495Y-121702533D01*
X108872495Y-121940628D01*
X108920114Y-122131104D01*
X108967733Y-122226342D01*
X109015352Y-122273961D01*
X109110590Y-122321580D01*
X109205828Y-122321580D01*
X109301066Y-122273961D01*
X109348685Y-122226342D01*
X109396304Y-122131104D01*
X109443923Y-121940628D01*
X109443923Y-121702533D01*
X109396304Y-121512057D01*
X109348685Y-121416819D01*
X109301066Y-121369200D01*
X109205828Y-121321580D01*
X116885980Y-144848342D02*
X116409790Y-144515009D01*
X116885980Y-144276914D02*
X115885980Y-144276914D01*
X115885980Y-144657866D01*
X115933600Y-144753104D01*
X115981219Y-144800723D01*
X116076457Y-144848342D01*
X116219314Y-144848342D01*
X116314552Y-144800723D01*
X116362171Y-144753104D01*
X116409790Y-144657866D01*
X116409790Y-144276914D01*
X115885980Y-145181676D02*
X115885980Y-145800723D01*
X116266933Y-145467390D01*
X116266933Y-145610247D01*
X116314552Y-145705485D01*
X116362171Y-145753104D01*
X116457409Y-145800723D01*
X116695504Y-145800723D01*
X116790742Y-145753104D01*
X116838361Y-145705485D01*
X116885980Y-145610247D01*
X116885980Y-145324533D01*
X116838361Y-145229295D01*
X116790742Y-145181676D01*
X116885980Y-146753104D02*
X116885980Y-146181676D01*
X116885980Y-146467390D02*
X115885980Y-146467390D01*
X116028838Y-146372152D01*
X116124076Y-146276914D01*
X116171695Y-146181676D01*
X120873780Y-144848342D02*
X120397590Y-144515009D01*
X120873780Y-144276914D02*
X119873780Y-144276914D01*
X119873780Y-144657866D01*
X119921400Y-144753104D01*
X119969019Y-144800723D01*
X120064257Y-144848342D01*
X120207114Y-144848342D01*
X120302352Y-144800723D01*
X120349971Y-144753104D01*
X120397590Y-144657866D01*
X120397590Y-144276914D01*
X119873780Y-145181676D02*
X119873780Y-145800723D01*
X120254733Y-145467390D01*
X120254733Y-145610247D01*
X120302352Y-145705485D01*
X120349971Y-145753104D01*
X120445209Y-145800723D01*
X120683304Y-145800723D01*
X120778542Y-145753104D01*
X120826161Y-145705485D01*
X120873780Y-145610247D01*
X120873780Y-145324533D01*
X120826161Y-145229295D01*
X120778542Y-145181676D01*
X119969019Y-146181676D02*
X119921400Y-146229295D01*
X119873780Y-146324533D01*
X119873780Y-146562628D01*
X119921400Y-146657866D01*
X119969019Y-146705485D01*
X120064257Y-146753104D01*
X120159495Y-146753104D01*
X120302352Y-146705485D01*
X120873780Y-146134057D01*
X120873780Y-146753104D01*
X121864380Y-144848342D02*
X121388190Y-144515009D01*
X121864380Y-144276914D02*
X120864380Y-144276914D01*
X120864380Y-144657866D01*
X120912000Y-144753104D01*
X120959619Y-144800723D01*
X121054857Y-144848342D01*
X121197714Y-144848342D01*
X121292952Y-144800723D01*
X121340571Y-144753104D01*
X121388190Y-144657866D01*
X121388190Y-144276914D01*
X120864380Y-145181676D02*
X120864380Y-145800723D01*
X121245333Y-145467390D01*
X121245333Y-145610247D01*
X121292952Y-145705485D01*
X121340571Y-145753104D01*
X121435809Y-145800723D01*
X121673904Y-145800723D01*
X121769142Y-145753104D01*
X121816761Y-145705485D01*
X121864380Y-145610247D01*
X121864380Y-145324533D01*
X121816761Y-145229295D01*
X121769142Y-145181676D01*
X120864380Y-146134057D02*
X120864380Y-146753104D01*
X121245333Y-146419771D01*
X121245333Y-146562628D01*
X121292952Y-146657866D01*
X121340571Y-146705485D01*
X121435809Y-146753104D01*
X121673904Y-146753104D01*
X121769142Y-146705485D01*
X121816761Y-146657866D01*
X121864380Y-146562628D01*
X121864380Y-146276914D01*
X121816761Y-146181676D01*
X121769142Y-146134057D01*
X117901980Y-144848342D02*
X117425790Y-144515009D01*
X117901980Y-144276914D02*
X116901980Y-144276914D01*
X116901980Y-144657866D01*
X116949600Y-144753104D01*
X116997219Y-144800723D01*
X117092457Y-144848342D01*
X117235314Y-144848342D01*
X117330552Y-144800723D01*
X117378171Y-144753104D01*
X117425790Y-144657866D01*
X117425790Y-144276914D01*
X116901980Y-145181676D02*
X116901980Y-145800723D01*
X117282933Y-145467390D01*
X117282933Y-145610247D01*
X117330552Y-145705485D01*
X117378171Y-145753104D01*
X117473409Y-145800723D01*
X117711504Y-145800723D01*
X117806742Y-145753104D01*
X117854361Y-145705485D01*
X117901980Y-145610247D01*
X117901980Y-145324533D01*
X117854361Y-145229295D01*
X117806742Y-145181676D01*
X117235314Y-146657866D02*
X117901980Y-146657866D01*
X116854361Y-146419771D02*
X117568647Y-146181676D01*
X117568647Y-146800723D01*
X115895380Y-144848342D02*
X115419190Y-144515009D01*
X115895380Y-144276914D02*
X114895380Y-144276914D01*
X114895380Y-144657866D01*
X114943000Y-144753104D01*
X114990619Y-144800723D01*
X115085857Y-144848342D01*
X115228714Y-144848342D01*
X115323952Y-144800723D01*
X115371571Y-144753104D01*
X115419190Y-144657866D01*
X115419190Y-144276914D01*
X114895380Y-145181676D02*
X114895380Y-145800723D01*
X115276333Y-145467390D01*
X115276333Y-145610247D01*
X115323952Y-145705485D01*
X115371571Y-145753104D01*
X115466809Y-145800723D01*
X115704904Y-145800723D01*
X115800142Y-145753104D01*
X115847761Y-145705485D01*
X115895380Y-145610247D01*
X115895380Y-145324533D01*
X115847761Y-145229295D01*
X115800142Y-145181676D01*
X114895380Y-146705485D02*
X114895380Y-146229295D01*
X115371571Y-146181676D01*
X115323952Y-146229295D01*
X115276333Y-146324533D01*
X115276333Y-146562628D01*
X115323952Y-146657866D01*
X115371571Y-146705485D01*
X115466809Y-146753104D01*
X115704904Y-146753104D01*
X115800142Y-146705485D01*
X115847761Y-146657866D01*
X115895380Y-146562628D01*
X115895380Y-146324533D01*
X115847761Y-146229295D01*
X115800142Y-146181676D01*
X118892580Y-144848342D02*
X118416390Y-144515009D01*
X118892580Y-144276914D02*
X117892580Y-144276914D01*
X117892580Y-144657866D01*
X117940200Y-144753104D01*
X117987819Y-144800723D01*
X118083057Y-144848342D01*
X118225914Y-144848342D01*
X118321152Y-144800723D01*
X118368771Y-144753104D01*
X118416390Y-144657866D01*
X118416390Y-144276914D01*
X117892580Y-145181676D02*
X117892580Y-145800723D01*
X118273533Y-145467390D01*
X118273533Y-145610247D01*
X118321152Y-145705485D01*
X118368771Y-145753104D01*
X118464009Y-145800723D01*
X118702104Y-145800723D01*
X118797342Y-145753104D01*
X118844961Y-145705485D01*
X118892580Y-145610247D01*
X118892580Y-145324533D01*
X118844961Y-145229295D01*
X118797342Y-145181676D01*
X117892580Y-146657866D02*
X117892580Y-146467390D01*
X117940200Y-146372152D01*
X117987819Y-146324533D01*
X118130676Y-146229295D01*
X118321152Y-146181676D01*
X118702104Y-146181676D01*
X118797342Y-146229295D01*
X118844961Y-146276914D01*
X118892580Y-146372152D01*
X118892580Y-146562628D01*
X118844961Y-146657866D01*
X118797342Y-146705485D01*
X118702104Y-146753104D01*
X118464009Y-146753104D01*
X118368771Y-146705485D01*
X118321152Y-146657866D01*
X118273533Y-146562628D01*
X118273533Y-146372152D01*
X118321152Y-146276914D01*
X118368771Y-146229295D01*
X118464009Y-146181676D01*
X121203980Y-115409742D02*
X120727790Y-115076409D01*
X121203980Y-114838314D02*
X120203980Y-114838314D01*
X120203980Y-115219266D01*
X120251600Y-115314504D01*
X120299219Y-115362123D01*
X120394457Y-115409742D01*
X120537314Y-115409742D01*
X120632552Y-115362123D01*
X120680171Y-115314504D01*
X120727790Y-115219266D01*
X120727790Y-114838314D01*
X120203980Y-115743076D02*
X120203980Y-116362123D01*
X120584933Y-116028790D01*
X120584933Y-116171647D01*
X120632552Y-116266885D01*
X120680171Y-116314504D01*
X120775409Y-116362123D01*
X121013504Y-116362123D01*
X121108742Y-116314504D01*
X121156361Y-116266885D01*
X121203980Y-116171647D01*
X121203980Y-115885933D01*
X121156361Y-115790695D01*
X121108742Y-115743076D01*
X120632552Y-116933552D02*
X120584933Y-116838314D01*
X120537314Y-116790695D01*
X120442076Y-116743076D01*
X120394457Y-116743076D01*
X120299219Y-116790695D01*
X120251600Y-116838314D01*
X120203980Y-116933552D01*
X120203980Y-117124028D01*
X120251600Y-117219266D01*
X120299219Y-117266885D01*
X120394457Y-117314504D01*
X120442076Y-117314504D01*
X120537314Y-117266885D01*
X120584933Y-117219266D01*
X120632552Y-117124028D01*
X120632552Y-116933552D01*
X120680171Y-116838314D01*
X120727790Y-116790695D01*
X120823028Y-116743076D01*
X121013504Y-116743076D01*
X121108742Y-116790695D01*
X121156361Y-116838314D01*
X121203980Y-116933552D01*
X121203980Y-117124028D01*
X121156361Y-117219266D01*
X121108742Y-117266885D01*
X121013504Y-117314504D01*
X120823028Y-117314504D01*
X120727790Y-117266885D01*
X120680171Y-117219266D01*
X120632552Y-117124028D01*
X122296180Y-115409742D02*
X121819990Y-115076409D01*
X122296180Y-114838314D02*
X121296180Y-114838314D01*
X121296180Y-115219266D01*
X121343800Y-115314504D01*
X121391419Y-115362123D01*
X121486657Y-115409742D01*
X121629514Y-115409742D01*
X121724752Y-115362123D01*
X121772371Y-115314504D01*
X121819990Y-115219266D01*
X121819990Y-114838314D01*
X121296180Y-115743076D02*
X121296180Y-116362123D01*
X121677133Y-116028790D01*
X121677133Y-116171647D01*
X121724752Y-116266885D01*
X121772371Y-116314504D01*
X121867609Y-116362123D01*
X122105704Y-116362123D01*
X122200942Y-116314504D01*
X122248561Y-116266885D01*
X122296180Y-116171647D01*
X122296180Y-115885933D01*
X122248561Y-115790695D01*
X122200942Y-115743076D01*
X122296180Y-116838314D02*
X122296180Y-117028790D01*
X122248561Y-117124028D01*
X122200942Y-117171647D01*
X122058085Y-117266885D01*
X121867609Y-117314504D01*
X121486657Y-117314504D01*
X121391419Y-117266885D01*
X121343800Y-117219266D01*
X121296180Y-117124028D01*
X121296180Y-116933552D01*
X121343800Y-116838314D01*
X121391419Y-116790695D01*
X121486657Y-116743076D01*
X121724752Y-116743076D01*
X121819990Y-116790695D01*
X121867609Y-116838314D01*
X121915228Y-116933552D01*
X121915228Y-117124028D01*
X121867609Y-117219266D01*
X121819990Y-117266885D01*
X121724752Y-117314504D01*
X120187980Y-115409742D02*
X119711790Y-115076409D01*
X120187980Y-114838314D02*
X119187980Y-114838314D01*
X119187980Y-115219266D01*
X119235600Y-115314504D01*
X119283219Y-115362123D01*
X119378457Y-115409742D01*
X119521314Y-115409742D01*
X119616552Y-115362123D01*
X119664171Y-115314504D01*
X119711790Y-115219266D01*
X119711790Y-114838314D01*
X119521314Y-116266885D02*
X120187980Y-116266885D01*
X119140361Y-116028790D02*
X119854647Y-115790695D01*
X119854647Y-116409742D01*
X119187980Y-116981171D02*
X119187980Y-117076409D01*
X119235600Y-117171647D01*
X119283219Y-117219266D01*
X119378457Y-117266885D01*
X119568933Y-117314504D01*
X119807028Y-117314504D01*
X119997504Y-117266885D01*
X120092742Y-117219266D01*
X120140361Y-117171647D01*
X120187980Y-117076409D01*
X120187980Y-116981171D01*
X120140361Y-116885933D01*
X120092742Y-116838314D01*
X119997504Y-116790695D01*
X119807028Y-116743076D01*
X119568933Y-116743076D01*
X119378457Y-116790695D01*
X119283219Y-116838314D01*
X119235600Y-116885933D01*
X119187980Y-116981171D01*
X118079780Y-115409742D02*
X117603590Y-115076409D01*
X118079780Y-114838314D02*
X117079780Y-114838314D01*
X117079780Y-115219266D01*
X117127400Y-115314504D01*
X117175019Y-115362123D01*
X117270257Y-115409742D01*
X117413114Y-115409742D01*
X117508352Y-115362123D01*
X117555971Y-115314504D01*
X117603590Y-115219266D01*
X117603590Y-114838314D01*
X117413114Y-116266885D02*
X118079780Y-116266885D01*
X117032161Y-116028790D02*
X117746447Y-115790695D01*
X117746447Y-116409742D01*
X118079780Y-117314504D02*
X118079780Y-116743076D01*
X118079780Y-117028790D02*
X117079780Y-117028790D01*
X117222638Y-116933552D01*
X117317876Y-116838314D01*
X117365495Y-116743076D01*
X110777257Y-128773180D02*
X111110590Y-128296990D01*
X111348685Y-128773180D02*
X111348685Y-127773180D01*
X110967733Y-127773180D01*
X110872495Y-127820800D01*
X110824876Y-127868419D01*
X110777257Y-127963657D01*
X110777257Y-128106514D01*
X110824876Y-128201752D01*
X110872495Y-128249371D01*
X110967733Y-128296990D01*
X111348685Y-128296990D01*
X109872495Y-127773180D02*
X110348685Y-127773180D01*
X110396304Y-128249371D01*
X110348685Y-128201752D01*
X110253447Y-128154133D01*
X110015352Y-128154133D01*
X109920114Y-128201752D01*
X109872495Y-128249371D01*
X109824876Y-128344609D01*
X109824876Y-128582704D01*
X109872495Y-128677942D01*
X109920114Y-128725561D01*
X110015352Y-128773180D01*
X110253447Y-128773180D01*
X110348685Y-128725561D01*
X110396304Y-128677942D01*
X109205828Y-127773180D02*
X109110590Y-127773180D01*
X109015352Y-127820800D01*
X108967733Y-127868419D01*
X108920114Y-127963657D01*
X108872495Y-128154133D01*
X108872495Y-128392228D01*
X108920114Y-128582704D01*
X108967733Y-128677942D01*
X109015352Y-128725561D01*
X109110590Y-128773180D01*
X109205828Y-128773180D01*
X109301066Y-128725561D01*
X109348685Y-128677942D01*
X109396304Y-128582704D01*
X109443923Y-128392228D01*
X109443923Y-128154133D01*
X109396304Y-127963657D01*
X109348685Y-127868419D01*
X109301066Y-127820800D01*
X109205828Y-127773180D01*
X110777257Y-129687580D02*
X111110590Y-129211390D01*
X111348685Y-129687580D02*
X111348685Y-128687580D01*
X110967733Y-128687580D01*
X110872495Y-128735200D01*
X110824876Y-128782819D01*
X110777257Y-128878057D01*
X110777257Y-129020914D01*
X110824876Y-129116152D01*
X110872495Y-129163771D01*
X110967733Y-129211390D01*
X111348685Y-129211390D01*
X109872495Y-128687580D02*
X110348685Y-128687580D01*
X110396304Y-129163771D01*
X110348685Y-129116152D01*
X110253447Y-129068533D01*
X110015352Y-129068533D01*
X109920114Y-129116152D01*
X109872495Y-129163771D01*
X109824876Y-129259009D01*
X109824876Y-129497104D01*
X109872495Y-129592342D01*
X109920114Y-129639961D01*
X110015352Y-129687580D01*
X110253447Y-129687580D01*
X110348685Y-129639961D01*
X110396304Y-129592342D01*
X108872495Y-129687580D02*
X109443923Y-129687580D01*
X109158209Y-129687580D02*
X109158209Y-128687580D01*
X109253447Y-128830438D01*
X109348685Y-128925676D01*
X109443923Y-128973295D01*
X110777257Y-130627380D02*
X111110590Y-130151190D01*
X111348685Y-130627380D02*
X111348685Y-129627380D01*
X110967733Y-129627380D01*
X110872495Y-129675000D01*
X110824876Y-129722619D01*
X110777257Y-129817857D01*
X110777257Y-129960714D01*
X110824876Y-130055952D01*
X110872495Y-130103571D01*
X110967733Y-130151190D01*
X111348685Y-130151190D01*
X109872495Y-129627380D02*
X110348685Y-129627380D01*
X110396304Y-130103571D01*
X110348685Y-130055952D01*
X110253447Y-130008333D01*
X110015352Y-130008333D01*
X109920114Y-130055952D01*
X109872495Y-130103571D01*
X109824876Y-130198809D01*
X109824876Y-130436904D01*
X109872495Y-130532142D01*
X109920114Y-130579761D01*
X110015352Y-130627380D01*
X110253447Y-130627380D01*
X110348685Y-130579761D01*
X110396304Y-130532142D01*
X109443923Y-129722619D02*
X109396304Y-129675000D01*
X109301066Y-129627380D01*
X109062971Y-129627380D01*
X108967733Y-129675000D01*
X108920114Y-129722619D01*
X108872495Y-129817857D01*
X108872495Y-129913095D01*
X108920114Y-130055952D01*
X109491542Y-130627380D01*
X108872495Y-130627380D01*
X114879380Y-144848342D02*
X114403190Y-144515009D01*
X114879380Y-144276914D02*
X113879380Y-144276914D01*
X113879380Y-144657866D01*
X113927000Y-144753104D01*
X113974619Y-144800723D01*
X114069857Y-144848342D01*
X114212714Y-144848342D01*
X114307952Y-144800723D01*
X114355571Y-144753104D01*
X114403190Y-144657866D01*
X114403190Y-144276914D01*
X113879380Y-145753104D02*
X113879380Y-145276914D01*
X114355571Y-145229295D01*
X114307952Y-145276914D01*
X114260333Y-145372152D01*
X114260333Y-145610247D01*
X114307952Y-145705485D01*
X114355571Y-145753104D01*
X114450809Y-145800723D01*
X114688904Y-145800723D01*
X114784142Y-145753104D01*
X114831761Y-145705485D01*
X114879380Y-145610247D01*
X114879380Y-145372152D01*
X114831761Y-145276914D01*
X114784142Y-145229295D01*
X113879380Y-146134057D02*
X113879380Y-146753104D01*
X114260333Y-146419771D01*
X114260333Y-146562628D01*
X114307952Y-146657866D01*
X114355571Y-146705485D01*
X114450809Y-146753104D01*
X114688904Y-146753104D01*
X114784142Y-146705485D01*
X114831761Y-146657866D01*
X114879380Y-146562628D01*
X114879380Y-146276914D01*
X114831761Y-146181676D01*
X114784142Y-146134057D01*
X123388380Y-115409742D02*
X122912190Y-115076409D01*
X123388380Y-114838314D02*
X122388380Y-114838314D01*
X122388380Y-115219266D01*
X122436000Y-115314504D01*
X122483619Y-115362123D01*
X122578857Y-115409742D01*
X122721714Y-115409742D01*
X122816952Y-115362123D01*
X122864571Y-115314504D01*
X122912190Y-115219266D01*
X122912190Y-114838314D01*
X122388380Y-116314504D02*
X122388380Y-115838314D01*
X122864571Y-115790695D01*
X122816952Y-115838314D01*
X122769333Y-115933552D01*
X122769333Y-116171647D01*
X122816952Y-116266885D01*
X122864571Y-116314504D01*
X122959809Y-116362123D01*
X123197904Y-116362123D01*
X123293142Y-116314504D01*
X123340761Y-116266885D01*
X123388380Y-116171647D01*
X123388380Y-115933552D01*
X123340761Y-115838314D01*
X123293142Y-115790695D01*
X122721714Y-117219266D02*
X123388380Y-117219266D01*
X122340761Y-116981171D02*
X123055047Y-116743076D01*
X123055047Y-117362123D01*
X110777257Y-123337580D02*
X111110590Y-122861390D01*
X111348685Y-123337580D02*
X111348685Y-122337580D01*
X110967733Y-122337580D01*
X110872495Y-122385200D01*
X110824876Y-122432819D01*
X110777257Y-122528057D01*
X110777257Y-122670914D01*
X110824876Y-122766152D01*
X110872495Y-122813771D01*
X110967733Y-122861390D01*
X111348685Y-122861390D01*
X109872495Y-122337580D02*
X110348685Y-122337580D01*
X110396304Y-122813771D01*
X110348685Y-122766152D01*
X110253447Y-122718533D01*
X110015352Y-122718533D01*
X109920114Y-122766152D01*
X109872495Y-122813771D01*
X109824876Y-122909009D01*
X109824876Y-123147104D01*
X109872495Y-123242342D01*
X109920114Y-123289961D01*
X110015352Y-123337580D01*
X110253447Y-123337580D01*
X110348685Y-123289961D01*
X110396304Y-123242342D01*
X109491542Y-122337580D02*
X108824876Y-122337580D01*
X109253447Y-123337580D01*
X110777257Y-125267980D02*
X111110590Y-124791790D01*
X111348685Y-125267980D02*
X111348685Y-124267980D01*
X110967733Y-124267980D01*
X110872495Y-124315600D01*
X110824876Y-124363219D01*
X110777257Y-124458457D01*
X110777257Y-124601314D01*
X110824876Y-124696552D01*
X110872495Y-124744171D01*
X110967733Y-124791790D01*
X111348685Y-124791790D01*
X109872495Y-124267980D02*
X110348685Y-124267980D01*
X110396304Y-124744171D01*
X110348685Y-124696552D01*
X110253447Y-124648933D01*
X110015352Y-124648933D01*
X109920114Y-124696552D01*
X109872495Y-124744171D01*
X109824876Y-124839409D01*
X109824876Y-125077504D01*
X109872495Y-125172742D01*
X109920114Y-125220361D01*
X110015352Y-125267980D01*
X110253447Y-125267980D01*
X110348685Y-125220361D01*
X110396304Y-125172742D01*
X109253447Y-124696552D02*
X109348685Y-124648933D01*
X109396304Y-124601314D01*
X109443923Y-124506076D01*
X109443923Y-124458457D01*
X109396304Y-124363219D01*
X109348685Y-124315600D01*
X109253447Y-124267980D01*
X109062971Y-124267980D01*
X108967733Y-124315600D01*
X108920114Y-124363219D01*
X108872495Y-124458457D01*
X108872495Y-124506076D01*
X108920114Y-124601314D01*
X108967733Y-124648933D01*
X109062971Y-124696552D01*
X109253447Y-124696552D01*
X109348685Y-124744171D01*
X109396304Y-124791790D01*
X109443923Y-124887028D01*
X109443923Y-125077504D01*
X109396304Y-125172742D01*
X109348685Y-125220361D01*
X109253447Y-125267980D01*
X109062971Y-125267980D01*
X108967733Y-125220361D01*
X108920114Y-125172742D01*
X108872495Y-125077504D01*
X108872495Y-124887028D01*
X108920114Y-124791790D01*
X108967733Y-124744171D01*
X109062971Y-124696552D01*
X110777257Y-126766580D02*
X111110590Y-126290390D01*
X111348685Y-126766580D02*
X111348685Y-125766580D01*
X110967733Y-125766580D01*
X110872495Y-125814200D01*
X110824876Y-125861819D01*
X110777257Y-125957057D01*
X110777257Y-126099914D01*
X110824876Y-126195152D01*
X110872495Y-126242771D01*
X110967733Y-126290390D01*
X111348685Y-126290390D01*
X109872495Y-125766580D02*
X110348685Y-125766580D01*
X110396304Y-126242771D01*
X110348685Y-126195152D01*
X110253447Y-126147533D01*
X110015352Y-126147533D01*
X109920114Y-126195152D01*
X109872495Y-126242771D01*
X109824876Y-126338009D01*
X109824876Y-126576104D01*
X109872495Y-126671342D01*
X109920114Y-126718961D01*
X110015352Y-126766580D01*
X110253447Y-126766580D01*
X110348685Y-126718961D01*
X110396304Y-126671342D01*
X109348685Y-126766580D02*
X109158209Y-126766580D01*
X109062971Y-126718961D01*
X109015352Y-126671342D01*
X108920114Y-126528485D01*
X108872495Y-126338009D01*
X108872495Y-125957057D01*
X108920114Y-125861819D01*
X108967733Y-125814200D01*
X109062971Y-125766580D01*
X109253447Y-125766580D01*
X109348685Y-125814200D01*
X109396304Y-125861819D01*
X109443923Y-125957057D01*
X109443923Y-126195152D01*
X109396304Y-126290390D01*
X109348685Y-126338009D01*
X109253447Y-126385628D01*
X109062971Y-126385628D01*
X108967733Y-126338009D01*
X108920114Y-126290390D01*
X108872495Y-126195152D01*
X110777257Y-124277380D02*
X111110590Y-123801190D01*
X111348685Y-124277380D02*
X111348685Y-123277380D01*
X110967733Y-123277380D01*
X110872495Y-123325000D01*
X110824876Y-123372619D01*
X110777257Y-123467857D01*
X110777257Y-123610714D01*
X110824876Y-123705952D01*
X110872495Y-123753571D01*
X110967733Y-123801190D01*
X111348685Y-123801190D01*
X109920114Y-123277380D02*
X110110590Y-123277380D01*
X110205828Y-123325000D01*
X110253447Y-123372619D01*
X110348685Y-123515476D01*
X110396304Y-123705952D01*
X110396304Y-124086904D01*
X110348685Y-124182142D01*
X110301066Y-124229761D01*
X110205828Y-124277380D01*
X110015352Y-124277380D01*
X109920114Y-124229761D01*
X109872495Y-124182142D01*
X109824876Y-124086904D01*
X109824876Y-123848809D01*
X109872495Y-123753571D01*
X109920114Y-123705952D01*
X110015352Y-123658333D01*
X110205828Y-123658333D01*
X110301066Y-123705952D01*
X110348685Y-123753571D01*
X110396304Y-123848809D01*
X109491542Y-123277380D02*
X108872495Y-123277380D01*
X109205828Y-123658333D01*
X109062971Y-123658333D01*
X108967733Y-123705952D01*
X108920114Y-123753571D01*
X108872495Y-123848809D01*
X108872495Y-124086904D01*
X108920114Y-124182142D01*
X108967733Y-124229761D01*
X109062971Y-124277380D01*
X109348685Y-124277380D01*
X109443923Y-124229761D01*
X109491542Y-124182142D01*
X119908580Y-144848342D02*
X119432390Y-144515009D01*
X119908580Y-144276914D02*
X118908580Y-144276914D01*
X118908580Y-144657866D01*
X118956200Y-144753104D01*
X119003819Y-144800723D01*
X119099057Y-144848342D01*
X119241914Y-144848342D01*
X119337152Y-144800723D01*
X119384771Y-144753104D01*
X119432390Y-144657866D01*
X119432390Y-144276914D01*
X119337152Y-145419771D02*
X119289533Y-145324533D01*
X119241914Y-145276914D01*
X119146676Y-145229295D01*
X119099057Y-145229295D01*
X119003819Y-145276914D01*
X118956200Y-145324533D01*
X118908580Y-145419771D01*
X118908580Y-145610247D01*
X118956200Y-145705485D01*
X119003819Y-145753104D01*
X119099057Y-145800723D01*
X119146676Y-145800723D01*
X119241914Y-145753104D01*
X119289533Y-145705485D01*
X119337152Y-145610247D01*
X119337152Y-145419771D01*
X119384771Y-145324533D01*
X119432390Y-145276914D01*
X119527628Y-145229295D01*
X119718104Y-145229295D01*
X119813342Y-145276914D01*
X119860961Y-145324533D01*
X119908580Y-145419771D01*
X119908580Y-145610247D01*
X119860961Y-145705485D01*
X119813342Y-145753104D01*
X119718104Y-145800723D01*
X119527628Y-145800723D01*
X119432390Y-145753104D01*
X119384771Y-145705485D01*
X119337152Y-145610247D01*
X119908580Y-146753104D02*
X119908580Y-146181676D01*
X119908580Y-146467390D02*
X118908580Y-146467390D01*
X119051438Y-146372152D01*
X119146676Y-146276914D01*
X119194295Y-146181676D01*
X117467857Y-124987142D02*
X117515476Y-125034761D01*
X117658333Y-125082380D01*
X117753571Y-125082380D01*
X117896428Y-125034761D01*
X117991666Y-124939523D01*
X118039285Y-124844285D01*
X118086904Y-124653809D01*
X118086904Y-124510952D01*
X118039285Y-124320476D01*
X117991666Y-124225238D01*
X117896428Y-124130000D01*
X117753571Y-124082380D01*
X117658333Y-124082380D01*
X117515476Y-124130000D01*
X117467857Y-124177619D01*
X117086904Y-124177619D02*
X117039285Y-124130000D01*
X116944047Y-124082380D01*
X116705952Y-124082380D01*
X116610714Y-124130000D01*
X116563095Y-124177619D01*
X116515476Y-124272857D01*
X116515476Y-124368095D01*
X116563095Y-124510952D01*
X117134523Y-125082380D01*
X116515476Y-125082380D01*
X116134523Y-124177619D02*
X116086904Y-124130000D01*
X115991666Y-124082380D01*
X115753571Y-124082380D01*
X115658333Y-124130000D01*
X115610714Y-124177619D01*
X115563095Y-124272857D01*
X115563095Y-124368095D01*
X115610714Y-124510952D01*
X116182142Y-125082380D01*
X115563095Y-125082380D01*
M02*
